<?xml version="1.0" encoding="UTF-8" standalone="no"?>
<!-- Generator: Adobe Illustrator 16.0.0, SVG Export Plug-In . SVG Version: 6.00 Build 0)  -->

<svg
   xmlns:dc="http://purl.org/dc/elements/1.1/"
   xmlns:cc="http://creativecommons.org/ns#"
   xmlns:rdf="http://www.w3.org/1999/02/22-rdf-syntax-ns#"
   xmlns:svg="http://www.w3.org/2000/svg"
   xmlns="http://www.w3.org/2000/svg"
   xmlns:xlink="http://www.w3.org/1999/xlink"
   xmlns:sodipodi="http://sodipodi.sourceforge.net/DTD/sodipodi-0.dtd"
   xmlns:inkscape="http://www.inkscape.org/namespaces/inkscape"
   version="1.1"
   x="0px"
   y="0px"
   width="426.07965"
   height="238.49571"
   viewBox="0 0 426.07965 238.49571"
   enable-background="new 0 0 1400 980"
   xml:space="preserve"
   id="svg915"
   sodipodi:docname="planeta4.svg"
   inkscape:version="0.92.4 (5da689c313, 2019-01-14)"><metadata
   id="metadata921"><rdf:RDF><cc:Work
       rdf:about=""><dc:format>image/svg+xml</dc:format><dc:type
         rdf:resource="http://purl.org/dc/dcmitype/StillImage" /></cc:Work></rdf:RDF></metadata><defs
   id="defs919">
	
	<linearGradient
   y2="618.06049"
   x2="1291.2578"
   y1="618.06049"
   x1="1286.7578"
   gradientUnits="userSpaceOnUse"
   id="SVGID_60_">
		<stop
   id="stop781"
   style="stop-color:#0046FF;stop-opacity:0"
   offset="0" />
		<stop
   id="stop783"
   style="stop-color:#0445FD;stop-opacity:0.1251"
   offset="0.1251" />
		<stop
   id="stop785"
   style="stop-color:#1043F7;stop-opacity:0.2524"
   offset="0.2524" />
		<stop
   id="stop787"
   style="stop-color:#253FED;stop-opacity:0.3807"
   offset="0.3807" />
		<stop
   id="stop789"
   style="stop-color:#4139E0;stop-opacity:0.5098"
   offset="0.5098" />
		<stop
   id="stop791"
   style="stop-color:#6632CE;stop-opacity:0.6395"
   offset="0.6395" />
		<stop
   id="stop793"
   style="stop-color:#9329B9;stop-opacity:0.7697"
   offset="0.7697" />
		<stop
   id="stop795"
   style="stop-color:#C81EA0;stop-opacity:0.8978"
   offset="0.8978" />
		<stop
   id="stop797"
   style="stop-color:#F71589"
   offset="1" />
	</linearGradient>
	
	<linearGradient
   y2="628.81049"
   x2="1277.7578"
   y1="628.81049"
   x1="1274.7578"
   gradientUnits="userSpaceOnUse"
   id="SVGID_61_">
		<stop
   id="stop802"
   style="stop-color:#0046FF;stop-opacity:0"
   offset="0" />
		<stop
   id="stop804"
   style="stop-color:#0445FD;stop-opacity:0.1251"
   offset="0.1251" />
		<stop
   id="stop806"
   style="stop-color:#1043F7;stop-opacity:0.2524"
   offset="0.2524" />
		<stop
   id="stop808"
   style="stop-color:#253FED;stop-opacity:0.3807"
   offset="0.3807" />
		<stop
   id="stop810"
   style="stop-color:#4139E0;stop-opacity:0.5098"
   offset="0.5098" />
		<stop
   id="stop812"
   style="stop-color:#6632CE;stop-opacity:0.6395"
   offset="0.6395" />
		<stop
   id="stop814"
   style="stop-color:#9329B9;stop-opacity:0.7697"
   offset="0.7697" />
		<stop
   id="stop816"
   style="stop-color:#C81EA0;stop-opacity:0.8978"
   offset="0.8978" />
		<stop
   id="stop818"
   style="stop-color:#F71589"
   offset="1" />
	</linearGradient>
	
	<linearGradient
   y2="665.81049"
   x2="1311.7578"
   y1="665.81049"
   x1="1302.7578"
   gradientUnits="userSpaceOnUse"
   id="SVGID_62_">
		<stop
   id="stop823"
   style="stop-color:#0046FF;stop-opacity:0"
   offset="0" />
		<stop
   id="stop825"
   style="stop-color:#0445FD;stop-opacity:0.1251"
   offset="0.1251" />
		<stop
   id="stop827"
   style="stop-color:#1043F7;stop-opacity:0.2524"
   offset="0.2524" />
		<stop
   id="stop829"
   style="stop-color:#253FED;stop-opacity:0.3807"
   offset="0.3807" />
		<stop
   id="stop831"
   style="stop-color:#4139E0;stop-opacity:0.5098"
   offset="0.5098" />
		<stop
   id="stop833"
   style="stop-color:#6632CE;stop-opacity:0.6395"
   offset="0.6395" />
		<stop
   id="stop835"
   style="stop-color:#9329B9;stop-opacity:0.7697"
   offset="0.7697" />
		<stop
   id="stop837"
   style="stop-color:#C81EA0;stop-opacity:0.8978"
   offset="0.8978" />
		<stop
   id="stop839"
   style="stop-color:#F71589"
   offset="1" />
	</linearGradient>
	
	<linearGradient
   y2="673.06049"
   x2="1294.7578"
   y1="673.06049"
   x1="1284.2578"
   gradientUnits="userSpaceOnUse"
   id="SVGID_63_">
		<stop
   id="stop844"
   style="stop-color:#0046FF;stop-opacity:0"
   offset="0" />
		<stop
   id="stop846"
   style="stop-color:#0445FD;stop-opacity:0.1251"
   offset="0.1251" />
		<stop
   id="stop848"
   style="stop-color:#1043F7;stop-opacity:0.2524"
   offset="0.2524" />
		<stop
   id="stop850"
   style="stop-color:#253FED;stop-opacity:0.3807"
   offset="0.3807" />
		<stop
   id="stop852"
   style="stop-color:#4139E0;stop-opacity:0.5098"
   offset="0.5098" />
		<stop
   id="stop854"
   style="stop-color:#6632CE;stop-opacity:0.6395"
   offset="0.6395" />
		<stop
   id="stop856"
   style="stop-color:#9329B9;stop-opacity:0.7697"
   offset="0.7697" />
		<stop
   id="stop858"
   style="stop-color:#C81EA0;stop-opacity:0.8978"
   offset="0.8978" />
		<stop
   id="stop860"
   style="stop-color:#F71589"
   offset="1" />
	</linearGradient>
	
	<linearGradient
   y2="146.77"
   x2="183.0386"
   y1="146.77"
   x1="181.7583"
   gradientUnits="userSpaceOnUse"
   id="SVGID_64_"
   gradientTransform="translate(-636.22277,-614.67292)">
		<stop
   id="stop865"
   style="stop-color:#AB3FFF"
   offset="0" />
		<stop
   id="stop867"
   style="stop-color:#5B25D1;stop-opacity:0.566"
   offset="0.434" />
		<stop
   id="stop869"
   style="stop-color:#190FAC;stop-opacity:0.1806"
   offset="0.8194" />
		<stop
   id="stop871"
   style="stop-color:#00079E;stop-opacity:0"
   offset="1" />
	</linearGradient>
	

		<defs
   id="defs3">
			<rect
   id="SVGID_1_"
   x="-5.1609998"
   y="-0.69"
   width="1407.6331"
   height="984" />
		</defs>
		<clipPath
   id="SVGID_2_">
			<use
   height="100%"
   width="100%"
   y="0"
   x="0"
   style="overflow:visible"
   xlink:href="#SVGID_1_"
   overflow="visible"
   id="use5" />
		</clipPath>
		
		
			<radialGradient
   id="SVGID_3_"
   cx="695.10938"
   cy="491.31049"
   r="603.8493"
   gradientTransform="matrix(1.0047,0,0,1,-2.2563,0)"
   gradientUnits="userSpaceOnUse">
			<stop
   offset="0"
   style="stop-color:#00079E"
   id="stop10" />
			<stop
   offset="1"
   style="stop-color:#00079E;stop-opacity:0"
   id="stop12" />
		</radialGradient>
		
		
			<radialGradient
   id="SVGID_4_"
   cx="613.59772"
   cy="511.26071"
   r="734.81342"
   gradientTransform="matrix(1.0047,0,0,1,-2.2563,0)"
   gradientUnits="userSpaceOnUse">
			<stop
   offset="0"
   style="stop-color:#00079E"
   id="stop17" />
			<stop
   offset="1"
   style="stop-color:#00079E;stop-opacity:0"
   id="stop19" />
		</radialGradient>
		
		<linearGradient
   id="SVGID_5_"
   gradientUnits="userSpaceOnUse"
   x1="914.45697"
   y1="656.26367"
   x2="1553.5771"
   y2="656.26367">
			<stop
   offset="0"
   style="stop-color:#AB3FFF"
   id="stop24" />
			<stop
   offset="0.434"
   style="stop-color:#5B25D1;stop-opacity:0.566"
   id="stop26" />
			<stop
   offset="0.8194"
   style="stop-color:#190FAC;stop-opacity:0.1806"
   id="stop28" />
			<stop
   offset="1"
   style="stop-color:#00079E;stop-opacity:0"
   id="stop30" />
		</linearGradient>
		
		<linearGradient
   id="SVGID_6_"
   gradientUnits="userSpaceOnUse"
   x1="-22.8379"
   y1="229.46831"
   x2="761.74799"
   y2="229.46831">
			<stop
   offset="0"
   style="stop-color:#AB3FFF"
   id="stop35" />
			<stop
   offset="0.434"
   style="stop-color:#5B25D1;stop-opacity:0.566"
   id="stop37" />
			<stop
   offset="0.8194"
   style="stop-color:#190FAC;stop-opacity:0.1806"
   id="stop39" />
			<stop
   offset="1"
   style="stop-color:#00079E;stop-opacity:0"
   id="stop41" />
		</linearGradient>
		
		<linearGradient
   id="SVGID_7_"
   gradientUnits="userSpaceOnUse"
   x1="182.002"
   y1="969.42383"
   x2="364.7449"
   y2="597.8465">
			<stop
   offset="0"
   style="stop-color:#43EFFE"
   id="stop46" />
			<stop
   offset="0.1457"
   style="stop-color:#38CAEF;stop-opacity:0.8543"
   id="stop48" />
			<stop
   offset="0.5688"
   style="stop-color:#1A62C4;stop-opacity:0.4312"
   id="stop50" />
			<stop
   offset="0.8624"
   style="stop-color:#0720A9;stop-opacity:0.1376"
   id="stop52" />
			<stop
   offset="1"
   style="stop-color:#00079E;stop-opacity:0"
   id="stop54" />
		</linearGradient>
		
		
		
		
		
		
		
		
		
	</defs><sodipodi:namedview
   pagecolor="#ffffff"
   bordercolor="#666666"
   borderopacity="1"
   objecttolerance="10"
   gridtolerance="10"
   guidetolerance="10"
   inkscape:pageopacity="0"
   inkscape:pageshadow="2"
   inkscape:window-width="1920"
   inkscape:window-height="1016"
   id="namedview917"
   showgrid="false"
   inkscape:zoom="0.96326531"
   inkscape:cx="177.59975"
   inkscape:cy="237.59279"
   inkscape:window-x="0"
   inkscape:window-y="27"
   inkscape:window-maximized="1"
   inkscape:current-layer="svg915" />
<g
   clip-path="url(#SVGID_2_)"
   id="g504"
   transform="translate(-636.22277,-614.67292)">
			<circle
   style="fill:#fca700"
   cx="844.76599"
   cy="734.396"
   r="116"
   id="circle276" />
			
				<linearGradient
   id="SVGID_23_"
   gradientUnits="userSpaceOnUse"
   x1="-97.152298"
   y1="236.5117"
   x2="2.8468001"
   y2="352.51071"
   gradientTransform="matrix(0.9129,-0.4082,0.4082,0.9129,847.9268,484.001)">
				<stop
   offset="0"
   style="stop-color:#0046FF;stop-opacity:0"
   id="stop278" />
				<stop
   offset="1"
   style="stop-color:#0046FF"
   id="stop280" />
			</linearGradient>
			<path
   inkscape:connector-curvature="0"
   style="fill:url(#SVGID_23_)"
   d="m 950.662,687.047 c 1.955,4.373 3.617,8.799 4.99,13.268 3.217,10.404 4.891,21.004 5.117,31.506 0.148,6.705 -0.297,13.377 -1.297,19.936 -3.947,25.887 -16.586,50.072 -36.219,68.096 -8.977,8.242 -19.408,15.195 -31.139,20.441 -44.102,19.719 -93.959,9.664 -127.01,-21.553 -2.969,-2.791 -5.791,-5.748 -8.457,-8.871 -3.764,-4.396 -7.23,-9.113 -10.348,-14.148 -2.754,-4.422 -5.244,-9.082 -7.432,-13.975 -26.148,-58.48 0.057,-127.092 58.547,-153.246 30.309,-13.551 63.33,-13.047 91.746,-1.26 26.451,10.937 48.901,31.624 61.502,59.806 z"
   id="path283" />
			<g
   id="g317">
				<path
   style="fill:#ef9825"
   inkscape:connector-curvature="0"
   d="m 774.055,692.621 c -8.83,7.498 -22.16,25.945 -30.867,21.195 -0.701,-0.365 -1.363,-0.891 -1.986,-1.576 -8.551,-9.322 -3.01,-36.938 5.078,-44.99 10.561,-10.506 38.473,-16.141 46.521,-5.586 0.33,0.42 0.623,0.881 0.885,1.367 6.626,12.371 -10.106,21.496 -19.631,29.59 z"
   id="path285" />
				<path
   style="fill:#ef9825"
   inkscape:connector-curvature="0"
   d="m 842.514,703.637 c 1.402,14.16 -17.527,17.148 -23.486,30.768 -5.912,13.508 -35.615,37.646 -46.113,32.371 -0.092,-0.035 -0.18,-0.084 -0.268,-0.131 -10.268,-5.816 6.191,-24.129 6.217,-35.096 0.025,-10.965 3.836,-26.012 8.666,-29.617 20.223,-15.088 44.721,-13.533 52.525,-4.064 0.004,0.01 0.004,0.01 0.008,0.02 1.386,1.678 2.242,3.618 2.451,5.749 z"
   id="path287" />
				<path
   style="fill:#ef9825"
   inkscape:connector-curvature="0"
   d="m 921.111,707.928 c -9.322,8.549 -20.578,15.225 -29.023,29.408 -6.863,11.525 -28.125,14.295 -36.238,10.113 -1.889,-0.963 -3.057,-2.303 -3.195,-3.982 -0.73,-8.984 19.525,-32.281 16.104,-41.158 -3.421,-8.877 -4.289,-27.527 2.012,-31.023 15.363,-8.514 33.691,-7.945 50.312,1.055 2.484,1.344 4.438,2.891 5.916,4.584 8.483,9.591 2.046,23.731 -5.888,31.003 z"
   id="path289" />
				<path
   style="fill:#ef9825"
   inkscape:connector-curvature="0"
   d="m 846.582,725.182 c 0.018,0.529 -0.035,1.168 -0.158,1.9 -1.502,8.889 -3.316,14.629 -2.383,24.07 0.936,9.439 -18.609,31.873 -28.41,30.777 -1.488,-0.168 -2.74,-0.518 -3.752,-1.018 -5.723,-2.775 -4.25,-10.312 3.658,-17.562 9.322,-8.551 11.621,-25.461 18,-33.242 4.549,-5.55 12.871,-10.949 13.045,-4.925 z"
   id="path291" />
				<path
   style="fill:#ef9825"
   inkscape:connector-curvature="0"
   d="m 822.854,630.271 c 0.107,2.689 -24.191,10.816 -31.445,12.965 -4.104,1.211 -7.912,2.299 -10.479,1.629 -1.957,-0.506 -3.184,-2.049 -3.238,-5.355 -0.117,-7.613 25.6,-17.471 25.6,-17.471 10.891,-3.248 15.715,-0.695 17.842,2.496 1.471,2.166 1.678,4.637 1.72,5.736 z"
   id="path293" />
				<path
   style="fill:#ef9825"
   inkscape:connector-curvature="0"
   d="m 870.506,633.338 c 2.252,4.469 0.604,13.498 -4.85,21.611 -7.895,11.746 -8.424,24.031 -18.059,29.436 -9.633,5.402 -13.521,-8.195 -24.789,-6.443 -5.512,0.854 -9.582,0.812 -12.25,-0.449 -2.781,-1.318 -4.01,-3.969 -3.711,-8.297 0.59,-8.48 9.408,-15.709 22.598,-20.51 0,0 27.375,-17.17 35.699,-18.154 2.579,-0.309 4.352,0.792 5.362,2.806 z"
   id="path295" />
				<path
   style="fill:#ef9825"
   inkscape:connector-curvature="0"
   d="m 874.768,620.205 c 0.18,0.258 0.027,0.578 -0.395,0.932 -2.934,2.504 -18.924,7.016 -24.867,8.719 -5.711,1.633 -17.279,10.914 -22.639,12.697 -1.018,0.346 -1.822,0.408 -2.311,0.102 -3.049,-1.922 3.99,-9.451 7.689,-12.201 3.701,-2.75 -0.414,-12.248 6.67,-14.484 12.48,-3.939 34.374,2.155 35.853,4.235 z"
   id="path297" />
				<path
   style="fill:#ef9825"
   inkscape:connector-curvature="0"
   d="m 915.164,659.104 c -4.877,-1.107 -13.309,-2.814 -24.166,-0.15 -2.588,0.633 -4.508,0.604 -5.918,0.094 -4.531,-1.633 -3.875,-8.104 -3.148,-13.018 0.951,-6.451 0.775,-18.652 8.232,-19.564 6.75,-0.828 29.326,15.367 35.33,21.445 0.025,0.033 0.057,0.053 0.082,0.084 5.817,6.052 -5.558,12.212 -10.412,11.109 z"
   id="path299" />
				<path
   style="fill:#ef9825"
   inkscape:connector-curvature="0"
   d="m 766.732,732.592 c -3.281,8.588 -6.922,15.145 -8.568,27.383 -1.584,11.771 -14.34,23.467 -20.334,20.746 -0.246,-0.109 -0.477,-0.234 -0.689,-0.393 -5.645,-4.047 -6.436,-16.84 -9.088,-22.773 -2.654,-5.934 0.891,-10.258 6.775,-11.793 5.887,-1.537 14.076,-14.16 18.334,-20.246 4.355,-6.23 10.195,-4.977 12.83,-0.973 1.399,2.146 1.881,5.064 0.74,8.049 z"
   id="path301" />
				<path
   style="fill:#ef9825"
   inkscape:connector-curvature="0"
   d="m 803.162,790.791 c -3.797,4.984 -6.02,9.812 -6.863,18.951 -0.842,9.141 -10.609,22.818 -15.484,21.713 -4.877,-1.105 -9.104,-6.883 -18.002,-13.311 -0.014,-0.006 -0.014,-0.006 -0.018,-0.016 -8.877,-6.426 -4.484,-14.951 -1.203,-23.539 3.281,-8.586 17.289,-12.758 25.598,-17.471 4.906,-2.773 10.203,-0.113 13.51,3.73 2.87,3.363 4.226,7.621 2.462,9.943 z"
   id="path303" />
				<path
   style="fill:#ef9825"
   inkscape:connector-curvature="0"
   d="m 873.943,773.93 c -6.523,11.133 -11.641,15.611 -16.785,31.057 -5.143,15.445 -13.025,32.115 -27.498,30.369 -4.029,-0.486 -7.391,-1.854 -10.061,-3.857 -6.961,-5.203 -9.311,-14.625 -6.652,-23.723 3.678,-12.598 15.857,-14.758 24.422,-21.326 8.565,-6.568 8.701,-19.861 17.205,-25.219 7.504,-4.725 15.787,-2.908 19.297,1.854 2.098,2.829 2.5,6.692 0.072,10.845 z"
   id="path305" />
				<path
   style="fill:#ef9825"
   inkscape:connector-curvature="0"
   d="m 800.941,842.172 c -3.256,2.768 15.504,8.951 22.916,8.377 7.411,-0.574 -13.39,-16.469 -22.916,-8.377 z"
   id="path307" />
				<path
   style="fill:#ef9825"
   inkscape:connector-curvature="0"
   d="m 866.549,823.047 c 0.383,1.1 0.58,2.545 0.611,4.305 0.119,7.615 7.133,11.053 3.852,19.639 -2.912,7.623 -18.854,6.393 -25.455,4.316 -0.826,-0.254 -1.508,-0.529 -2.002,-0.803 -4.371,-2.426 10.293,-21.297 14.562,-26.229 4.168,-4.81 7.203,-4.908 8.432,-1.228 z"
   id="path309" />
				<path
   style="fill:#ef9825"
   inkscape:connector-curvature="0"
   d="m 956.24,773.357 c 0.305,4.607 -2.021,13.393 -4.938,18.016 -3.846,6.1 -18.623,26.947 -23.691,30.311 -0.633,0.424 -1.258,0.617 -1.826,0.596 -3.99,-0.055 -5.871,-10.168 2.18,-24.305 6.447,-11.33 24.303,-28.941 27.148,-27.477 0.684,0.352 1.041,1.397 1.127,2.859 z"
   id="path311" />
				<path
   style="fill:#ef9825"
   inkscape:connector-curvature="0"
   d="m 963.891,722.758 c 0.119,7.615 -14.342,10.795 -25.045,15.031 -7.67,3.035 -15.609,9.85 -20.125,8.912 -1.793,-0.359 -3.037,-1.939 -3.525,-5.457 -1.703,-12.383 11.582,-19.42 19.379,-28.93 7.797,-9.512 9.24,-22.207 14.611,-27.346 l 1.477,2.078 c 0.367,0.186 0.738,0.426 1.109,0.719 0.412,0.332 0.811,0.734 1.211,1.189 0.205,0.238 0.414,0.484 0.607,0.748 5.707,7.472 10.199,26.528 10.301,33.056 z"
   id="path313" />
				<path
   style="fill:#ef9825"
   inkscape:connector-curvature="0"
   d="m 944.396,755.057 c 0.146,0.275 0.271,0.58 0.379,0.895 3.373,9.994 -16.496,24.355 -25.564,32.244 -9.07,7.889 -13.135,29.424 -24.33,39.906 -5.197,4.865 -10.381,5.004 -14.021,2.742 -0.004,-0.008 -0.014,-0.004 -0.014,-0.004 -4.199,-2.604 -6.334,-8.408 -4.062,-13.814 4.24,-10.113 -3.744,-16.949 0.545,-28.178 4.291,-11.229 19.154,-23.309 29.229,-28.953 9.325,-5.233 33.254,-13.403 37.838,-4.838 z"
   id="path315" />
			</g>
			
				<linearGradient
   id="SVGID_24_"
   gradientUnits="userSpaceOnUse"
   x1="-145.75729"
   y1="222.8223"
   x2="-76.7612"
   y2="336.81641"
   gradientTransform="matrix(0.9129,-0.4082,0.4082,0.9129,847.9268,484.001)">
				<stop
   offset="0"
   style="stop-color:#0046FF;stop-opacity:0"
   id="stop319" />
				<stop
   offset="1"
   style="stop-color:#0046FF"
   id="stop321" />
			</linearGradient>
			<path
   inkscape:connector-curvature="0"
   style="fill:url(#SVGID_24_)"
   d="m 959.473,751.756 c -5.746,37.711 -29.945,71.809 -67.357,88.537 -48.045,21.482 -102.922,7.627 -135.467,-30.424 47.16,-1.83 121.81,-13.201 202.824,-58.113 z"
   id="path324" />
			<g
   id="g358">
				<path
   style="fill:#f26522"
   inkscape:connector-curvature="0"
   d="m 774.055,692.621 c -8.83,7.498 -22.16,25.945 -30.867,21.195 -7.359,-10.16 -1.926,-36.207 5.889,-43.984 9.561,-9.51 33.33,-15.023 43.725,-8.168 0.33,0.42 0.623,0.881 0.885,1.367 6.625,12.371 -10.107,21.496 -19.632,29.59 z"
   id="path326" />
				<path
   style="fill:#f26522"
   inkscape:connector-curvature="0"
   d="m 842.514,703.637 c 1.402,14.16 -17.527,17.148 -23.486,30.768 -5.912,13.508 -35.615,37.646 -46.113,32.371 -4.193,-7.445 8.721,-22.926 8.748,-32.643 0.025,-10.967 3.836,-26.012 8.664,-29.617 18.211,-13.588 39.893,-13.676 49.729,-6.648 0.004,0.01 0.004,0.01 0.008,0.02 1.385,1.678 2.241,3.618 2.45,5.749 z"
   id="path328" />
				<path
   style="fill:#f26522"
   inkscape:connector-curvature="0"
   d="m 921.111,707.928 c -9.322,8.549 -20.578,15.225 -29.023,29.408 -6.863,11.525 -28.125,14.295 -36.238,10.113 -0.229,-0.436 -0.359,-0.902 -0.396,-1.4 -0.73,-8.984 19.523,-32.281 16.102,-41.158 -3.42,-8.875 -4.289,-27.525 2.012,-31.023 15.363,-8.512 33.693,-7.943 50.314,1.055 1.154,0.623 2.189,1.299 3.117,2.002 8.483,9.591 2.046,23.731 -5.888,31.003 z"
   id="path330" />
				<path
   style="fill:#f26522"
   inkscape:connector-curvature="0"
   d="m 846.582,725.182 c 0.018,0.529 -0.035,1.168 -0.158,1.9 -1.502,8.889 -3.316,14.629 -2.383,24.07 0.936,9.439 -18.609,31.873 -28.41,30.777 -1.488,-0.168 -2.74,-0.518 -3.752,-1.018 -1.922,-3.609 0.352,-9.381 6.457,-14.98 9.322,-8.549 11.619,-25.461 17.998,-33.242 2.916,-3.548 7.367,-7.041 10.248,-7.507 z"
   id="path332" />
				<path
   style="fill:#f26522"
   inkscape:connector-curvature="0"
   d="m 822.854,630.271 c 0.107,2.689 -24.191,10.816 -31.445,12.965 -4.104,1.211 -7.912,2.299 -10.479,1.629 -0.277,-0.742 -0.422,-1.652 -0.439,-2.771 -0.119,-7.615 25.598,-17.471 25.598,-17.471 7.578,-2.26 12.213,-1.715 15.045,-0.088 1.471,2.166 1.678,4.637 1.72,5.736 z"
   id="path334" />
				<path
   style="fill:#f26522"
   inkscape:connector-curvature="0"
   d="m 870.506,633.338 c 2.252,4.469 0.604,13.498 -4.85,21.611 -7.895,11.746 -8.424,24.031 -18.059,29.436 -9.633,5.402 -13.521,-8.195 -24.789,-6.443 -5.512,0.854 -9.582,0.812 -12.25,-0.449 -0.771,-1.43 -1.078,-3.318 -0.912,-5.715 0.59,-8.479 9.408,-15.707 22.596,-20.51 0,0 27.377,-17.17 35.699,-18.152 0.967,-0.116 1.829,-0.03 2.565,0.222 z"
   id="path336" />
				<path
   style="fill:#f26522"
   inkscape:connector-curvature="0"
   d="m 874.373,621.137 c -2.934,2.504 -18.924,7.016 -24.867,8.719 -5.711,1.633 -17.279,10.914 -22.639,12.697 1.1,-3.055 5.504,-7.533 8.178,-9.518 3.699,-2.75 -0.416,-12.246 6.668,-14.482 9.933,-3.139 25.848,0.086 32.66,2.584 z"
   id="path338" />
				<path
   style="fill:#f26522"
   inkscape:connector-curvature="0"
   d="m 915.164,659.104 c -4.877,-1.107 -13.309,-2.814 -24.166,-0.15 -2.588,0.633 -4.508,0.604 -5.918,0.094 -1.336,-2.766 -0.857,-6.988 -0.35,-10.436 0.949,-6.449 0.775,-18.65 8.23,-19.564 5.963,-0.727 24.283,11.828 32.615,18.947 5.818,6.052 -5.557,12.212 -10.411,11.109 z"
   id="path340" />
				<path
   style="fill:#f26522"
   inkscape:connector-curvature="0"
   d="m 766.732,732.592 c -3.281,8.588 -6.922,15.145 -8.568,27.383 -1.584,11.771 -14.34,23.467 -20.334,20.746 -3.793,-5.324 -4.701,-15.488 -6.979,-20.584 -2.654,-5.934 0.891,-10.256 6.775,-11.793 5.885,-1.535 14.076,-14.158 18.332,-20.246 3.16,-4.523 7.105,-5.105 10.033,-3.555 1.4,2.146 1.882,5.064 0.741,8.049 z"
   id="path342" />
				<path
   style="fill:#f26522"
   inkscape:connector-curvature="0"
   d="m 803.162,790.791 c -3.797,4.984 -6.02,9.812 -6.863,18.951 -0.842,9.141 -10.609,22.818 -15.484,21.713 -4.877,-1.105 -9.104,-6.883 -18.002,-13.311 -0.014,-0.006 -0.014,-0.006 -0.018,-0.016 -4.967,-6.037 -1.262,-13.479 1.594,-20.955 3.281,-8.588 17.289,-12.758 25.6,-17.471 3.68,-2.084 7.59,-1.105 10.711,1.146 2.87,3.363 4.226,7.621 2.462,9.943 z"
   id="path344" />
				<path
   style="fill:#f26522"
   inkscape:connector-curvature="0"
   d="m 873.943,773.93 c -6.523,11.133 -11.641,15.611 -16.785,31.057 -5.143,15.445 -13.025,32.115 -27.498,30.369 -4.029,-0.486 -7.391,-1.854 -10.061,-3.857 -4.754,-5.412 -6.109,-13.395 -3.855,-21.139 3.678,-12.6 15.857,-14.758 24.424,-21.326 8.564,-6.568 8.699,-19.861 17.203,-25.221 5.922,-3.732 12.33,-3.387 16.5,-0.729 2.098,2.83 2.5,6.693 0.072,10.846 z"
   id="path346" />
				<path
   style="fill:#f26522"
   inkscape:connector-curvature="0"
   d="m 803.74,844.756 c -3.256,2.766 15.504,8.951 22.914,8.375 7.41,-0.574 -13.388,-16.469 -22.914,-8.375 z"
   id="path348" />
				<path
   style="fill:#f26522"
   inkscape:connector-curvature="0"
   d="m 867.16,827.352 c 0.119,7.615 7.133,11.053 3.852,19.639 -2.912,7.623 -18.854,6.393 -25.455,4.316 0.148,-5.422 11.658,-20.176 15.357,-24.447 2.238,-2.59 4.158,-3.809 5.635,-3.812 0.383,1.098 0.58,2.544 0.611,4.304 z"
   id="path350" />
				<path
   style="fill:#f26522"
   inkscape:connector-curvature="0"
   d="m 956.24,773.357 c 0.305,4.607 -2.021,13.393 -4.938,18.016 -3.846,6.1 -18.623,26.947 -23.691,30.311 -0.633,0.424 -1.258,0.617 -1.826,0.596 -1.426,-3.875 -0.666,-11.805 4.977,-21.723 5.664,-9.948 20.111,-24.723 25.478,-27.2 z"
   id="path352" />
				<path
   style="fill:#f26522"
   inkscape:connector-curvature="0"
   d="m 963.891,722.758 c 0.119,7.615 -14.342,10.795 -25.045,15.031 -7.67,3.035 -15.609,9.85 -20.125,8.912 -0.33,-0.762 -0.566,-1.707 -0.727,-2.873 -1.703,-12.385 11.582,-19.42 19.379,-28.932 7.688,-9.385 9.199,-21.859 14.398,-27.131 0.066,-0.072 0.141,-0.15 0.211,-0.215 l 1,1.404 0.477,0.674 c 0.045,0.025 0.098,0.045 0.131,0.074 5.707,7.472 10.199,26.528 10.301,33.056 z"
   id="path354" />
				<path
   style="fill:#f26522"
   inkscape:connector-curvature="0"
   d="m 944.396,755.057 c 0.146,0.275 0.271,0.58 0.379,0.895 3.373,9.994 -16.496,24.355 -25.564,32.244 -9.07,7.889 -13.135,29.424 -24.33,39.906 -5.197,4.865 -10.381,5.004 -14.021,2.742 -0.004,-0.008 -0.014,-0.004 -0.014,-0.004 -2.213,-2.986 -2.951,-7.213 -1.266,-11.232 4.242,-10.111 -3.744,-16.947 0.547,-28.178 4.289,-11.229 19.154,-23.309 29.227,-28.951 8.084,-4.536 27.121,-11.274 35.042,-7.422 z"
   id="path356" />
			</g>
			<g
   style="opacity:0.2"
   id="g472">
				
					<linearGradient
   id="SVGID_25_"
   gradientUnits="userSpaceOnUse"
   x1="-189.7065"
   y1="148.5972"
   x2="-122.5566"
   y2="148.5972"
   gradientTransform="matrix(0.9129,-0.4082,0.4082,0.9129,847.9268,484.001)">
					<stop
   offset="0"
   style="stop-color:#FFFFFF"
   id="stop360" />
					<stop
   offset="1"
   style="stop-color:#FFFFFF;stop-opacity:0"
   id="stop362" />
				</linearGradient>
				<path
   inkscape:connector-curvature="0"
   style="fill:url(#SVGID_25_)"
   d="m 774.055,692.621 c -8.83,7.498 -22.16,25.945 -30.867,21.195 -7.359,-10.16 -1.926,-36.207 5.889,-43.984 9.561,-9.51 33.33,-15.023 43.725,-8.168 0.33,0.42 0.623,0.881 0.885,1.367 6.625,12.371 -10.107,21.496 -19.632,29.59 z"
   id="path365" />
				
					<linearGradient
   id="SVGID_26_"
   gradientUnits="userSpaceOnUse"
   x1="-183.9292"
   y1="203.7402"
   x2="-94.066399"
   y2="203.7402"
   gradientTransform="matrix(0.9129,-0.4082,0.4082,0.9129,847.9268,484.001)">
					<stop
   offset="0"
   style="stop-color:#FFFFFF"
   id="stop367" />
					<stop
   offset="1"
   style="stop-color:#FFFFFF;stop-opacity:0"
   id="stop369" />
				</linearGradient>
				<path
   inkscape:connector-curvature="0"
   style="fill:url(#SVGID_26_)"
   d="m 842.514,703.637 c 1.402,14.16 -17.527,17.148 -23.486,30.768 -5.912,13.508 -35.615,37.646 -46.113,32.371 -4.193,-7.445 8.721,-22.926 8.748,-32.643 0.025,-10.967 3.836,-26.012 8.664,-29.617 18.211,-13.588 39.893,-13.676 49.729,-6.648 0.004,0.01 0.004,0.01 0.008,0.02 1.385,1.678 2.241,3.618 2.45,5.749 z"
   id="path372" />
				
					<linearGradient
   id="SVGID_27_"
   gradientUnits="userSpaceOnUse"
   x1="-100.3105"
   y1="218.2422"
   x2="-5.8183999"
   y2="218.2422"
   gradientTransform="matrix(0.9129,-0.4082,0.4082,0.9129,847.9268,484.001)">
					<stop
   offset="0"
   style="stop-color:#FFFFFF"
   id="stop374" />
					<stop
   offset="1"
   style="stop-color:#FFFFFF;stop-opacity:0"
   id="stop376" />
				</linearGradient>
				<path
   inkscape:connector-curvature="0"
   style="fill:url(#SVGID_27_)"
   d="m 921.111,707.928 c -9.322,8.549 -20.578,15.225 -29.023,29.408 -6.863,11.525 -28.125,14.295 -36.238,10.113 -0.229,-0.436 -0.359,-0.902 -0.396,-1.4 -0.73,-8.984 19.523,-32.281 16.102,-41.158 -3.42,-8.875 -4.289,-27.525 2.012,-31.023 15.363,-8.512 33.693,-7.943 50.314,1.055 1.154,0.623 2.189,1.299 3.117,2.002 8.483,9.591 2.046,23.731 -5.888,31.003 z"
   id="path379" />
				
					<linearGradient
   id="SVGID_28_"
   gradientUnits="userSpaceOnUse"
   x1="-154.1162"
   y1="239.6777"
   x2="-99.674797"
   y2="239.6777"
   gradientTransform="matrix(0.9129,-0.4082,0.4082,0.9129,847.9268,484.001)">
					<stop
   offset="0"
   style="stop-color:#FFFFFF"
   id="stop381" />
					<stop
   offset="1"
   style="stop-color:#FFFFFF;stop-opacity:0"
   id="stop383" />
				</linearGradient>
				<path
   inkscape:connector-curvature="0"
   style="fill:url(#SVGID_28_)"
   d="m 846.582,725.182 c 0.018,0.529 -0.035,1.168 -0.158,1.9 -1.502,8.889 -3.316,14.629 -2.383,24.07 0.936,9.439 -18.609,31.873 -28.41,30.777 -1.488,-0.168 -2.74,-0.518 -3.752,-1.018 -1.922,-3.609 0.352,-9.381 6.457,-14.98 9.322,-8.549 11.619,-25.461 17.998,-33.242 2.916,-3.548 7.367,-7.041 10.248,-7.507 z"
   id="path386" />
				
					<linearGradient
   id="SVGID_29_"
   gradientUnits="userSpaceOnUse"
   x1="-126.8242"
   y1="117.7666"
   x2="-81.688499"
   y2="117.7666"
   gradientTransform="matrix(0.9129,-0.4082,0.4082,0.9129,847.9268,484.001)">
					<stop
   offset="0"
   style="stop-color:#FFFFFF"
   id="stop388" />
					<stop
   offset="1"
   style="stop-color:#FFFFFF;stop-opacity:0"
   id="stop390" />
				</linearGradient>
				<path
   inkscape:connector-curvature="0"
   style="fill:url(#SVGID_29_)"
   d="m 822.854,630.271 c 0.107,2.689 -24.191,10.816 -31.445,12.965 -4.104,1.211 -7.912,2.299 -10.479,1.629 -0.277,-0.742 -0.422,-1.652 -0.439,-2.771 -0.119,-7.615 25.598,-17.471 25.598,-17.471 7.578,-2.26 12.213,-1.715 15.045,-0.088 1.471,2.166 1.678,4.637 1.72,5.736 z"
   id="path393" />
				
					<linearGradient
   id="SVGID_30_"
   gradientUnits="userSpaceOnUse"
   x1="-113.1123"
   y1="163.19341"
   x2="-40.338402"
   y2="163.19341"
   gradientTransform="matrix(0.9129,-0.4082,0.4082,0.9129,847.9268,484.001)">
					<stop
   offset="0"
   style="stop-color:#FFFFFF"
   id="stop395" />
					<stop
   offset="1"
   style="stop-color:#FFFFFF;stop-opacity:0"
   id="stop397" />
				</linearGradient>
				<path
   inkscape:connector-curvature="0"
   style="fill:url(#SVGID_30_)"
   d="m 870.506,633.338 c 2.252,4.469 0.604,13.498 -4.85,21.611 -7.895,11.746 -8.424,24.031 -18.059,29.436 -9.633,5.402 -13.521,-8.195 -24.789,-6.443 -5.512,0.854 -9.582,0.812 -12.25,-0.449 -0.771,-1.43 -1.078,-3.318 -0.912,-5.715 0.59,-8.479 9.408,-15.707 22.596,-20.51 0,0 27.377,-17.17 35.699,-18.152 0.967,-0.116 1.829,-0.03 2.565,0.222 z"
   id="path400" />
				
					<linearGradient
   id="SVGID_31_"
   gradientUnits="userSpaceOnUse"
   x1="-83.944298"
   y1="128.2549"
   x2="-31.834"
   y2="128.2549"
   gradientTransform="matrix(0.9129,-0.4082,0.4082,0.9129,847.9268,484.001)">
					<stop
   offset="0"
   style="stop-color:#FFFFFF"
   id="stop402" />
					<stop
   offset="1"
   style="stop-color:#FFFFFF;stop-opacity:0"
   id="stop404" />
				</linearGradient>
				<path
   inkscape:connector-curvature="0"
   style="fill:url(#SVGID_31_)"
   d="m 874.373,621.137 c -2.934,2.504 -18.924,7.016 -24.867,8.719 -5.711,1.633 -17.279,10.914 -22.639,12.697 1.1,-3.055 5.504,-7.533 8.178,-9.518 3.699,-2.75 -0.416,-12.246 6.668,-14.482 9.933,-3.139 25.848,0.086 32.66,2.584 z"
   id="path407" />
				
					<linearGradient
   id="SVGID_32_"
   gradientUnits="userSpaceOnUse"
   x1="-37.537102"
   y1="169.68159"
   x2="4.3505998"
   y2="169.68159"
   gradientTransform="matrix(0.9129,-0.4082,0.4082,0.9129,847.9268,484.001)">
					<stop
   offset="0"
   style="stop-color:#FFFFFF"
   id="stop409" />
					<stop
   offset="1"
   style="stop-color:#FFFFFF;stop-opacity:0"
   id="stop411" />
				</linearGradient>
				<path
   inkscape:connector-curvature="0"
   style="fill:url(#SVGID_32_)"
   d="m 915.164,659.104 c -4.877,-1.107 -13.309,-2.814 -24.166,-0.15 -2.588,0.633 -4.508,0.604 -5.918,0.094 -1.336,-2.766 -0.857,-6.988 -0.35,-10.436 0.949,-6.449 0.775,-18.65 8.23,-19.564 5.963,-0.727 24.283,11.828 32.615,18.947 5.818,6.052 -5.557,12.212 -10.411,11.109 z"
   id="path414" />
				
					<linearGradient
   id="SVGID_33_"
   gradientUnits="userSpaceOnUse"
   x1="-221.92239"
   y1="205.6938"
   x2="-172.88181"
   y2="205.6938"
   gradientTransform="matrix(0.9129,-0.4082,0.4082,0.9129,847.9268,484.001)">
					<stop
   offset="0"
   style="stop-color:#FFFFFF"
   id="stop416" />
					<stop
   offset="1"
   style="stop-color:#FFFFFF;stop-opacity:0"
   id="stop418" />
				</linearGradient>
				<path
   inkscape:connector-curvature="0"
   style="fill:url(#SVGID_33_)"
   d="m 766.732,732.592 c -3.281,8.588 -6.922,15.145 -8.568,27.383 -1.584,11.771 -14.34,23.467 -20.334,20.746 -3.793,-5.324 -4.701,-15.488 -6.979,-20.584 -2.654,-5.934 0.891,-10.256 6.775,-11.793 5.885,-1.535 14.076,-14.158 18.332,-20.246 3.16,-4.523 7.105,-5.105 10.033,-3.555 1.4,2.146 1.882,5.064 0.741,8.049 z"
   id="path421" />
				
					<linearGradient
   id="SVGID_34_"
   gradientUnits="userSpaceOnUse"
   x1="-214.50101"
   y1="268.33301"
   x2="-163.62891"
   y2="268.33301"
   gradientTransform="matrix(0.9129,-0.4082,0.4082,0.9129,847.9268,484.001)">
					<stop
   offset="0"
   style="stop-color:#FFFFFF"
   id="stop423" />
					<stop
   offset="1"
   style="stop-color:#FFFFFF;stop-opacity:0"
   id="stop425" />
				</linearGradient>
				<path
   inkscape:connector-curvature="0"
   style="fill:url(#SVGID_34_)"
   d="m 803.162,790.791 c -3.797,4.984 -6.02,9.812 -6.863,18.951 -0.842,9.141 -10.609,22.818 -15.484,21.713 -4.877,-1.105 -9.104,-6.883 -18.002,-13.311 -0.014,-0.006 -0.014,-0.006 -0.018,-0.016 -4.967,-6.037 -1.262,-13.479 1.594,-20.955 3.281,-8.588 17.289,-12.758 25.6,-17.471 3.68,-2.084 7.59,-1.105 10.711,1.146 2.87,3.363 4.226,7.621 2.462,9.943 z"
   id="path428" />
				
					<linearGradient
   id="SVGID_35_"
   gradientUnits="userSpaceOnUse"
   x1="-168.5415"
   y1="287.3623"
   x2="-90.019501"
   y2="287.3623"
   gradientTransform="matrix(0.9129,-0.4082,0.4082,0.9129,847.9268,484.001)">
					<stop
   offset="0"
   style="stop-color:#FFFFFF"
   id="stop430" />
					<stop
   offset="1"
   style="stop-color:#FFFFFF;stop-opacity:0"
   id="stop432" />
				</linearGradient>
				<path
   inkscape:connector-curvature="0"
   style="fill:url(#SVGID_35_)"
   d="m 873.943,773.93 c -6.523,11.133 -11.641,15.611 -16.785,31.057 -5.143,15.445 -13.025,32.115 -27.498,30.369 -4.029,-0.486 -7.391,-1.854 -10.061,-3.857 -4.754,-5.412 -6.109,-13.395 -3.855,-21.139 3.678,-12.6 15.857,-14.758 24.424,-21.326 8.564,-6.568 8.699,-19.861 17.203,-25.221 5.922,-3.732 12.33,-3.387 16.5,-0.729 2.098,2.83 2.5,6.693 0.072,10.846 z"
   id="path435" />
				
					<linearGradient
   id="SVGID_36_"
   gradientUnits="userSpaceOnUse"
   x1="-188.3076"
   y1="319.70901"
   x2="-168.0752"
   y2="319.70901"
   gradientTransform="matrix(0.9129,-0.4082,0.4082,0.9129,847.9268,484.001)">
					<stop
   offset="0"
   style="stop-color:#FFFFFF"
   id="stop437" />
					<stop
   offset="1"
   style="stop-color:#FFFFFF;stop-opacity:0"
   id="stop439" />
				</linearGradient>
				<path
   inkscape:connector-curvature="0"
   style="fill:url(#SVGID_36_)"
   d="m 803.74,844.756 c -3.256,2.766 15.504,8.951 22.914,8.375 7.41,-0.574 -13.388,-16.469 -22.914,-8.375 z"
   id="path442" />
				
					<linearGradient
   id="SVGID_37_"
   gradientUnits="userSpaceOnUse"
   x1="-152.0938"
   y1="329.84961"
   x2="-121.3955"
   y2="329.84961"
   gradientTransform="matrix(0.9129,-0.4082,0.4082,0.9129,847.9268,484.001)">
					<stop
   offset="0"
   style="stop-color:#FFFFFF"
   id="stop444" />
					<stop
   offset="1"
   style="stop-color:#FFFFFF;stop-opacity:0"
   id="stop446" />
				</linearGradient>
				<path
   inkscape:connector-curvature="0"
   style="fill:url(#SVGID_37_)"
   d="m 867.16,827.352 c 0.119,7.615 7.133,11.053 3.852,19.639 -2.912,7.623 -18.854,6.393 -25.455,4.316 0.148,-5.422 11.658,-20.176 15.357,-24.447 2.238,-2.59 4.158,-3.809 5.635,-3.812 0.383,1.098 0.58,2.544 0.611,4.304 z"
   id="path449" />
				
					<linearGradient
   id="SVGID_38_"
   gradientUnits="userSpaceOnUse"
   x1="-67.004898"
   y1="324.6113"
   x2="-19.2334"
   y2="324.6113"
   gradientTransform="matrix(0.9129,-0.4082,0.4082,0.9129,847.9268,484.001)">
					<stop
   offset="0"
   style="stop-color:#FFFFFF"
   id="stop451" />
					<stop
   offset="1"
   style="stop-color:#FFFFFF;stop-opacity:0"
   id="stop453" />
				</linearGradient>
				<path
   inkscape:connector-curvature="0"
   style="fill:url(#SVGID_38_)"
   d="m 956.24,773.357 c 0.305,4.607 -2.021,13.393 -4.938,18.016 -3.846,6.1 -18.623,26.947 -23.691,30.311 -0.633,0.424 -1.258,0.617 -1.826,0.596 -1.426,-3.875 -0.666,-11.805 4.977,-21.723 5.664,-9.948 20.111,-24.723 25.478,-27.2 z"
   id="path456" />
				
					<linearGradient
   id="SVGID_39_"
   gradientUnits="userSpaceOnUse"
   x1="-42.6035"
   y1="249.0786"
   x2="13.147"
   y2="249.0786"
   gradientTransform="matrix(0.9129,-0.4082,0.4082,0.9129,847.9268,484.001)">
					<stop
   offset="0"
   style="stop-color:#FFFFFF"
   id="stop458" />
					<stop
   offset="1"
   style="stop-color:#FFFFFF;stop-opacity:0"
   id="stop460" />
				</linearGradient>
				<path
   inkscape:connector-curvature="0"
   style="fill:url(#SVGID_39_)"
   d="m 963.891,722.758 c 0.119,7.615 -14.342,10.795 -25.045,15.031 -7.67,3.035 -15.609,9.85 -20.125,8.912 -0.33,-0.762 -0.566,-1.707 -0.727,-2.873 -1.703,-12.385 11.582,-19.42 19.379,-28.932 7.688,-9.385 9.199,-21.859 14.398,-27.131 0.066,-0.072 0.141,-0.15 0.211,-0.215 l 1,1.404 0.477,0.674 c 0.045,0.025 0.098,0.045 0.131,0.074 5.707,7.472 10.199,26.528 10.301,33.056 z"
   id="path463" />
				
					<linearGradient
   id="SVGID_40_"
   gradientUnits="userSpaceOnUse"
   x1="-111.7817"
   y1="306.69339"
   x2="-22.563999"
   y2="306.69339"
   gradientTransform="matrix(0.9129,-0.4082,0.4082,0.9129,847.9268,484.001)">
					<stop
   offset="0"
   style="stop-color:#FFFFFF"
   id="stop465" />
					<stop
   offset="1"
   style="stop-color:#FFFFFF;stop-opacity:0"
   id="stop467" />
				</linearGradient>
				<path
   inkscape:connector-curvature="0"
   style="fill:url(#SVGID_40_)"
   d="m 944.396,755.057 c 0.146,0.275 0.271,0.58 0.379,0.895 3.373,9.994 -16.496,24.355 -25.564,32.244 -9.07,7.889 -13.135,29.424 -24.33,39.906 -5.197,4.865 -10.381,5.004 -14.021,2.742 -0.004,-0.008 -0.014,-0.004 -0.014,-0.004 -2.213,-2.986 -2.951,-7.213 -1.266,-11.232 4.242,-10.111 -3.744,-16.947 0.547,-28.178 4.289,-11.229 19.154,-23.309 29.227,-28.951 8.084,-4.536 27.121,-11.274 35.042,-7.422 z"
   id="path470" />
			</g>
			
				<linearGradient
   id="SVGID_41_"
   gradientUnits="userSpaceOnUse"
   x1="-107.5288"
   y1="217.4238"
   x2="31.964399"
   y2="272.9209"
   gradientTransform="matrix(0.9129,-0.4082,0.4082,0.9129,847.9268,484.001)">
				<stop
   offset="0"
   style="stop-color:#ED1C24;stop-opacity:0"
   id="stop474" />
				<stop
   offset="1"
   style="stop-color:#ED1C24"
   id="stop476" />
			</linearGradient>
			<path
   inkscape:connector-curvature="0"
   style="fill:url(#SVGID_41_)"
   d="m 950.662,687.047 c 9.424,21.078 12.053,43.467 8.811,64.709 -3.947,25.887 -16.586,50.072 -36.219,68.096 7.295,-74.256 -16.607,-149.393 -34.092,-192.611 26.449,10.937 48.899,31.624 61.5,59.806 z"
   id="path479" />
			
				<linearGradient
   id="SVGID_42_"
   gradientUnits="userSpaceOnUse"
   x1="2265.3525"
   y1="719.93158"
   x2="2303.1675"
   y2="763.0119"
   gradientTransform="matrix(0.9081,0.4188,-0.4188,0.9081,-1003.7385,-938.0752)">
				<stop
   offset="0"
   style="stop-color:#FFFFFF"
   id="stop481" />
				<stop
   offset="1"
   style="stop-color:#FFFFFF;stop-opacity:0"
   id="stop483" />
			</linearGradient>
			<path
   inkscape:connector-curvature="0"
   style="opacity:0.9;fill:url(#SVGID_42_)"
   d="m 769.008,695.814 c -7.316,15.859 -17.295,26.852 -22.287,24.549 -4.994,-2.303 -3.111,-17.027 4.203,-32.889 7.314,-15.859 17.293,-26.852 22.285,-24.549 4.994,2.304 3.111,17.028 -4.201,32.889 z"
   id="path486" />
			
				<linearGradient
   id="SVGID_43_"
   gradientUnits="userSpaceOnUse"
   x1="-104.9849"
   y1="233.9619"
   x2="-104.9849"
   y2="277.96249"
   gradientTransform="matrix(0.9129,-0.4082,0.4082,0.9129,847.9268,484.001)">
				<stop
   offset="0"
   style="stop-color:#0046FF;stop-opacity:0"
   id="stop488" />
				<stop
   offset="1"
   style="stop-color:#0046FF"
   id="stop490" />
			</linearGradient>
			<path
   inkscape:connector-curvature="0"
   style="opacity:0.3;fill:url(#SVGID_43_)"
   d="m 955.652,700.314 c 3.217,10.404 4.891,21.004 5.117,31.506 -86.41,54.137 -163.045,78.293 -195.664,86.92 -2.969,-2.791 -5.791,-5.748 -8.457,-8.871 -3.764,-4.396 -7.23,-9.113 -10.348,-14.148 z"
   id="path493" />
			<path
   style="fill:#ffde17"
   inkscape:connector-curvature="0"
   d="m 986.49,647.504 c -15.174,4.521 -31.924,10.121 -49.768,16.605 0.857,0.883 3.572,3.795 5.861,7.453 15.549,-5.605 30.227,-10.518 43.68,-14.594 57.02,-17.273 66.139,-11.877 66.994,-11.195 -0.062,1.092 -2.121,11.486 -53.014,42.463 -36.619,22.289 -86.543,47.869 -140.572,72.027 -54.031,24.16 -106.381,44.311 -147.408,56.74 -57.019,17.273 -66.138,11.877 -66.995,11.195 0.064,-1.092 2.121,-11.486 53.015,-42.463 9.859,-6.002 20.691,-12.242 32.3,-18.629 -0.752,-2.428 -1.727,-5.754 -2.471,-8.914 -13.436,7.357 -25.873,14.537 -37.035,21.4 -18.208,11.195 -32.113,20.988 -41.329,29.105 -14.85,13.078 -14.374,19.496 -12.724,23.186 3.111,6.959 14.449,12.633 75.011,-5.416 41.807,-12.459 95.541,-33.053 151.309,-57.988 55.768,-24.935 106.943,-51.252 144.104,-74.102 18.207,-11.195 32.113,-20.988 41.33,-29.105 14.85,-13.078 14.373,-19.496 12.723,-23.188 -3.11,-6.955 -14.448,-12.629 -75.011,5.42 z"
   id="path495" />
			
				<linearGradient
   id="SVGID_44_"
   gradientUnits="userSpaceOnUse"
   x1="-103.0737"
   y1="241.4346"
   x2="-97.0737"
   y2="183.4346"
   gradientTransform="matrix(0.9129,-0.4082,0.4082,0.9129,847.9268,484.001)">
				<stop
   offset="0"
   style="stop-color:#0046FF;stop-opacity:0"
   id="stop497" />
				<stop
   offset="1"
   style="stop-color:#0046FF"
   id="stop499" />
			</linearGradient>
			<path
   inkscape:connector-curvature="0"
   style="fill:url(#SVGID_44_)"
   d="m 986.49,647.504 c -15.174,4.521 -31.924,10.121 -49.768,16.605 0.857,0.883 3.572,3.795 5.861,7.453 15.549,-5.605 30.227,-10.518 43.68,-14.594 57.02,-17.273 66.139,-11.877 66.994,-11.195 -0.062,1.092 -2.121,11.486 -53.014,42.463 -36.619,22.289 -86.543,47.869 -140.572,72.027 -54.031,24.16 -106.381,44.311 -147.408,56.74 -57.019,17.273 -66.138,11.877 -66.995,11.195 0.064,-1.092 2.121,-11.486 53.015,-42.463 9.859,-6.002 20.691,-12.242 32.3,-18.629 -0.752,-2.428 -1.727,-5.754 -2.471,-8.914 -13.436,7.357 -25.873,14.537 -37.035,21.4 -18.208,11.195 -32.113,20.988 -41.329,29.105 -14.85,13.078 -14.374,19.496 -12.724,23.186 3.111,6.959 14.449,12.633 75.011,-5.416 41.807,-12.459 95.541,-33.053 151.309,-57.988 55.768,-24.935 106.943,-51.252 144.104,-74.102 18.207,-11.195 32.113,-20.988 41.33,-29.105 14.85,-13.078 14.373,-19.496 12.723,-23.188 -3.11,-6.955 -14.448,-12.629 -75.011,5.42 z"
   id="path502" />
		</g><g
   style="opacity:0.8"
   clip-path="url(#SVGID_2_)"
   id="g745"
   transform="translate(-636.22277,-614.67292)">
			
				<linearGradient
   id="SVGID_59_"
   gradientUnits="userSpaceOnUse"
   x1="-1306.2539"
   y1="-1979.9082"
   x2="-1034.2539"
   y2="-1979.9082"
   gradientTransform="matrix(0.1271,-0.9919,0.9919,0.1271,3063.3794,-879.7368)">
				<stop
   offset="0"
   style="stop-color:#ACFFFE"
   id="stop732" />
				<stop
   offset="0.1842"
   style="stop-color:#A4FBFD;stop-opacity:0.8158"
   id="stop734" />
				<stop
   offset="0.4735"
   style="stop-color:#8DF2FA;stop-opacity:0.5265"
   id="stop736" />
				<stop
   offset="0.83"
   style="stop-color:#69E2F5;stop-opacity:0.17"
   id="stop738" />
				<stop
   offset="1"
   style="stop-color:#55D9F2;stop-opacity:0"
   id="stop740" />
			</linearGradient>
			<path
   inkscape:connector-curvature="0"
   style="fill:url(#SVGID_59_)"
   d="m 1074.053,-90.991 c -0.027,0.215 -0.123,0.422 -0.291,0.585 L 829.158,150.451 c -0.395,0.388 -1.027,0.383 -1.416,-0.01 -0.387,-0.394 -0.381,-1.027 0.012,-1.414 L 1072.359,-91.83 c 0.395,-0.388 1.027,-0.382 1.414,0.01 0.225,0.228 0.319,0.535 0.28,0.829 z"
   id="path743" />
		</g><g
   clip-path="url(#SVGID_2_)"
   id="g777"
   transform="translate(-636.22277,-614.67292)">
			<g
   id="g751">
				
					<line
   style="fill:none;stroke:#ffffff;stroke-width:2;stroke-miterlimit:10"
   stroke-miterlimit="10"
   x1="66.203003"
   y1="130.463"
   x2="84.586998"
   y2="148.84801"
   id="line747" />
				
					<line
   style="fill:none;stroke:#ffffff;stroke-width:2;stroke-miterlimit:10"
   stroke-miterlimit="10"
   x1="84.586998"
   y1="130.463"
   x2="66.203003"
   y2="148.84801"
   id="line749" />
			</g>
			<g
   id="g757">
				
					<line
   style="fill:none;stroke:#ffffff;stroke-width:2;stroke-miterlimit:10"
   stroke-miterlimit="10"
   x1="240.22"
   y1="886.539"
   x2="258.60501"
   y2="904.92401"
   id="line753" />
				
					<line
   style="fill:none;stroke:#ffffff;stroke-width:2;stroke-miterlimit:10"
   stroke-miterlimit="10"
   x1="258.60501"
   y1="886.539"
   x2="240.22"
   y2="904.92401"
   id="line755" />
			</g>
			<g
   id="g763">
				
					<line
   style="fill:none;stroke:#ffffff;stroke-width:2;stroke-miterlimit:10"
   stroke-miterlimit="10"
   x1="1128.309"
   y1="79.458"
   x2="1146.693"
   y2="97.842003"
   id="line759" />
				
					<line
   style="fill:none;stroke:#ffffff;stroke-width:2;stroke-miterlimit:10"
   stroke-miterlimit="10"
   x1="1146.693"
   y1="79.458"
   x2="1128.309"
   y2="97.842003"
   id="line761" />
			</g>
			<g
   id="g769">
				
					<line
   style="fill:none;stroke:#ffffff;stroke-width:2;stroke-miterlimit:10"
   stroke-miterlimit="10"
   x1="1254.705"
   y1="331.483"
   x2="1273.09"
   y2="349.86801"
   id="line765" />
				
					<line
   style="fill:none;stroke:#ffffff;stroke-width:2;stroke-miterlimit:10"
   stroke-miterlimit="10"
   x1="1273.09"
   y1="331.483"
   x2="1254.705"
   y2="349.86801"
   id="line767" />
			</g>
			<g
   id="g775">
				
					<line
   style="fill:none;stroke:#ffffff;stroke-width:2;stroke-miterlimit:10"
   stroke-miterlimit="10"
   x1="474.88101"
   y1="718.77698"
   x2="504.75601"
   y2="748.65198"
   id="line771" />
				
					<line
   style="fill:none;stroke:#ffffff;stroke-width:2;stroke-miterlimit:10"
   stroke-miterlimit="10"
   x1="504.75601"
   y1="718.77698"
   x2="474.88101"
   y2="748.65198"
   id="line773" />
			</g>
		</g><path
   id="path874"
   d="m -453.18377,-468.44292 c -0.851,0.71 -1.28,1.08 -1.28,1.08 0.269,-0.68 0.699,-1.03 1.28,-1.08 z"
   style="fill:url(#SVGID_64_)"
   inkscape:connector-curvature="0" />

</svg>