<svg xmlns="http://www.w3.org/2000/svg" xmlns:svg="http://www.w3.org/2000/svg" xmlns:xlink="http://www.w3.org/1999/xlink" id="svg915" width="426.08" height="238.496" x="0" y="0" enable-background="new 0 0 1400 980" version="1.1" viewBox="0 0 426.08 238.496" xml:space="preserve"><metadata id="metadata921"/><defs id="defs919"><linearGradient id="SVGID_60_" x1="1286.758" x2="1291.258" y1="618.06" y2="618.06" gradientUnits="userSpaceOnUse"><stop id="stop781" offset="0" style="stop-color:#0046ff;stop-opacity:0"/><stop id="stop783" offset=".125" style="stop-color:#0445fd;stop-opacity:.1251"/><stop id="stop785" offset=".252" style="stop-color:#1043f7;stop-opacity:.2524"/><stop id="stop787" offset=".381" style="stop-color:#253fed;stop-opacity:.3807"/><stop id="stop789" offset=".51" style="stop-color:#4139e0;stop-opacity:.5098"/><stop id="stop791" offset=".639" style="stop-color:#6632ce;stop-opacity:.6395"/><stop id="stop793" offset=".77" style="stop-color:#9329b9;stop-opacity:.7697"/><stop id="stop795" offset=".898" style="stop-color:#c81ea0;stop-opacity:.8978"/><stop id="stop797" offset="1" style="stop-color:#f71589"/></linearGradient><linearGradient id="SVGID_61_" x1="1274.758" x2="1277.758" y1="628.81" y2="628.81" gradientUnits="userSpaceOnUse"><stop id="stop802" offset="0" style="stop-color:#0046ff;stop-opacity:0"/><stop id="stop804" offset=".125" style="stop-color:#0445fd;stop-opacity:.1251"/><stop id="stop806" offset=".252" style="stop-color:#1043f7;stop-opacity:.2524"/><stop id="stop808" offset=".381" style="stop-color:#253fed;stop-opacity:.3807"/><stop id="stop810" offset=".51" style="stop-color:#4139e0;stop-opacity:.5098"/><stop id="stop812" offset=".639" style="stop-color:#6632ce;stop-opacity:.6395"/><stop id="stop814" offset=".77" style="stop-color:#9329b9;stop-opacity:.7697"/><stop id="stop816" offset=".898" style="stop-color:#c81ea0;stop-opacity:.8978"/><stop id="stop818" offset="1" style="stop-color:#f71589"/></linearGradient><linearGradient id="SVGID_62_" x1="1302.758" x2="1311.758" y1="665.81" y2="665.81" gradientUnits="userSpaceOnUse"><stop id="stop823" offset="0" style="stop-color:#0046ff;stop-opacity:0"/><stop id="stop825" offset=".125" style="stop-color:#0445fd;stop-opacity:.1251"/><stop id="stop827" offset=".252" style="stop-color:#1043f7;stop-opacity:.2524"/><stop id="stop829" offset=".381" style="stop-color:#253fed;stop-opacity:.3807"/><stop id="stop831" offset=".51" style="stop-color:#4139e0;stop-opacity:.5098"/><stop id="stop833" offset=".639" style="stop-color:#6632ce;stop-opacity:.6395"/><stop id="stop835" offset=".77" style="stop-color:#9329b9;stop-opacity:.7697"/><stop id="stop837" offset=".898" style="stop-color:#c81ea0;stop-opacity:.8978"/><stop id="stop839" offset="1" style="stop-color:#f71589"/></linearGradient><linearGradient id="SVGID_63_" x1="1284.258" x2="1294.758" y1="673.06" y2="673.06" gradientUnits="userSpaceOnUse"><stop id="stop844" offset="0" style="stop-color:#0046ff;stop-opacity:0"/><stop id="stop846" offset=".125" style="stop-color:#0445fd;stop-opacity:.1251"/><stop id="stop848" offset=".252" style="stop-color:#1043f7;stop-opacity:.2524"/><stop id="stop850" offset=".381" style="stop-color:#253fed;stop-opacity:.3807"/><stop id="stop852" offset=".51" style="stop-color:#4139e0;stop-opacity:.5098"/><stop id="stop854" offset=".639" style="stop-color:#6632ce;stop-opacity:.6395"/><stop id="stop856" offset=".77" style="stop-color:#9329b9;stop-opacity:.7697"/><stop id="stop858" offset=".898" style="stop-color:#c81ea0;stop-opacity:.8978"/><stop id="stop860" offset="1" style="stop-color:#f71589"/></linearGradient><linearGradient id="SVGID_64_" x1="181.758" x2="183.039" y1="146.77" y2="146.77" gradientTransform="translate(-636.22277,-614.67292)" gradientUnits="userSpaceOnUse"><stop id="stop865" offset="0" style="stop-color:#ab3fff"/><stop id="stop867" offset=".434" style="stop-color:#5b25d1;stop-opacity:.566"/><stop id="stop869" offset=".819" style="stop-color:#190fac;stop-opacity:.1806"/><stop id="stop871" offset="1" style="stop-color:#00079e;stop-opacity:0"/></linearGradient><defs id="defs3"><rect id="SVGID_1_" width="1407.633" height="984" x="-5.161" y="-.69"/></defs><clipPath id="SVGID_2_"><use style="overflow:visible" id="use5" width="100%" height="100%" x="0" y="0" overflow="visible" xlink:href="#SVGID_1_"/></clipPath><radialGradient id="SVGID_3_" cx="695.109" cy="491.31" r="603.849" gradientTransform="matrix(1.0047,0,0,1,-2.2563,0)" gradientUnits="userSpaceOnUse"><stop style="stop-color:#00079e" id="stop10" offset="0"/><stop style="stop-color:#00079e;stop-opacity:0" id="stop12" offset="1"/></radialGradient><radialGradient id="SVGID_4_" cx="613.598" cy="511.261" r="734.813" gradientTransform="matrix(1.0047,0,0,1,-2.2563,0)" gradientUnits="userSpaceOnUse"><stop style="stop-color:#00079e" id="stop17" offset="0"/><stop style="stop-color:#00079e;stop-opacity:0" id="stop19" offset="1"/></radialGradient><linearGradient id="SVGID_5_" x1="914.457" x2="1553.577" y1="656.264" y2="656.264" gradientUnits="userSpaceOnUse"><stop style="stop-color:#ab3fff" id="stop24" offset="0"/><stop style="stop-color:#5b25d1;stop-opacity:.566" id="stop26" offset=".434"/><stop style="stop-color:#190fac;stop-opacity:.1806" id="stop28" offset=".819"/><stop style="stop-color:#00079e;stop-opacity:0" id="stop30" offset="1"/></linearGradient><linearGradient id="SVGID_6_" x1="-22.838" x2="761.748" y1="229.468" y2="229.468" gradientUnits="userSpaceOnUse"><stop style="stop-color:#ab3fff" id="stop35" offset="0"/><stop style="stop-color:#5b25d1;stop-opacity:.566" id="stop37" offset=".434"/><stop style="stop-color:#190fac;stop-opacity:.1806" id="stop39" offset=".819"/><stop style="stop-color:#00079e;stop-opacity:0" id="stop41" offset="1"/></linearGradient><linearGradient id="SVGID_7_" x1="182.002" x2="364.745" y1="969.424" y2="597.846" gradientUnits="userSpaceOnUse"><stop style="stop-color:#43effe" id="stop46" offset="0"/><stop style="stop-color:#38caef;stop-opacity:.8543" id="stop48" offset=".146"/><stop style="stop-color:#1a62c4;stop-opacity:.4312" id="stop50" offset=".569"/><stop style="stop-color:#0720a9;stop-opacity:.1376" id="stop52" offset=".862"/><stop style="stop-color:#00079e;stop-opacity:0" id="stop54" offset="1"/></linearGradient></defs><g id="g504" clip-path="url(#SVGID_2_)" transform="translate(-636.22277,-614.67292)"><circle style="fill:#fca700" id="circle276" cx="844.766" cy="734.396" r="116"/><linearGradient id="SVGID_23_" x1="-97.152" x2="2.847" y1="236.512" y2="352.511" gradientTransform="matrix(0.9129,-0.4082,0.4082,0.9129,847.9268,484.001)" gradientUnits="userSpaceOnUse"><stop style="stop-color:#0046ff;stop-opacity:0" id="stop278" offset="0"/><stop style="stop-color:#0046ff" id="stop280" offset="1"/></linearGradient><path style="fill:url(#SVGID_23_)" id="path283" d="m 950.662,687.047 c 1.955,4.373 3.617,8.799 4.99,13.268 3.217,10.404 4.891,21.004 5.117,31.506 0.148,6.705 -0.297,13.377 -1.297,19.936 -3.947,25.887 -16.586,50.072 -36.219,68.096 -8.977,8.242 -19.408,15.195 -31.139,20.441 -44.102,19.719 -93.959,9.664 -127.01,-21.553 -2.969,-2.791 -5.791,-5.748 -8.457,-8.871 -3.764,-4.396 -7.23,-9.113 -10.348,-14.148 -2.754,-4.422 -5.244,-9.082 -7.432,-13.975 -26.148,-58.48 0.057,-127.092 58.547,-153.246 30.309,-13.551 63.33,-13.047 91.746,-1.26 26.451,10.937 48.901,31.624 61.502,59.806 z"/><g id="g317"><path style="fill:#ef9825" id="path285" d="m 774.055,692.621 c -8.83,7.498 -22.16,25.945 -30.867,21.195 -0.701,-0.365 -1.363,-0.891 -1.986,-1.576 -8.551,-9.322 -3.01,-36.938 5.078,-44.99 10.561,-10.506 38.473,-16.141 46.521,-5.586 0.33,0.42 0.623,0.881 0.885,1.367 6.626,12.371 -10.106,21.496 -19.631,29.59 z"/><path style="fill:#ef9825" id="path287" d="m 842.514,703.637 c 1.402,14.16 -17.527,17.148 -23.486,30.768 -5.912,13.508 -35.615,37.646 -46.113,32.371 -0.092,-0.035 -0.18,-0.084 -0.268,-0.131 -10.268,-5.816 6.191,-24.129 6.217,-35.096 0.025,-10.965 3.836,-26.012 8.666,-29.617 20.223,-15.088 44.721,-13.533 52.525,-4.064 0.004,0.01 0.004,0.01 0.008,0.02 1.386,1.678 2.242,3.618 2.451,5.749 z"/><path style="fill:#ef9825" id="path289" d="m 921.111,707.928 c -9.322,8.549 -20.578,15.225 -29.023,29.408 -6.863,11.525 -28.125,14.295 -36.238,10.113 -1.889,-0.963 -3.057,-2.303 -3.195,-3.982 -0.73,-8.984 19.525,-32.281 16.104,-41.158 -3.421,-8.877 -4.289,-27.527 2.012,-31.023 15.363,-8.514 33.691,-7.945 50.312,1.055 2.484,1.344 4.438,2.891 5.916,4.584 8.483,9.591 2.046,23.731 -5.888,31.003 z"/><path style="fill:#ef9825" id="path291" d="m 846.582,725.182 c 0.018,0.529 -0.035,1.168 -0.158,1.9 -1.502,8.889 -3.316,14.629 -2.383,24.07 0.936,9.439 -18.609,31.873 -28.41,30.777 -1.488,-0.168 -2.74,-0.518 -3.752,-1.018 -5.723,-2.775 -4.25,-10.312 3.658,-17.562 9.322,-8.551 11.621,-25.461 18,-33.242 4.549,-5.55 12.871,-10.949 13.045,-4.925 z"/><path style="fill:#ef9825" id="path293" d="m 822.854,630.271 c 0.107,2.689 -24.191,10.816 -31.445,12.965 -4.104,1.211 -7.912,2.299 -10.479,1.629 -1.957,-0.506 -3.184,-2.049 -3.238,-5.355 -0.117,-7.613 25.6,-17.471 25.6,-17.471 10.891,-3.248 15.715,-0.695 17.842,2.496 1.471,2.166 1.678,4.637 1.72,5.736 z"/><path style="fill:#ef9825" id="path295" d="m 870.506,633.338 c 2.252,4.469 0.604,13.498 -4.85,21.611 -7.895,11.746 -8.424,24.031 -18.059,29.436 -9.633,5.402 -13.521,-8.195 -24.789,-6.443 -5.512,0.854 -9.582,0.812 -12.25,-0.449 -2.781,-1.318 -4.01,-3.969 -3.711,-8.297 0.59,-8.48 9.408,-15.709 22.598,-20.51 0,0 27.375,-17.17 35.699,-18.154 2.579,-0.309 4.352,0.792 5.362,2.806 z"/><path style="fill:#ef9825" id="path297" d="m 874.768,620.205 c 0.18,0.258 0.027,0.578 -0.395,0.932 -2.934,2.504 -18.924,7.016 -24.867,8.719 -5.711,1.633 -17.279,10.914 -22.639,12.697 -1.018,0.346 -1.822,0.408 -2.311,0.102 -3.049,-1.922 3.99,-9.451 7.689,-12.201 3.701,-2.75 -0.414,-12.248 6.67,-14.484 12.48,-3.939 34.374,2.155 35.853,4.235 z"/><path style="fill:#ef9825" id="path299" d="m 915.164,659.104 c -4.877,-1.107 -13.309,-2.814 -24.166,-0.15 -2.588,0.633 -4.508,0.604 -5.918,0.094 -4.531,-1.633 -3.875,-8.104 -3.148,-13.018 0.951,-6.451 0.775,-18.652 8.232,-19.564 6.75,-0.828 29.326,15.367 35.33,21.445 0.025,0.033 0.057,0.053 0.082,0.084 5.817,6.052 -5.558,12.212 -10.412,11.109 z"/><path style="fill:#ef9825" id="path301" d="m 766.732,732.592 c -3.281,8.588 -6.922,15.145 -8.568,27.383 -1.584,11.771 -14.34,23.467 -20.334,20.746 -0.246,-0.109 -0.477,-0.234 -0.689,-0.393 -5.645,-4.047 -6.436,-16.84 -9.088,-22.773 -2.654,-5.934 0.891,-10.258 6.775,-11.793 5.887,-1.537 14.076,-14.16 18.334,-20.246 4.355,-6.23 10.195,-4.977 12.83,-0.973 1.399,2.146 1.881,5.064 0.74,8.049 z"/><path style="fill:#ef9825" id="path303" d="m 803.162,790.791 c -3.797,4.984 -6.02,9.812 -6.863,18.951 -0.842,9.141 -10.609,22.818 -15.484,21.713 -4.877,-1.105 -9.104,-6.883 -18.002,-13.311 -0.014,-0.006 -0.014,-0.006 -0.018,-0.016 -8.877,-6.426 -4.484,-14.951 -1.203,-23.539 3.281,-8.586 17.289,-12.758 25.598,-17.471 4.906,-2.773 10.203,-0.113 13.51,3.73 2.87,3.363 4.226,7.621 2.462,9.943 z"/><path style="fill:#ef9825" id="path305" d="m 873.943,773.93 c -6.523,11.133 -11.641,15.611 -16.785,31.057 -5.143,15.445 -13.025,32.115 -27.498,30.369 -4.029,-0.486 -7.391,-1.854 -10.061,-3.857 -6.961,-5.203 -9.311,-14.625 -6.652,-23.723 3.678,-12.598 15.857,-14.758 24.422,-21.326 8.565,-6.568 8.701,-19.861 17.205,-25.219 7.504,-4.725 15.787,-2.908 19.297,1.854 2.098,2.829 2.5,6.692 0.072,10.845 z"/><path style="fill:#ef9825" id="path307" d="m 800.941,842.172 c -3.256,2.768 15.504,8.951 22.916,8.377 7.411,-0.574 -13.39,-16.469 -22.916,-8.377 z"/><path style="fill:#ef9825" id="path309" d="m 866.549,823.047 c 0.383,1.1 0.58,2.545 0.611,4.305 0.119,7.615 7.133,11.053 3.852,19.639 -2.912,7.623 -18.854,6.393 -25.455,4.316 -0.826,-0.254 -1.508,-0.529 -2.002,-0.803 -4.371,-2.426 10.293,-21.297 14.562,-26.229 4.168,-4.81 7.203,-4.908 8.432,-1.228 z"/><path style="fill:#ef9825" id="path311" d="m 956.24,773.357 c 0.305,4.607 -2.021,13.393 -4.938,18.016 -3.846,6.1 -18.623,26.947 -23.691,30.311 -0.633,0.424 -1.258,0.617 -1.826,0.596 -3.99,-0.055 -5.871,-10.168 2.18,-24.305 6.447,-11.33 24.303,-28.941 27.148,-27.477 0.684,0.352 1.041,1.397 1.127,2.859 z"/><path style="fill:#ef9825" id="path313" d="m 963.891,722.758 c 0.119,7.615 -14.342,10.795 -25.045,15.031 -7.67,3.035 -15.609,9.85 -20.125,8.912 -1.793,-0.359 -3.037,-1.939 -3.525,-5.457 -1.703,-12.383 11.582,-19.42 19.379,-28.93 7.797,-9.512 9.24,-22.207 14.611,-27.346 l 1.477,2.078 c 0.367,0.186 0.738,0.426 1.109,0.719 0.412,0.332 0.811,0.734 1.211,1.189 0.205,0.238 0.414,0.484 0.607,0.748 5.707,7.472 10.199,26.528 10.301,33.056 z"/><path style="fill:#ef9825" id="path315" d="m 944.396,755.057 c 0.146,0.275 0.271,0.58 0.379,0.895 3.373,9.994 -16.496,24.355 -25.564,32.244 -9.07,7.889 -13.135,29.424 -24.33,39.906 -5.197,4.865 -10.381,5.004 -14.021,2.742 -0.004,-0.008 -0.014,-0.004 -0.014,-0.004 -4.199,-2.604 -6.334,-8.408 -4.062,-13.814 4.24,-10.113 -3.744,-16.949 0.545,-28.178 4.291,-11.229 19.154,-23.309 29.229,-28.953 9.325,-5.233 33.254,-13.403 37.838,-4.838 z"/></g><linearGradient id="SVGID_24_" x1="-145.757" x2="-76.761" y1="222.822" y2="336.816" gradientTransform="matrix(0.9129,-0.4082,0.4082,0.9129,847.9268,484.001)" gradientUnits="userSpaceOnUse"><stop style="stop-color:#0046ff;stop-opacity:0" id="stop319" offset="0"/><stop style="stop-color:#0046ff" id="stop321" offset="1"/></linearGradient><path style="fill:url(#SVGID_24_)" id="path324" d="m 959.473,751.756 c -5.746,37.711 -29.945,71.809 -67.357,88.537 -48.045,21.482 -102.922,7.627 -135.467,-30.424 47.16,-1.83 121.81,-13.201 202.824,-58.113 z"/><g id="g358"><path style="fill:#f26522" id="path326" d="m 774.055,692.621 c -8.83,7.498 -22.16,25.945 -30.867,21.195 -7.359,-10.16 -1.926,-36.207 5.889,-43.984 9.561,-9.51 33.33,-15.023 43.725,-8.168 0.33,0.42 0.623,0.881 0.885,1.367 6.625,12.371 -10.107,21.496 -19.632,29.59 z"/><path style="fill:#f26522" id="path328" d="m 842.514,703.637 c 1.402,14.16 -17.527,17.148 -23.486,30.768 -5.912,13.508 -35.615,37.646 -46.113,32.371 -4.193,-7.445 8.721,-22.926 8.748,-32.643 0.025,-10.967 3.836,-26.012 8.664,-29.617 18.211,-13.588 39.893,-13.676 49.729,-6.648 0.004,0.01 0.004,0.01 0.008,0.02 1.385,1.678 2.241,3.618 2.45,5.749 z"/><path style="fill:#f26522" id="path330" d="m 921.111,707.928 c -9.322,8.549 -20.578,15.225 -29.023,29.408 -6.863,11.525 -28.125,14.295 -36.238,10.113 -0.229,-0.436 -0.359,-0.902 -0.396,-1.4 -0.73,-8.984 19.523,-32.281 16.102,-41.158 -3.42,-8.875 -4.289,-27.525 2.012,-31.023 15.363,-8.512 33.693,-7.943 50.314,1.055 1.154,0.623 2.189,1.299 3.117,2.002 8.483,9.591 2.046,23.731 -5.888,31.003 z"/><path style="fill:#f26522" id="path332" d="m 846.582,725.182 c 0.018,0.529 -0.035,1.168 -0.158,1.9 -1.502,8.889 -3.316,14.629 -2.383,24.07 0.936,9.439 -18.609,31.873 -28.41,30.777 -1.488,-0.168 -2.74,-0.518 -3.752,-1.018 -1.922,-3.609 0.352,-9.381 6.457,-14.98 9.322,-8.549 11.619,-25.461 17.998,-33.242 2.916,-3.548 7.367,-7.041 10.248,-7.507 z"/><path style="fill:#f26522" id="path334" d="m 822.854,630.271 c 0.107,2.689 -24.191,10.816 -31.445,12.965 -4.104,1.211 -7.912,2.299 -10.479,1.629 -0.277,-0.742 -0.422,-1.652 -0.439,-2.771 -0.119,-7.615 25.598,-17.471 25.598,-17.471 7.578,-2.26 12.213,-1.715 15.045,-0.088 1.471,2.166 1.678,4.637 1.72,5.736 z"/><path style="fill:#f26522" id="path336" d="m 870.506,633.338 c 2.252,4.469 0.604,13.498 -4.85,21.611 -7.895,11.746 -8.424,24.031 -18.059,29.436 -9.633,5.402 -13.521,-8.195 -24.789,-6.443 -5.512,0.854 -9.582,0.812 -12.25,-0.449 -0.771,-1.43 -1.078,-3.318 -0.912,-5.715 0.59,-8.479 9.408,-15.707 22.596,-20.51 0,0 27.377,-17.17 35.699,-18.152 0.967,-0.116 1.829,-0.03 2.565,0.222 z"/><path style="fill:#f26522" id="path338" d="m 874.373,621.137 c -2.934,2.504 -18.924,7.016 -24.867,8.719 -5.711,1.633 -17.279,10.914 -22.639,12.697 1.1,-3.055 5.504,-7.533 8.178,-9.518 3.699,-2.75 -0.416,-12.246 6.668,-14.482 9.933,-3.139 25.848,0.086 32.66,2.584 z"/><path style="fill:#f26522" id="path340" d="m 915.164,659.104 c -4.877,-1.107 -13.309,-2.814 -24.166,-0.15 -2.588,0.633 -4.508,0.604 -5.918,0.094 -1.336,-2.766 -0.857,-6.988 -0.35,-10.436 0.949,-6.449 0.775,-18.65 8.23,-19.564 5.963,-0.727 24.283,11.828 32.615,18.947 5.818,6.052 -5.557,12.212 -10.411,11.109 z"/><path style="fill:#f26522" id="path342" d="m 766.732,732.592 c -3.281,8.588 -6.922,15.145 -8.568,27.383 -1.584,11.771 -14.34,23.467 -20.334,20.746 -3.793,-5.324 -4.701,-15.488 -6.979,-20.584 -2.654,-5.934 0.891,-10.256 6.775,-11.793 5.885,-1.535 14.076,-14.158 18.332,-20.246 3.16,-4.523 7.105,-5.105 10.033,-3.555 1.4,2.146 1.882,5.064 0.741,8.049 z"/><path style="fill:#f26522" id="path344" d="m 803.162,790.791 c -3.797,4.984 -6.02,9.812 -6.863,18.951 -0.842,9.141 -10.609,22.818 -15.484,21.713 -4.877,-1.105 -9.104,-6.883 -18.002,-13.311 -0.014,-0.006 -0.014,-0.006 -0.018,-0.016 -4.967,-6.037 -1.262,-13.479 1.594,-20.955 3.281,-8.588 17.289,-12.758 25.6,-17.471 3.68,-2.084 7.59,-1.105 10.711,1.146 2.87,3.363 4.226,7.621 2.462,9.943 z"/><path style="fill:#f26522" id="path346" d="m 873.943,773.93 c -6.523,11.133 -11.641,15.611 -16.785,31.057 -5.143,15.445 -13.025,32.115 -27.498,30.369 -4.029,-0.486 -7.391,-1.854 -10.061,-3.857 -4.754,-5.412 -6.109,-13.395 -3.855,-21.139 3.678,-12.6 15.857,-14.758 24.424,-21.326 8.564,-6.568 8.699,-19.861 17.203,-25.221 5.922,-3.732 12.33,-3.387 16.5,-0.729 2.098,2.83 2.5,6.693 0.072,10.846 z"/><path style="fill:#f26522" id="path348" d="m 803.74,844.756 c -3.256,2.766 15.504,8.951 22.914,8.375 7.41,-0.574 -13.388,-16.469 -22.914,-8.375 z"/><path style="fill:#f26522" id="path350" d="m 867.16,827.352 c 0.119,7.615 7.133,11.053 3.852,19.639 -2.912,7.623 -18.854,6.393 -25.455,4.316 0.148,-5.422 11.658,-20.176 15.357,-24.447 2.238,-2.59 4.158,-3.809 5.635,-3.812 0.383,1.098 0.58,2.544 0.611,4.304 z"/><path style="fill:#f26522" id="path352" d="m 956.24,773.357 c 0.305,4.607 -2.021,13.393 -4.938,18.016 -3.846,6.1 -18.623,26.947 -23.691,30.311 -0.633,0.424 -1.258,0.617 -1.826,0.596 -1.426,-3.875 -0.666,-11.805 4.977,-21.723 5.664,-9.948 20.111,-24.723 25.478,-27.2 z"/><path style="fill:#f26522" id="path354" d="m 963.891,722.758 c 0.119,7.615 -14.342,10.795 -25.045,15.031 -7.67,3.035 -15.609,9.85 -20.125,8.912 -0.33,-0.762 -0.566,-1.707 -0.727,-2.873 -1.703,-12.385 11.582,-19.42 19.379,-28.932 7.688,-9.385 9.199,-21.859 14.398,-27.131 0.066,-0.072 0.141,-0.15 0.211,-0.215 l 1,1.404 0.477,0.674 c 0.045,0.025 0.098,0.045 0.131,0.074 5.707,7.472 10.199,26.528 10.301,33.056 z"/><path style="fill:#f26522" id="path356" d="m 944.396,755.057 c 0.146,0.275 0.271,0.58 0.379,0.895 3.373,9.994 -16.496,24.355 -25.564,32.244 -9.07,7.889 -13.135,29.424 -24.33,39.906 -5.197,4.865 -10.381,5.004 -14.021,2.742 -0.004,-0.008 -0.014,-0.004 -0.014,-0.004 -2.213,-2.986 -2.951,-7.213 -1.266,-11.232 4.242,-10.111 -3.744,-16.947 0.547,-28.178 4.289,-11.229 19.154,-23.309 29.227,-28.951 8.084,-4.536 27.121,-11.274 35.042,-7.422 z"/></g><g style="opacity:.2" id="g472"><linearGradient id="SVGID_25_" x1="-189.707" x2="-122.557" y1="148.597" y2="148.597" gradientTransform="matrix(0.9129,-0.4082,0.4082,0.9129,847.9268,484.001)" gradientUnits="userSpaceOnUse"><stop style="stop-color:#fff" id="stop360" offset="0"/><stop style="stop-color:#fff;stop-opacity:0" id="stop362" offset="1"/></linearGradient><path style="fill:url(#SVGID_25_)" id="path365" d="m 774.055,692.621 c -8.83,7.498 -22.16,25.945 -30.867,21.195 -7.359,-10.16 -1.926,-36.207 5.889,-43.984 9.561,-9.51 33.33,-15.023 43.725,-8.168 0.33,0.42 0.623,0.881 0.885,1.367 6.625,12.371 -10.107,21.496 -19.632,29.59 z"/><linearGradient id="SVGID_26_" x1="-183.929" x2="-94.066" y1="203.74" y2="203.74" gradientTransform="matrix(0.9129,-0.4082,0.4082,0.9129,847.9268,484.001)" gradientUnits="userSpaceOnUse"><stop style="stop-color:#fff" id="stop367" offset="0"/><stop style="stop-color:#fff;stop-opacity:0" id="stop369" offset="1"/></linearGradient><path style="fill:url(#SVGID_26_)" id="path372" d="m 842.514,703.637 c 1.402,14.16 -17.527,17.148 -23.486,30.768 -5.912,13.508 -35.615,37.646 -46.113,32.371 -4.193,-7.445 8.721,-22.926 8.748,-32.643 0.025,-10.967 3.836,-26.012 8.664,-29.617 18.211,-13.588 39.893,-13.676 49.729,-6.648 0.004,0.01 0.004,0.01 0.008,0.02 1.385,1.678 2.241,3.618 2.45,5.749 z"/><linearGradient id="SVGID_27_" x1="-100.311" x2="-5.818" y1="218.242" y2="218.242" gradientTransform="matrix(0.9129,-0.4082,0.4082,0.9129,847.9268,484.001)" gradientUnits="userSpaceOnUse"><stop style="stop-color:#fff" id="stop374" offset="0"/><stop style="stop-color:#fff;stop-opacity:0" id="stop376" offset="1"/></linearGradient><path style="fill:url(#SVGID_27_)" id="path379" d="m 921.111,707.928 c -9.322,8.549 -20.578,15.225 -29.023,29.408 -6.863,11.525 -28.125,14.295 -36.238,10.113 -0.229,-0.436 -0.359,-0.902 -0.396,-1.4 -0.73,-8.984 19.523,-32.281 16.102,-41.158 -3.42,-8.875 -4.289,-27.525 2.012,-31.023 15.363,-8.512 33.693,-7.943 50.314,1.055 1.154,0.623 2.189,1.299 3.117,2.002 8.483,9.591 2.046,23.731 -5.888,31.003 z"/><linearGradient id="SVGID_28_" x1="-154.116" x2="-99.675" y1="239.678" y2="239.678" gradientTransform="matrix(0.9129,-0.4082,0.4082,0.9129,847.9268,484.001)" gradientUnits="userSpaceOnUse"><stop style="stop-color:#fff" id="stop381" offset="0"/><stop style="stop-color:#fff;stop-opacity:0" id="stop383" offset="1"/></linearGradient><path style="fill:url(#SVGID_28_)" id="path386" d="m 846.582,725.182 c 0.018,0.529 -0.035,1.168 -0.158,1.9 -1.502,8.889 -3.316,14.629 -2.383,24.07 0.936,9.439 -18.609,31.873 -28.41,30.777 -1.488,-0.168 -2.74,-0.518 -3.752,-1.018 -1.922,-3.609 0.352,-9.381 6.457,-14.98 9.322,-8.549 11.619,-25.461 17.998,-33.242 2.916,-3.548 7.367,-7.041 10.248,-7.507 z"/><linearGradient id="SVGID_29_" x1="-126.824" x2="-81.688" y1="117.767" y2="117.767" gradientTransform="matrix(0.9129,-0.4082,0.4082,0.9129,847.9268,484.001)" gradientUnits="userSpaceOnUse"><stop style="stop-color:#fff" id="stop388" offset="0"/><stop style="stop-color:#fff;stop-opacity:0" id="stop390" offset="1"/></linearGradient><path style="fill:url(#SVGID_29_)" id="path393" d="m 822.854,630.271 c 0.107,2.689 -24.191,10.816 -31.445,12.965 -4.104,1.211 -7.912,2.299 -10.479,1.629 -0.277,-0.742 -0.422,-1.652 -0.439,-2.771 -0.119,-7.615 25.598,-17.471 25.598,-17.471 7.578,-2.26 12.213,-1.715 15.045,-0.088 1.471,2.166 1.678,4.637 1.72,5.736 z"/><linearGradient id="SVGID_30_" x1="-113.112" x2="-40.338" y1="163.193" y2="163.193" gradientTransform="matrix(0.9129,-0.4082,0.4082,0.9129,847.9268,484.001)" gradientUnits="userSpaceOnUse"><stop style="stop-color:#fff" id="stop395" offset="0"/><stop style="stop-color:#fff;stop-opacity:0" id="stop397" offset="1"/></linearGradient><path style="fill:url(#SVGID_30_)" id="path400" d="m 870.506,633.338 c 2.252,4.469 0.604,13.498 -4.85,21.611 -7.895,11.746 -8.424,24.031 -18.059,29.436 -9.633,5.402 -13.521,-8.195 -24.789,-6.443 -5.512,0.854 -9.582,0.812 -12.25,-0.449 -0.771,-1.43 -1.078,-3.318 -0.912,-5.715 0.59,-8.479 9.408,-15.707 22.596,-20.51 0,0 27.377,-17.17 35.699,-18.152 0.967,-0.116 1.829,-0.03 2.565,0.222 z"/><linearGradient id="SVGID_31_" x1="-83.944" x2="-31.834" y1="128.255" y2="128.255" gradientTransform="matrix(0.9129,-0.4082,0.4082,0.9129,847.9268,484.001)" gradientUnits="userSpaceOnUse"><stop style="stop-color:#fff" id="stop402" offset="0"/><stop style="stop-color:#fff;stop-opacity:0" id="stop404" offset="1"/></linearGradient><path style="fill:url(#SVGID_31_)" id="path407" d="m 874.373,621.137 c -2.934,2.504 -18.924,7.016 -24.867,8.719 -5.711,1.633 -17.279,10.914 -22.639,12.697 1.1,-3.055 5.504,-7.533 8.178,-9.518 3.699,-2.75 -0.416,-12.246 6.668,-14.482 9.933,-3.139 25.848,0.086 32.66,2.584 z"/><linearGradient id="SVGID_32_" x1="-37.537" x2="4.351" y1="169.682" y2="169.682" gradientTransform="matrix(0.9129,-0.4082,0.4082,0.9129,847.9268,484.001)" gradientUnits="userSpaceOnUse"><stop style="stop-color:#fff" id="stop409" offset="0"/><stop style="stop-color:#fff;stop-opacity:0" id="stop411" offset="1"/></linearGradient><path style="fill:url(#SVGID_32_)" id="path414" d="m 915.164,659.104 c -4.877,-1.107 -13.309,-2.814 -24.166,-0.15 -2.588,0.633 -4.508,0.604 -5.918,0.094 -1.336,-2.766 -0.857,-6.988 -0.35,-10.436 0.949,-6.449 0.775,-18.65 8.23,-19.564 5.963,-0.727 24.283,11.828 32.615,18.947 5.818,6.052 -5.557,12.212 -10.411,11.109 z"/><linearGradient id="SVGID_33_" x1="-221.922" x2="-172.882" y1="205.694" y2="205.694" gradientTransform="matrix(0.9129,-0.4082,0.4082,0.9129,847.9268,484.001)" gradientUnits="userSpaceOnUse"><stop style="stop-color:#fff" id="stop416" offset="0"/><stop style="stop-color:#fff;stop-opacity:0" id="stop418" offset="1"/></linearGradient><path style="fill:url(#SVGID_33_)" id="path421" d="m 766.732,732.592 c -3.281,8.588 -6.922,15.145 -8.568,27.383 -1.584,11.771 -14.34,23.467 -20.334,20.746 -3.793,-5.324 -4.701,-15.488 -6.979,-20.584 -2.654,-5.934 0.891,-10.256 6.775,-11.793 5.885,-1.535 14.076,-14.158 18.332,-20.246 3.16,-4.523 7.105,-5.105 10.033,-3.555 1.4,2.146 1.882,5.064 0.741,8.049 z"/><linearGradient id="SVGID_34_" x1="-214.501" x2="-163.629" y1="268.333" y2="268.333" gradientTransform="matrix(0.9129,-0.4082,0.4082,0.9129,847.9268,484.001)" gradientUnits="userSpaceOnUse"><stop style="stop-color:#fff" id="stop423" offset="0"/><stop style="stop-color:#fff;stop-opacity:0" id="stop425" offset="1"/></linearGradient><path style="fill:url(#SVGID_34_)" id="path428" d="m 803.162,790.791 c -3.797,4.984 -6.02,9.812 -6.863,18.951 -0.842,9.141 -10.609,22.818 -15.484,21.713 -4.877,-1.105 -9.104,-6.883 -18.002,-13.311 -0.014,-0.006 -0.014,-0.006 -0.018,-0.016 -4.967,-6.037 -1.262,-13.479 1.594,-20.955 3.281,-8.588 17.289,-12.758 25.6,-17.471 3.68,-2.084 7.59,-1.105 10.711,1.146 2.87,3.363 4.226,7.621 2.462,9.943 z"/><linearGradient id="SVGID_35_" x1="-168.542" x2="-90.02" y1="287.362" y2="287.362" gradientTransform="matrix(0.9129,-0.4082,0.4082,0.9129,847.9268,484.001)" gradientUnits="userSpaceOnUse"><stop style="stop-color:#fff" id="stop430" offset="0"/><stop style="stop-color:#fff;stop-opacity:0" id="stop432" offset="1"/></linearGradient><path style="fill:url(#SVGID_35_)" id="path435" d="m 873.943,773.93 c -6.523,11.133 -11.641,15.611 -16.785,31.057 -5.143,15.445 -13.025,32.115 -27.498,30.369 -4.029,-0.486 -7.391,-1.854 -10.061,-3.857 -4.754,-5.412 -6.109,-13.395 -3.855,-21.139 3.678,-12.6 15.857,-14.758 24.424,-21.326 8.564,-6.568 8.699,-19.861 17.203,-25.221 5.922,-3.732 12.33,-3.387 16.5,-0.729 2.098,2.83 2.5,6.693 0.072,10.846 z"/><linearGradient id="SVGID_36_" x1="-188.308" x2="-168.075" y1="319.709" y2="319.709" gradientTransform="matrix(0.9129,-0.4082,0.4082,0.9129,847.9268,484.001)" gradientUnits="userSpaceOnUse"><stop style="stop-color:#fff" id="stop437" offset="0"/><stop style="stop-color:#fff;stop-opacity:0" id="stop439" offset="1"/></linearGradient><path style="fill:url(#SVGID_36_)" id="path442" d="m 803.74,844.756 c -3.256,2.766 15.504,8.951 22.914,8.375 7.41,-0.574 -13.388,-16.469 -22.914,-8.375 z"/><linearGradient id="SVGID_37_" x1="-152.094" x2="-121.395" y1="329.85" y2="329.85" gradientTransform="matrix(0.9129,-0.4082,0.4082,0.9129,847.9268,484.001)" gradientUnits="userSpaceOnUse"><stop style="stop-color:#fff" id="stop444" offset="0"/><stop style="stop-color:#fff;stop-opacity:0" id="stop446" offset="1"/></linearGradient><path style="fill:url(#SVGID_37_)" id="path449" d="m 867.16,827.352 c 0.119,7.615 7.133,11.053 3.852,19.639 -2.912,7.623 -18.854,6.393 -25.455,4.316 0.148,-5.422 11.658,-20.176 15.357,-24.447 2.238,-2.59 4.158,-3.809 5.635,-3.812 0.383,1.098 0.58,2.544 0.611,4.304 z"/><linearGradient id="SVGID_38_" x1="-67.005" x2="-19.233" y1="324.611" y2="324.611" gradientTransform="matrix(0.9129,-0.4082,0.4082,0.9129,847.9268,484.001)" gradientUnits="userSpaceOnUse"><stop style="stop-color:#fff" id="stop451" offset="0"/><stop style="stop-color:#fff;stop-opacity:0" id="stop453" offset="1"/></linearGradient><path style="fill:url(#SVGID_38_)" id="path456" d="m 956.24,773.357 c 0.305,4.607 -2.021,13.393 -4.938,18.016 -3.846,6.1 -18.623,26.947 -23.691,30.311 -0.633,0.424 -1.258,0.617 -1.826,0.596 -1.426,-3.875 -0.666,-11.805 4.977,-21.723 5.664,-9.948 20.111,-24.723 25.478,-27.2 z"/><linearGradient id="SVGID_39_" x1="-42.603" x2="13.147" y1="249.079" y2="249.079" gradientTransform="matrix(0.9129,-0.4082,0.4082,0.9129,847.9268,484.001)" gradientUnits="userSpaceOnUse"><stop style="stop-color:#fff" id="stop458" offset="0"/><stop style="stop-color:#fff;stop-opacity:0" id="stop460" offset="1"/></linearGradient><path style="fill:url(#SVGID_39_)" id="path463" d="m 963.891,722.758 c 0.119,7.615 -14.342,10.795 -25.045,15.031 -7.67,3.035 -15.609,9.85 -20.125,8.912 -0.33,-0.762 -0.566,-1.707 -0.727,-2.873 -1.703,-12.385 11.582,-19.42 19.379,-28.932 7.688,-9.385 9.199,-21.859 14.398,-27.131 0.066,-0.072 0.141,-0.15 0.211,-0.215 l 1,1.404 0.477,0.674 c 0.045,0.025 0.098,0.045 0.131,0.074 5.707,7.472 10.199,26.528 10.301,33.056 z"/><linearGradient id="SVGID_40_" x1="-111.782" x2="-22.564" y1="306.693" y2="306.693" gradientTransform="matrix(0.9129,-0.4082,0.4082,0.9129,847.9268,484.001)" gradientUnits="userSpaceOnUse"><stop style="stop-color:#fff" id="stop465" offset="0"/><stop style="stop-color:#fff;stop-opacity:0" id="stop467" offset="1"/></linearGradient><path style="fill:url(#SVGID_40_)" id="path470" d="m 944.396,755.057 c 0.146,0.275 0.271,0.58 0.379,0.895 3.373,9.994 -16.496,24.355 -25.564,32.244 -9.07,7.889 -13.135,29.424 -24.33,39.906 -5.197,4.865 -10.381,5.004 -14.021,2.742 -0.004,-0.008 -0.014,-0.004 -0.014,-0.004 -2.213,-2.986 -2.951,-7.213 -1.266,-11.232 4.242,-10.111 -3.744,-16.947 0.547,-28.178 4.289,-11.229 19.154,-23.309 29.227,-28.951 8.084,-4.536 27.121,-11.274 35.042,-7.422 z"/></g><linearGradient id="SVGID_41_" x1="-107.529" x2="31.964" y1="217.424" y2="272.921" gradientTransform="matrix(0.9129,-0.4082,0.4082,0.9129,847.9268,484.001)" gradientUnits="userSpaceOnUse"><stop style="stop-color:#ed1c24;stop-opacity:0" id="stop474" offset="0"/><stop style="stop-color:#ed1c24" id="stop476" offset="1"/></linearGradient><path style="fill:url(#SVGID_41_)" id="path479" d="m 950.662,687.047 c 9.424,21.078 12.053,43.467 8.811,64.709 -3.947,25.887 -16.586,50.072 -36.219,68.096 7.295,-74.256 -16.607,-149.393 -34.092,-192.611 26.449,10.937 48.899,31.624 61.5,59.806 z"/><linearGradient id="SVGID_42_" x1="2265.352" x2="2303.168" y1="719.932" y2="763.012" gradientTransform="matrix(0.9081,0.4188,-0.4188,0.9081,-1003.7385,-938.0752)" gradientUnits="userSpaceOnUse"><stop style="stop-color:#fff" id="stop481" offset="0"/><stop style="stop-color:#fff;stop-opacity:0" id="stop483" offset="1"/></linearGradient><path style="opacity:.9;fill:url(#SVGID_42_)" id="path486" d="m 769.008,695.814 c -7.316,15.859 -17.295,26.852 -22.287,24.549 -4.994,-2.303 -3.111,-17.027 4.203,-32.889 7.314,-15.859 17.293,-26.852 22.285,-24.549 4.994,2.304 3.111,17.028 -4.201,32.889 z"/><linearGradient id="SVGID_43_" x1="-104.985" x2="-104.985" y1="233.962" y2="277.962" gradientTransform="matrix(0.9129,-0.4082,0.4082,0.9129,847.9268,484.001)" gradientUnits="userSpaceOnUse"><stop style="stop-color:#0046ff;stop-opacity:0" id="stop488" offset="0"/><stop style="stop-color:#0046ff" id="stop490" offset="1"/></linearGradient><path style="opacity:.3;fill:url(#SVGID_43_)" id="path493" d="m 955.652,700.314 c 3.217,10.404 4.891,21.004 5.117,31.506 -86.41,54.137 -163.045,78.293 -195.664,86.92 -2.969,-2.791 -5.791,-5.748 -8.457,-8.871 -3.764,-4.396 -7.23,-9.113 -10.348,-14.148 z"/><path style="fill:#ffde17" id="path495" d="m 986.49,647.504 c -15.174,4.521 -31.924,10.121 -49.768,16.605 0.857,0.883 3.572,3.795 5.861,7.453 15.549,-5.605 30.227,-10.518 43.68,-14.594 57.02,-17.273 66.139,-11.877 66.994,-11.195 -0.062,1.092 -2.121,11.486 -53.014,42.463 -36.619,22.289 -86.543,47.869 -140.572,72.027 -54.031,24.16 -106.381,44.311 -147.408,56.74 -57.019,17.273 -66.138,11.877 -66.995,11.195 0.064,-1.092 2.121,-11.486 53.015,-42.463 9.859,-6.002 20.691,-12.242 32.3,-18.629 -0.752,-2.428 -1.727,-5.754 -2.471,-8.914 -13.436,7.357 -25.873,14.537 -37.035,21.4 -18.208,11.195 -32.113,20.988 -41.329,29.105 -14.85,13.078 -14.374,19.496 -12.724,23.186 3.111,6.959 14.449,12.633 75.011,-5.416 41.807,-12.459 95.541,-33.053 151.309,-57.988 55.768,-24.935 106.943,-51.252 144.104,-74.102 18.207,-11.195 32.113,-20.988 41.33,-29.105 14.85,-13.078 14.373,-19.496 12.723,-23.188 -3.11,-6.955 -14.448,-12.629 -75.011,5.42 z"/><linearGradient id="SVGID_44_" x1="-103.074" x2="-97.074" y1="241.435" y2="183.435" gradientTransform="matrix(0.9129,-0.4082,0.4082,0.9129,847.9268,484.001)" gradientUnits="userSpaceOnUse"><stop style="stop-color:#0046ff;stop-opacity:0" id="stop497" offset="0"/><stop style="stop-color:#0046ff" id="stop499" offset="1"/></linearGradient><path style="fill:url(#SVGID_44_)" id="path502" d="m 986.49,647.504 c -15.174,4.521 -31.924,10.121 -49.768,16.605 0.857,0.883 3.572,3.795 5.861,7.453 15.549,-5.605 30.227,-10.518 43.68,-14.594 57.02,-17.273 66.139,-11.877 66.994,-11.195 -0.062,1.092 -2.121,11.486 -53.014,42.463 -36.619,22.289 -86.543,47.869 -140.572,72.027 -54.031,24.16 -106.381,44.311 -147.408,56.74 -57.019,17.273 -66.138,11.877 -66.995,11.195 0.064,-1.092 2.121,-11.486 53.015,-42.463 9.859,-6.002 20.691,-12.242 32.3,-18.629 -0.752,-2.428 -1.727,-5.754 -2.471,-8.914 -13.436,7.357 -25.873,14.537 -37.035,21.4 -18.208,11.195 -32.113,20.988 -41.329,29.105 -14.85,13.078 -14.374,19.496 -12.724,23.186 3.111,6.959 14.449,12.633 75.011,-5.416 41.807,-12.459 95.541,-33.053 151.309,-57.988 55.768,-24.935 106.943,-51.252 144.104,-74.102 18.207,-11.195 32.113,-20.988 41.33,-29.105 14.85,-13.078 14.373,-19.496 12.723,-23.188 -3.11,-6.955 -14.448,-12.629 -75.011,5.42 z"/></g><g style="opacity:.8" id="g745" clip-path="url(#SVGID_2_)" transform="translate(-636.22277,-614.67292)"><linearGradient id="SVGID_59_" x1="-1306.254" x2="-1034.254" y1="-1979.908" y2="-1979.908" gradientTransform="matrix(0.1271,-0.9919,0.9919,0.1271,3063.3794,-879.7368)" gradientUnits="userSpaceOnUse"><stop style="stop-color:#acfffe" id="stop732" offset="0"/><stop style="stop-color:#a4fbfd;stop-opacity:.8158" id="stop734" offset=".184"/><stop style="stop-color:#8df2fa;stop-opacity:.5265" id="stop736" offset=".473"/><stop style="stop-color:#69e2f5;stop-opacity:.17" id="stop738" offset=".83"/><stop style="stop-color:#55d9f2;stop-opacity:0" id="stop740" offset="1"/></linearGradient><path style="fill:url(#SVGID_59_)" id="path743" d="m 1074.053,-90.991 c -0.027,0.215 -0.123,0.422 -0.291,0.585 L 829.158,150.451 c -0.395,0.388 -1.027,0.383 -1.416,-0.01 -0.387,-0.394 -0.381,-1.027 0.012,-1.414 L 1072.359,-91.83 c 0.395,-0.388 1.027,-0.382 1.414,0.01 0.225,0.228 0.319,0.535 0.28,0.829 z"/></g><g id="g777" clip-path="url(#SVGID_2_)" transform="translate(-636.22277,-614.67292)"><g id="g751"><line style="fill:none;stroke:#fff;stroke-width:2;stroke-miterlimit:10" id="line747" x1="66.203" x2="84.587" y1="130.463" y2="148.848" stroke-miterlimit="10"/><line style="fill:none;stroke:#fff;stroke-width:2;stroke-miterlimit:10" id="line749" x1="84.587" x2="66.203" y1="130.463" y2="148.848" stroke-miterlimit="10"/></g><g id="g757"><line style="fill:none;stroke:#fff;stroke-width:2;stroke-miterlimit:10" id="line753" x1="240.22" x2="258.605" y1="886.539" y2="904.924" stroke-miterlimit="10"/><line style="fill:none;stroke:#fff;stroke-width:2;stroke-miterlimit:10" id="line755" x1="258.605" x2="240.22" y1="886.539" y2="904.924" stroke-miterlimit="10"/></g><g id="g763"><line style="fill:none;stroke:#fff;stroke-width:2;stroke-miterlimit:10" id="line759" x1="1128.309" x2="1146.693" y1="79.458" y2="97.842" stroke-miterlimit="10"/><line style="fill:none;stroke:#fff;stroke-width:2;stroke-miterlimit:10" id="line761" x1="1146.693" x2="1128.309" y1="79.458" y2="97.842" stroke-miterlimit="10"/></g><g id="g769"><line style="fill:none;stroke:#fff;stroke-width:2;stroke-miterlimit:10" id="line765" x1="1254.705" x2="1273.09" y1="331.483" y2="349.868" stroke-miterlimit="10"/><line style="fill:none;stroke:#fff;stroke-width:2;stroke-miterlimit:10" id="line767" x1="1273.09" x2="1254.705" y1="331.483" y2="349.868" stroke-miterlimit="10"/></g><g id="g775"><line style="fill:none;stroke:#fff;stroke-width:2;stroke-miterlimit:10" id="line771" x1="474.881" x2="504.756" y1="718.777" y2="748.652" stroke-miterlimit="10"/><line style="fill:none;stroke:#fff;stroke-width:2;stroke-miterlimit:10" id="line773" x1="504.756" x2="474.881" y1="718.777" y2="748.652" stroke-miterlimit="10"/></g></g><path id="path874" d="m -453.18377,-468.44292 c -0.851,0.71 -1.28,1.08 -1.28,1.08 0.269,-0.68 0.699,-1.03 1.28,-1.08 z" style="fill:url(#SVGID_64_)"/></svg>