<?xml version="1.0" encoding="UTF-8" standalone="no"?>
<!-- Generator: Adobe Illustrator 22.0.1, SVG Export Plug-In . SVG Version: 6.00 Build 0)  -->

<svg
   xmlns:dc="http://purl.org/dc/elements/1.1/"
   xmlns:cc="http://creativecommons.org/ns#"
   xmlns:rdf="http://www.w3.org/1999/02/22-rdf-syntax-ns#"
   xmlns:svg="http://www.w3.org/2000/svg"
   xmlns="http://www.w3.org/2000/svg"
   xmlns:sodipodi="http://sodipodi.sourceforge.net/DTD/sodipodi-0.dtd"
   xmlns:inkscape="http://www.inkscape.org/namespaces/inkscape"
   version="1.1"
   id="Layer_1"
   x="0px"
   y="0px"
   viewBox="0 0 676.5 676.5"
   xml:space="preserve"
   sodipodi:docname="planeta1.svg"
   width="676.5"
   height="676.5"
   inkscape:version="0.92.4 (5da689c313, 2019-01-14)"><metadata
   id="metadata77"><rdf:RDF><cc:Work
       rdf:about=""><dc:format>image/svg+xml</dc:format><dc:type
         rdf:resource="http://purl.org/dc/dcmitype/StillImage" /></cc:Work></rdf:RDF></metadata><defs
   id="defs75" /><sodipodi:namedview
   pagecolor="#ffffff"
   bordercolor="#666666"
   borderopacity="1"
   objecttolerance="10"
   gridtolerance="10"
   guidetolerance="10"
   inkscape:pageopacity="0"
   inkscape:pageshadow="2"
   inkscape:window-width="1920"
   inkscape:window-height="1016"
   id="namedview73"
   showgrid="false"
   inkscape:zoom="0.6675088"
   inkscape:cx="394.8039"
   inkscape:cy="287.83521"
   inkscape:window-x="0"
   inkscape:window-y="27"
   inkscape:window-maximized="1"
   inkscape:current-layer="Layer_1" />
<style
   type="text/css"
   id="style2">
	.st0{fill:#2D477B;}
	.st1{opacity:0.87;fill:#182F54;}
	.st2{opacity:0.21;fill:#4570B5;}
	.st3{opacity:0.47;fill:#182F54;}
	.st4{opacity:0.47;fill:#2D477B;}
	.st5{opacity:0.17;fill:#7DACEF;}
	.st6{fill:#FFFFFF;}
	.st7{opacity:5.000000e-02;fill:#AACEF9;}
	.st8{opacity:0.1;fill:#AACEF9;}
	.st9{opacity:0.15;fill:#AACEF9;}
	.st10{opacity:0.17;fill:#AACEF9;}
	.st11{fill:#9FC7F7;}
	.st12{opacity:0.59;fill:#629FDD;}
	.st13{fill:#629FDD;}
	.st14{fill:#C0DDF9;}
	.st15{fill:#3A88C9;}
	.st16{fill:#7AB9ED;}
	.st17{opacity:0.46;fill:#7AB9ED;}
</style>
<g
   id="g70"
   transform="translate(-218.8,-43)">
	<g
   id="g68">
		<g
   id="g66">
			<path
   class="st7"
   d="M 895.3,381.2 C 895.3,568 743.9,719.5 557,719.5 442.8,719.5 341.8,662.9 280.5,576.1 270.7,562.2 261.9,547.6 254.3,532.3 241.6,506.9 232,479.7 226,451.1 221.2,428.6 218.8,405.2 218.8,381.2 218.8,194.4 370.2,43 557,43 c 20.6,0 40.7,1.8 60.2,5.3 28.2,5.1 55.1,13.6 80.4,25.2 21,9.6 40.9,21.3 59.4,34.9 49.7,36.5 89,86.2 112.9,143.9 13.1,31.9 21.6,66.1 24.4,102 v 0 c 0.6,9 1,17.9 1,26.9 z"
   id="path4"
   inkscape:connector-curvature="0" />
			<path
   class="st8"
   d="m 859.2,381.2 c 0,166.9 -135.3,302.2 -302.2,302.2 -102.1,0 -192.3,-50.6 -247,-128.1 -8.7,-12.4 -16.6,-25.5 -23.4,-39.1 -11.3,-22.7 -19.9,-47 -25.3,-72.5 -4.3,-20.1 -6.5,-41 -6.5,-62.4 0,-166.9 135.3,-302.2 302.2,-302.2 18.4,0 36.3,1.6 53.8,4.8 25.2,4.5 49.2,12.1 71.8,22.5 18.8,8.6 36.6,19.1 53,31.2 44.4,32.6 79.5,77 100.8,128.6 11.7,28.5 19.3,59.1 21.8,91.1 v 0 c 0.7,7.9 1,15.9 1,23.9 z"
   id="path6"
   inkscape:connector-curvature="0"
   style="opacity:0.1;fill:#aacef9" />
			<path
   class="st9"
   d="m 821.2,381.2 c 0,145.9 -118.3,264.1 -264.1,264.1 -89.2,0 -168.1,-44.2 -215.9,-112 -7.6,-10.8 -14.5,-22.3 -20.5,-34.2 -9.9,-19.8 -17.4,-41.1 -22.1,-63.4 -3.7,-17.6 -5.7,-35.8 -5.7,-54.6 C 292.9,235.2 411.2,117 557,117 c 16.1,0 31.8,1.4 47,4.2 22,3.9 43,10.6 62.8,19.7 16.4,7.5 32,16.7 46.4,27.2 38.8,28.5 69.5,67.3 88.1,112.4 10.3,24.9 16.8,51.6 19,79.6 v 0 c 0.6,7.1 0.9,14.1 0.9,21.1 z"
   id="path8"
   inkscape:connector-curvature="0"
   style="opacity:0.15;fill:#aacef9" />
			<path
   class="st10"
   d="M 777.8,381.2 C 777.8,503.2 679,602 557,602 c -74.6,0 -140.5,-37 -180.5,-93.6 -6.4,-9.1 -12.1,-18.6 -17.1,-28.6 -8.3,-16.6 -14.6,-34.3 -18.5,-53 -3.1,-14.7 -4.7,-30 -4.7,-45.6 0,-121.9 98.8,-220.8 220.8,-220.8 13.4,0 26.6,1.2 39.3,3.5 18.4,3.3 36,8.9 52.5,16.4 13.7,6.3 26.7,13.9 38.8,22.8 32.4,23.8 58.1,56.3 73.7,93.9 8.6,20.8 14.1,43.2 15.9,66.6 v 0 c 0.4,5.9 0.6,11.8 0.6,17.6 z"
   id="path10"
   inkscape:connector-curvature="0"
   style="opacity:0.17000002;fill:#aacef9" />
			<g
   id="g64">
				<path
   class="st11"
   d="m 749.1,381.2 c 0,106.1 -86,192 -192,192 -64.9,0 -122.2,-32.2 -157,-81.4 -5.6,-7.9 -10.6,-16.2 -14.9,-24.9 C 378,452.5 372.5,437 369.1,420.8 366.4,408 365,394.7 365,381.1 c 0,-106 86,-192 192,-192 11.7,0 23.1,1 34.2,3 16,2.9 31.3,7.7 45.6,14.3 11.9,5.5 23.2,12.1 33.7,19.8 28.2,20.7 50.5,48.9 64.1,81.7 7.5,18.1 12.2,37.5 13.8,57.9 v 0 c 0.5,5.2 0.7,10.3 0.7,15.4 z"
   id="path12"
   inkscape:connector-curvature="0"
   style="fill:#9fc7f7" />
				<path
   class="st12"
   d="m 748.5,366 v 0 c -1.6,-20.4 -6.4,-39.8 -13.8,-57.9 -13.5,-32.8 -35.9,-61 -64.1,-81.7 -10.5,-7.7 -21.8,-14.3 -33.7,-19.8 -3.5,-1.6 -7,-3.1 -10.6,-4.5 12.2,14.7 22.3,31.3 29.7,49.3 7.5,18.1 12.2,37.5 13.8,57.9 v 0 c 0.4,5 0.6,10.1 0.6,15.2 0,106.1 -86,192 -192,192 -24.4,0 -47.7,-4.6 -69.2,-12.9 35.2,42.5 88.4,69.6 147.9,69.6 106.1,0 192,-86 192,-192 0,-5.1 -0.2,-10.2 -0.6,-15.2 z"
   id="path14"
   inkscape:connector-curvature="0"
   style="opacity:0.58999999;fill:#629fdd" />
				<g
   id="g22">
					<circle
   class="st11"
   cx="556.40002"
   cy="386.10001"
   r="52.599998"
   id="circle16"
   style="fill:#9fc7f7" />
					<path
   class="st13"
   d="m 556.4,333.5 c -1.2,0 -2.3,0 -3.4,0.1 9.5,8.6 15.4,21.1 15.4,34.9 0,26.1 -21.1,47.2 -47.2,47.2 -3,0 -6,-0.3 -8.8,-0.8 9.4,14.4 25.6,23.9 44.1,23.9 29.1,0 52.6,-23.6 52.6,-52.6 0,-29 -23.6,-52.7 -52.7,-52.7 z"
   id="path18"
   inkscape:connector-curvature="0"
   style="fill:#629fdd" />
					<path
   class="st14"
   d="m 507.9,387.5 c 0,-29.1 23.6,-52.6 52.6,-52.6 5.1,0 10,0.7 14.6,2.1 -5.8,-2.2 -12.1,-3.4 -18.7,-3.4 -29.1,0 -52.6,23.6 -52.6,52.6 0,24 16,44.2 38,50.5 -19.8,-7.6 -33.9,-26.8 -33.9,-49.2 z"
   id="path20"
   inkscape:connector-curvature="0"
   style="fill:#c0ddf9" />
				</g>
				<g
   id="g30">
					<circle
   class="st11"
   cx="473.20001"
   cy="274.60001"
   r="38.799999"
   id="circle24"
   style="fill:#9fc7f7" />
					<path
   class="st13"
   d="m 473.2,235.8 c -0.8,0 -1.7,0 -2.5,0.1 7,6.4 11.3,15.5 11.3,25.7 0,19.2 -15.6,34.8 -34.8,34.8 -2.2,0 -4.4,-0.2 -6.5,-0.6 6.9,10.6 18.9,17.6 32.4,17.6 21.4,0 38.8,-17.4 38.8,-38.8 0.1,-21.4 -17.3,-38.8 -38.7,-38.8 z"
   id="path26"
   inkscape:connector-curvature="0"
   style="fill:#629fdd" />
					<path
   class="st14"
   d="m 437.5,275.6 c 0,-21.4 17.4,-38.8 38.8,-38.8 3.7,0 7.4,0.5 10.8,1.5 -4.3,-1.6 -8.9,-2.5 -13.8,-2.5 -21.4,0 -38.8,17.4 -38.8,38.8 0,17.7 11.8,32.6 28,37.2 -14.7,-5.6 -25,-19.7 -25,-36.2 z"
   id="path28"
   inkscape:connector-curvature="0"
   style="fill:#c0ddf9" />
				</g>
				<g
   id="g38">
					<path
   class="st11"
   d="m 670.6,226.4 c -3.6,20.9 -21.8,36.8 -43.7,36.8 -4.3,0 -8.4,-0.6 -12.3,-1.8 -0.6,-0.2 -1.2,-0.3 -1.7,-0.5 -0.6,-0.2 -1.1,-0.4 -1.7,-0.6 -1.7,-0.6 -3.3,-1.3 -4.8,-2.2 0,0 -0.1,0 -0.1,-0.1 -0.4,-0.2 -0.7,-0.4 -1.1,-0.6 -1.3,-0.7 -2.5,-1.5 -3.7,-2.3 -1.4,-1 -2.6,-2 -3.9,-3.1 -0.4,-0.4 -0.9,-0.8 -1.3,-1.2 -0.4,-0.4 -0.8,-0.7 -1.2,-1.2 -0.1,-0.1 -0.2,-0.2 -0.3,-0.3 -0.3,-0.3 -0.6,-0.7 -1,-1 -0.8,-0.8 -1.5,-1.7 -2.2,-2.6 -0.5,-0.7 -1.1,-1.4 -1.6,-2.2 -0.4,-0.6 -0.8,-1.2 -1.1,-1.8 -0.3,-0.5 -0.7,-1.1 -1,-1.6 -0.4,-0.8 -0.8,-1.6 -1.2,-2.4 -0.3,-0.5 -0.5,-1.1 -0.7,-1.7 -0.3,-0.6 -0.5,-1.2 -0.7,-1.8 -0.1,-0.1 -0.1,-0.2 -0.1,-0.3 -0.2,-0.5 -0.4,-1.1 -0.5,-1.6 -0.7,-2 -1.2,-4.1 -1.5,-6.3 -0.1,-0.3 -0.1,-0.5 -0.1,-0.8 -0.1,-0.5 -0.1,-1.1 -0.2,-1.6 -0.2,-1.6 -0.3,-3.1 -0.3,-4.7 0,-0.9 0,-1.8 0.1,-2.7 0,-0.6 0.1,-1.2 0.1,-1.8 0,-0.5 0.1,-1 0.2,-1.6 0,-0.4 0.1,-0.8 0.2,-1.2 0,-0.1 0,-0.2 0,-0.3 0.1,-0.5 0.2,-1 0.3,-1.6 0.1,-0.6 0.3,-1.2 0.4,-1.8 0.1,-0.4 0.2,-0.8 0.3,-1.2 0.1,-0.3 0.1,-0.5 0.2,-0.7 0.1,-0.3 0.2,-0.6 0.3,-0.9 0.6,-1.8 1.3,-3.6 2.2,-5.4 0.1,-0.3 0.3,-0.7 0.5,-1 0.2,-0.4 0.4,-0.8 0.6,-1.2 0.3,-0.6 0.6,-1.1 1,-1.7 0.4,-0.6 0.7,-1.2 1.2,-1.8 0.4,-0.6 0.8,-1.2 1.2,-1.7 v 0 c 1.3,0.2 2.5,0.5 3.7,0.7 27.7,5.5 53.4,17.2 75.5,33.4 z"
   id="path32"
   inkscape:connector-curvature="0"
   style="fill:#9fc7f7" />
					<path
   class="st13"
   d="m 670.6,226.4 c -3.6,20.9 -21.8,36.8 -43.7,36.8 -15.6,0 -29.2,-8 -37.2,-20.1 2.4,0.5 4.9,0.7 7.4,0.7 21.1,0 38.4,-16.4 39.7,-37.2 12,5.4 23.3,12.1 33.8,19.8 z"
   id="path34"
   inkscape:connector-curvature="0"
   style="fill:#629fdd" />
					<path
   class="st14"
   d="m 614.5,261.4 c -0.6,-0.2 -1.2,-0.3 -1.7,-0.5 -0.6,-0.2 -1.1,-0.4 -1.7,-0.6 -1.7,-0.6 -3.3,-1.4 -4.8,-2.2 0,0 -0.1,0 -0.1,-0.1 -0.4,-0.2 -0.7,-0.4 -1.1,-0.6 -1.3,-0.7 -2.5,-1.5 -3.7,-2.3 -1.4,-1 -2.6,-2 -3.9,-3.1 -0.4,-0.4 -0.9,-0.8 -1.3,-1.2 -0.4,-0.4 -0.8,-0.7 -1.2,-1.2 -0.1,-0.1 -0.2,-0.2 -0.3,-0.3 -0.3,-0.3 -0.6,-0.7 -1,-1 -0.8,-0.8 -1.5,-1.7 -2.2,-2.6 -0.5,-0.7 -1.1,-1.4 -1.6,-2.2 -0.4,-0.6 -0.8,-1.2 -1.1,-1.8 -0.3,-0.5 -0.7,-1.1 -1,-1.6 -0.4,-0.8 -0.8,-1.6 -1.2,-2.4 -0.3,-0.5 -0.5,-1.1 -0.7,-1.7 -0.3,-0.6 -0.5,-1.2 -0.7,-1.8 -0.1,-0.1 -0.1,-0.2 -0.1,-0.3 -0.2,-0.5 -0.4,-1.1 -0.5,-1.6 -0.7,-2 -1.2,-4.1 -1.5,-6.3 -0.1,-0.3 -0.1,-0.5 -0.1,-0.8 -0.1,-0.5 -0.1,-1.1 -0.2,-1.6 -0.2,-1.6 -0.3,-3.1 -0.3,-4.7 0,-0.9 0,-1.8 0.1,-2.7 0,-0.6 0.1,-1.2 0.1,-1.8 0,-0.5 0.1,-1 0.2,-1.6 0,-0.4 0.1,-0.8 0.2,-1.2 0,-0.1 0,-0.2 0,-0.3 0.1,-0.5 0.2,-1 0.3,-1.6 0.1,-0.6 0.3,-1.2 0.4,-1.8 0.1,-0.4 0.2,-0.8 0.3,-1.2 0.1,-0.3 0.1,-0.5 0.2,-0.7 0.1,-0.3 0.2,-0.6 0.3,-0.9 0.6,-1.8 1.3,-3.6 2.2,-5.4 0.1,-0.3 0.3,-0.7 0.5,-1 0.2,-0.4 0.4,-0.8 0.6,-1.2 0.3,-0.6 0.6,-1.1 1,-1.7 0.4,-0.6 0.7,-1.2 1.2,-1.8 0.4,-0.6 0.8,-1.2 1.2,-1.7 v 0 c 1.3,0.2 2.5,0.5 3.7,0.7 -5.7,7.5 -9.1,16.8 -9.1,26.9 0,19 11.9,35.1 28.6,41.5 z"
   id="path36"
   inkscape:connector-curvature="0"
   style="fill:#c0ddf9" />
				</g>
				<g
   id="g46">
					<path
   class="st11"
   d="m 425.1,455.6 c 0,16.6 -10.4,30.7 -25,36.2 -14.8,-20.9 -25.5,-45 -30.9,-71 5.2,-2.6 11,-4 17.2,-4 21.3,0.1 38.7,17.4 38.7,38.8 z"
   id="path40"
   inkscape:connector-curvature="0"
   style="fill:#9fc7f7" />
					<path
   class="st13"
   d="m 425.1,455.6 c 0,16.6 -10.4,30.7 -25,36.2 -5.6,-7.9 -10.6,-16.2 -14.9,-24.9 6.2,-6.3 10,-14.9 10,-24.3 0,-10.2 -4.4,-19.3 -11.3,-25.7 0.8,-0.1 1.7,-0.1 2.5,-0.1 21.3,0.1 38.7,17.4 38.7,38.8 z"
   id="path42"
   inkscape:connector-curvature="0"
   style="fill:#629fdd" />
					<path
   class="st14"
   d="m 369.1,420.9 v 0 c 5.2,-2.6 11,-4 17.2,-4 4.8,0 9.5,0.9 13.8,2.5 -3.4,-1 -7,-1.5 -10.8,-1.5 -7.2,0 -13.9,2 -19.7,5.4 z"
   id="path44"
   inkscape:connector-curvature="0"
   style="fill:#c0ddf9" />
				</g>
				<g
   id="g54">
					<circle
   class="st11"
   cx="593.90002"
   cy="515.09998"
   r="35.099998"
   id="circle48"
   style="fill:#9fc7f7" />
					<path
   class="st13"
   d="m 593.9,480 c -0.8,0 -1.5,0 -2.3,0.1 6.3,5.8 10.3,14 10.3,23.3 0,17.4 -14.1,31.5 -31.5,31.5 -2,0 -4,-0.2 -5.9,-0.6 6.3,9.6 17.1,15.9 29.4,15.9 19.4,0 35.1,-15.7 35.1,-35.1 0,-19.4 -15.7,-35.1 -35.1,-35.1 z"
   id="path50"
   inkscape:connector-curvature="0"
   style="fill:#629fdd" />
					<path
   class="st14"
   d="m 561.5,516 c 0,-19.4 15.7,-35.1 35.1,-35.1 3.4,0 6.7,0.5 9.8,1.4 -3.9,-1.5 -8.1,-2.3 -12.5,-2.3 -19.4,0 -35.1,15.7 -35.1,35.1 0,16 10.7,29.5 25.3,33.7 C 570.9,543.7 561.5,531 561.5,516 Z"
   id="path52"
   inkscape:connector-curvature="0"
   style="fill:#c0ddf9" />
				</g>
				<g
   id="g62">
					<path
   class="st11"
   d="m 748.5,366 v 0 c -6.8,8.1 -16.9,13.2 -28.3,13.2 -20.4,0 -37,-16.6 -37,-37 0,-20.4 16.6,-37 37,-37 5.1,0 10,1 14.4,2.9 7.5,18.1 12.3,37.5 13.9,57.9 z"
   id="path56"
   inkscape:connector-curvature="0"
   style="fill:#9fc7f7" />
					<path
   class="st13"
   d="m 748.5,366 c -6.8,8 -16.9,13.2 -28.3,13.2 -13,0 -24.4,-6.7 -31,-16.8 2,0.4 4.1,0.6 6.2,0.6 18.3,0 33.2,-14.9 33.2,-33.2 0,-9.7 -4.2,-18.5 -10.8,-24.5 0.8,-0.1 1.6,-0.1 2.4,-0.1 5.1,0 10,1 14.4,2.9 7.5,18.1 12.3,37.5 13.9,57.9 z"
   id="path58"
   inkscape:connector-curvature="0"
   style="fill:#629fdd" />
					<path
   class="st14"
   d="m 686.1,343.1 c 0,-20.4 16.6,-37 37,-37 3.6,0 7,0.5 10.3,1.5 -4.1,-1.6 -8.5,-2.4 -13.2,-2.4 -20.4,0 -37,16.6 -37,37 0,16.9 11.3,31.1 26.7,35.5 -13.9,-5.3 -23.8,-18.8 -23.8,-34.6 z"
   id="path60"
   inkscape:connector-curvature="0"
   style="fill:#c0ddf9" />
				</g>
			</g>
		</g>
	</g>
</g>
</svg>