<svg xmlns="http://www.w3.org/2000/svg" xmlns:svg="http://www.w3.org/2000/svg" id="svg566" width="383.87" height="385.411" x="0" y="0" enable-background="new 0 0 2850 1800" version="1.1" viewBox="0 0 383.87 385.411" xml:space="preserve"><metadata id="metadata572"/><defs id="defs570"><linearGradient id="SVGID_1_" x1="986.365" x2="1901.35" y1="-1.448" y2="1878.956" gradientUnits="userSpaceOnUse"><stop id="stop2" offset=".005" style="stop-color:#44168a"/><stop id="stop4" offset="1" style="stop-color:#fe6262"/></linearGradient></defs><g id="g291" transform="translate(-2122.8618,-378.16554)"><g id="g157"><g id="g13"><g id="g11"><path style="fill:#fff" id="path9" d="m 157.619,112.443 c 1.932,0 1.935,-3.002 0,-3.002 -1.932,0 -1.935,3.002 0,3.002 z"/></g></g><g id="g19"><g id="g17"><path style="fill:#fff" id="path15" d="m 129.983,269.266 c 1.932,0 1.935,-3.002 0,-3.002 -1.931,0 -1.934,3.002 0,3.002 z"/></g></g><path style="fill:#fff" id="path21" d="m 367.993,170.904 c 0,1.537 0,3.075 0,4.612 0,1.933 3,1.936 3,0 0,-1.537 0,-3.075 0,-4.612 0,-1.933 -3,-1.936 -3,0 z"/><path style="fill:#fff" id="path23" d="m 283.48,355.401 c 0,-1.537 0,-3.075 0,-4.612 0,-1.933 -3,-1.936 -3,0 0,1.537 0,3.075 0,4.612 0,1.933 3,1.936 3,0 z"/><path style="fill:#fff" id="path25" d="m 257.45,217.028 c 0,1.537 0,3.075 0,4.613 0,1.933 3,1.936 3,0 0,-1.538 0,-3.075 0,-4.613 0,-1.933 -3,-1.936 -3,0 z"/><g id="g31"><g id="g29"><path style="fill:#fff" id="path27" d="m 719.547,89.381 c 1.932,0 1.935,-3.002 0,-3.002 -1.932,0 -1.935,3.002 0,3.002 z"/></g></g><g id="g37"><g id="g35"><path style="fill:#fff" id="path33" d="m 742.576,379.964 c 1.932,0 1.935,-3.002 0,-3.002 -1.931,0 -1.934,3.002 0,3.002 z"/></g></g><path style="fill:#fff" id="path39" d="m 688.805,438.425 c 0,-1.538 0,-3.075 0,-4.612 0,-1.933 -3,-1.936 -3,0 0,1.537 0,3.075 0,4.612 0,1.933 3,1.936 3,0 z"/><g id="g45"><g id="g43"><path style="fill:#fff" id="path41" d="m 549.126,546.012 c 1.932,0 1.935,-3.002 0,-3.002 -1.932,0 -1.935,3.002 0,3.002 z"/></g></g><path style="fill:#fff" id="path47" d="m 595.186,324.616 c 1.535,0 3.071,0 4.606,0 1.93,0 1.933,-3.004 0,-3.004 -1.535,0 -3.071,0 -4.606,0 -1.931,0 -1.934,3.004 0,3.004 z"/><path style="fill:#fff" id="path49" d="m 1043.025,382.014 c -1.535,-1.537 -3.071,-3.075 -4.606,-4.612 -1.367,-1.369 -3.489,0.755 -2.121,2.124 1.535,1.537 3.071,3.075 4.606,4.612 1.366,1.369 3.488,-0.755 2.121,-2.124 z"/><path style="fill:#fff" id="path51" d="m 1006.616,687.497 c 0,-1.538 0,-3.075 0,-4.613 0,-1.933 -3,-1.936 -3,0 0,1.538 0,3.075 0,4.613 0,1.933 3,1.936 3,0 z"/><g id="g57"><g id="g55"><path style="fill:#fff" id="path53" d="m 779.424,813.534 c 1.932,0 1.935,-3.002 0,-3.002 -1.931,-0.001 -1.935,3.002 0,3.002 z"/></g></g><path style="fill:#fff" id="path59" d="m 555.232,987.305 c 0,-1.537 0,-3.075 0,-4.612 0,-1.933 -3,-1.936 -3,0 0,1.537 0,3.075 0,4.612 0,1.933 3,1.936 3,0 z"/><g id="g65"><g id="g63"><path style="fill:#fff" id="path61" d="m 691.911,688.998 c 1.932,0 1.935,-3.002 0,-3.002 -1.932,0 -1.935,3.002 0,3.002 z"/></g></g><path style="fill:#fff" id="path67" d="m 248.678,808.482 c 1.535,1.537 3.071,3.075 4.606,4.612 1.367,1.369 3.489,-0.755 2.121,-2.124 -1.535,-1.537 -3.071,-3.075 -4.606,-4.612 -1.367,-1.369 -3.489,0.755 -2.121,2.124 z"/><path style="fill:#fff" id="path69" d="m 124.743,913.25 c -0.657,4.819 7.614,4.444 6.653,-0.135 -0.397,-1.891 -3.289,-1.091 -2.893,0.799 -0.072,-0.342 -0.042,0.067 0.009,-0.134 0.039,-0.155 -0.076,0.087 0.07,-0.16 -0.126,0.212 0.163,-0.069 0.03,-0.017 -0.095,0.037 -0.18,0.28 0.022,-0.003 -0.02,0.028 -0.156,0.105 -0.19,0.107 0.285,-0.015 0.105,-0.033 -0.012,-0.009 -0.095,0.02 -0.19,0.048 -0.285,0.068 0.201,-0.041 0.161,-10e-4 -0.017,-0.01 -0.146,-0.008 -0.588,-0.073 -0.252,0.005 -0.094,-0.022 -0.186,-0.043 -0.278,-0.071 -0.106,-0.036 -0.073,-0.019 0.099,0.051 -0.032,-0.016 -0.064,-0.033 -0.096,-0.049 -0.077,-0.217 0.051,0.181 0.006,0.023 -0.026,-0.022 -0.05,-0.046 -0.072,-0.072 -0.076,-0.082 -0.048,-0.048 0.082,0.104 0.017,0.083 0.088,0.267 0.033,0.076 0.108,0.372 0.028,-0.095 -0.016,0.226 0.11,-0.803 -0.193,-1.613 -1.048,-1.848 -0.7,-0.193 -1.735,0.24 -1.845,1.049 z"/><g id="g75"><g id="g73"><path style="fill:#fff" id="path71" d="m 208.285,573.687 c 1.932,0 1.935,-3.002 0,-3.002 -1.932,0 -1.935,3.002 0,3.002 z"/></g></g><path style="fill:#fff" id="path77" d="m 425.826,783.296 c -1.535,-1.537 -3.071,-3.075 -4.606,-4.612 -1.367,-1.369 -3.489,0.755 -2.121,2.124 1.535,1.537 3.071,3.075 4.606,4.612 1.366,1.369 3.488,-0.755 2.121,-2.124 z"/><g id="g83"><g id="g81"><path style="fill:#fff" id="path79" d="m 1037.358,121.668 c 1.932,0 1.935,-3.002 0,-3.002 -1.931,0 -1.935,3.002 0,3.002 z"/></g></g><g id="g89"><g id="g87"><path style="fill:#fff" id="path85" d="m 1272.262,250.816 c 1.932,0 1.935,-3.002 0,-3.002 -1.931,0 -1.935,3.002 0,3.002 z"/></g></g><g id="g95"><g id="g93"><path style="fill:#fff" id="path91" d="m 1216.991,555.237 c 1.932,0 1.935,-3.002 0,-3.002 -1.932,0 -1.935,3.002 0,3.002 z"/></g></g><path style="fill:#fff" id="path97" d="m 1130.231,967.55 c 0,-1.791 0,-3.581 0,-5.372 0,-1.933 -3,-1.936 -3,0 0,1.791 0,3.582 0,5.372 0,1.934 3,1.937 3,0 z"/><g id="g103"><g id="g101"><path style="fill:#fff" id="path99" d="m 903.419,1253.773 c 1.932,0 1.935,-3.002 0,-3.002 -1.931,0 -1.934,3.002 0,3.002 z"/></g></g><path style="fill:#fff" id="path105" d="m 345.505,1296.751 c 1.788,0 3.576,0 5.365,0 1.93,0 1.933,-3.004 0,-3.004 -1.788,0 -3.576,0 -5.365,0 -1.93,0 -1.934,3.004 0,3.004 z"/><path style="fill:#fff" id="path107" d="m 276.826,1471.466 c -1.788,-1.791 -3.576,-3.581 -5.365,-5.372 -1.367,-1.369 -3.489,0.755 -2.121,2.124 1.788,1.791 3.576,3.581 5.365,5.372 1.367,1.369 3.489,-0.755 2.121,-2.124 z"/><path style="fill:#fff" id="path109" d="m 235.241,1122.776 c 0.05,0.367 0.039,-0.205 0.024,0.056 -0.015,0.114 -0.005,0.101 0.03,-0.041 -0.016,0.048 -0.033,0.097 -0.05,0.145 0.101,0.179 -0.264,-0.045 0.027,-0.012 0.109,0.012 -0.204,0.103 0.043,-0.012 0.134,-0.062 0.12,-0.048 -0.007,0 0.103,-0.036 0.213,-0.068 0.321,-0.089 0.171,-0.033 -0.215,0 0.076,-0.013 0.116,-0.01 0.232,0 0.348,0 0.18,0 0.554,0.069 0.712,0.215 -0.154,-0.142 -0.089,-0.034 0.025,0.036 0.06,0.037 -0.038,-0.179 0.003,0.03 -0.024,-0.12 -0.067,-0.186 -0.037,-0.021 -0.067,-0.364 -0.09,0.158 -0.029,-0.131 -0.396,1.886 2.495,2.692 2.893,0.799 1.039,-4.948 -7.98,-5.35 -7.272,-0.157 0.11,0.804 1.139,1.244 1.845,1.049 0.867,-0.238 1.158,-1.04 1.048,-1.847 z"/><path style="fill:#fff" id="path111" d="m 110.964,1499.389 c 0,-1.791 0,-3.581 0,-5.372 0,-1.933 -3,-1.936 -3,0 0,1.791 0,3.581 0,5.372 0,1.933 3,1.936 3,0 z"/><path style="fill:#fff" id="path113" d="m 724.889,1177.062 c 0,1.791 0,3.581 0,5.372 0,1.933 3,1.936 3,0 0,-1.791 0,-3.581 0,-5.372 0,-1.932 -3,-1.936 -3,0 z"/><path style="fill:#fff" id="path115" d="m 652.785,1526.249 c 0,-1.791 0,-3.581 0,-5.372 0,-1.933 -3,-1.936 -3,0 0,1.791 0,3.581 0,5.372 0,1.933 3,1.936 3,0 z"/><g id="g121"><g id="g119"><path style="fill:#fff" id="path117" d="m 1432.224,728.913 c 1.932,0 1.935,-3.002 0,-3.002 -1.932,0 -1.935,3.002 0,3.002 z"/></g></g><g id="g127"><g id="g125"><path style="fill:#fff" id="path123" d="m 1936.753,299.65 c 1.932,0 1.935,-3.002 0,-3.002 -1.932,0 -1.935,3.002 0,3.002 z"/></g></g><path style="fill:#fff" id="path129" d="m 2324.746,595.516 c 1.264,-1.266 2.529,-2.533 3.793,-3.799 1.367,-1.369 -0.754,-3.494 -2.121,-2.124 -1.265,1.266 -2.529,2.533 -3.793,3.799 -1.367,1.369 0.754,3.494 2.121,2.124 z"/><g id="g135"><g id="g133"><path style="fill:#fff" id="path131" d="m 2050.557,907.456 c 1.932,0 1.935,-3.002 0,-3.002 -1.932,0 -1.935,3.002 0,3.002 z"/></g></g><path style="fill:#fff" id="path137" d="m 2756.391,74.336 c -0.767,0.768 -1.534,1.536 -2.301,2.304 -1.367,1.369 0.754,3.494 2.121,2.124 0.767,-0.768 1.534,-1.536 2.301,-2.304 1.367,-1.369 -0.753,-3.494 -2.121,-2.124 -0.767,0.768 -1.534,1.536 -2.301,2.304 -1.367,1.369 0.754,3.494 2.121,2.124 0.767,-0.768 1.534,-1.536 2.301,-2.304 1.367,-1.369 -0.753,-3.494 -2.121,-2.124 z"/><path style="fill:#fff" id="path139" d="m 2485.304,229.771 c 0,1.266 0,2.533 0,3.799 0,1.933 3,1.936 3,0 0,-1.266 0,-2.533 0,-3.799 0,-1.933 -3,-1.936 -3,0 z"/><g id="g145"><g id="g143"><path style="fill:#fff" id="path141" d="m 1557.408,189.485 c 1.932,0 1.935,-3.002 0,-3.002 -1.932,0 -1.935,3.002 0,3.002 z"/></g></g><path style="fill:#fff" id="path147" d="m 1654.574,573.023 c -1.265,-1.266 -2.529,-2.533 -3.793,-3.799 -1.367,-1.369 -3.489,0.755 -2.121,2.124 1.264,1.266 2.529,2.533 3.793,3.799 1.367,1.369 3.489,-0.755 2.121,-2.124 z"/><path style="fill:#fff" id="path149" d="m 1699.339,871.946 c 0,-2.649 0,-5.298 0,-7.947 0,-1.933 -3,-1.936 -3,0 0,2.649 0,5.298 0,7.947 0,1.933 3,1.936 3,0 z"/><g id="g155"><g id="g153"><path style="fill:#fff" id="path151" d="m 1451.819,1254.917 c 1.932,0 1.935,-3.002 0,-3.002 -1.932,0 -1.935,3.002 0,3.002 z"/></g></g></g><g id="g289"><g id="g163"><g id="g161"><path style="fill:#fff" id="path159" d="m 1252.93,68.474 c 1.932,0 1.935,-3.002 0,-3.002 -1.932,0 -1.935,3.002 0,3.002 z"/></g></g><g id="g169"><g id="g167"><path style="fill:#fff" id="path165" d="m 1225.294,225.297 c 1.932,0 1.935,-3.002 0,-3.002 -1.931,0 -1.935,3.002 0,3.002 z"/></g></g><path style="fill:#fff" id="path171" d="m 1463.304,126.935 c 0,1.537 0,3.075 0,4.612 0,1.933 3,1.936 3,0 0,-1.537 0,-3.075 0,-4.612 0,-1.933 -3,-1.937 -3,0 z"/><path style="fill:#fff" id="path173" d="m 1378.791,311.432 c 0,-1.537 0,-3.075 0,-4.612 0,-1.933 -3,-1.936 -3,0 0,1.537 0,3.075 0,4.612 0,1.933 3,1.936 3,0 z"/><path style="fill:#fff" id="path175" d="m 1352.761,173.059 c 0,1.538 0,3.075 0,4.613 0,1.933 3,1.936 3,0 0,-1.537 0,-3.075 0,-4.613 0,-1.933 -3,-1.936 -3,0 z"/><g id="g181"><g id="g179"><path style="fill:#fff" id="path177" d="m 1814.857,45.412 c 1.932,0 1.935,-3.002 0,-3.002 -1.931,0 -1.935,3.002 0,3.002 z"/></g></g><g id="g187"><g id="g185"><path style="fill:#fff" id="path183" d="m 1837.887,335.995 c 1.932,0 1.935,-3.002 0,-3.002 -1.931,0 -1.935,3.002 0,3.002 z"/></g></g><path style="fill:#fff" id="path189" d="m 1784.115,394.456 c 0,-1.538 0,-3.075 0,-4.612 0,-1.933 -3,-1.936 -3,0 0,1.538 0,3.075 0,4.612 10e-4,1.933 3,1.936 3,0 z"/><g id="g195"><g id="g193"><path style="fill:#fff" id="path191" d="m 1644.437,502.043 c 1.932,0 1.935,-3.002 0,-3.002 -1.932,0 -1.935,3.002 0,3.002 z"/></g></g><path style="fill:#fff" id="path197" d="m 1690.496,280.647 c 1.535,0 3.071,0 4.606,0 1.93,0 1.933,-3.004 0,-3.004 -1.535,0 -3.071,0 -4.606,0 -1.93,0 -1.933,3.004 0,3.004 z"/><path style="fill:#fff" id="path199" d="m 2138.335,338.045 c -1.535,-1.538 -3.071,-3.075 -4.606,-4.613 -1.367,-1.369 -3.489,0.755 -2.121,2.124 1.535,1.537 3.071,3.075 4.606,4.612 1.367,1.37 3.489,-0.754 2.121,-2.123 z"/><path style="fill:#fff" id="path201" d="m 2101.927,643.528 c 0,-1.538 0,-3.075 0,-4.612 0,-1.933 -3,-1.936 -3,0 0,1.537 0,3.075 0,4.612 0,1.932 3,1.936 3,0 z"/><g id="g207"><g id="g205"><path style="fill:#fff" id="path203" d="m 1874.735,769.564 c 1.932,0 1.935,-3.002 0,-3.002 -1.932,0 -1.935,3.002 0,3.002 z"/></g></g><path style="fill:#fff" id="path209" d="m 1650.543,943.336 c 0,-1.537 0,-3.075 0,-4.612 0,-1.933 -3,-1.936 -3,0 0,1.537 0,3.075 0,4.612 0,1.933 3,1.936 3,0 z"/><g id="g215"><g id="g213"><path style="fill:#fff" id="path211" d="m 1787.222,645.029 c 1.932,0 1.935,-3.002 0,-3.002 -1.932,0 -1.935,3.002 0,3.002 z"/></g></g><path style="fill:#fff" id="path217" d="m 1343.989,764.513 c 1.535,1.537 3.071,3.075 4.606,4.612 1.367,1.369 3.489,-0.755 2.121,-2.124 -1.535,-1.537 -3.071,-3.075 -4.606,-4.612 -1.367,-1.369 -3.489,0.754 -2.121,2.124 z"/><path style="fill:#fff" id="path219" d="m 1220.054,869.281 c -0.657,4.819 7.614,4.444 6.653,-0.135 -0.397,-1.891 -3.289,-1.091 -2.893,0.799 -0.072,-0.342 -0.042,0.067 0.01,-0.134 0.039,-0.155 -0.077,0.087 0.07,-0.16 -0.125,0.212 0.163,-0.069 0.03,-0.017 -0.095,0.037 -0.18,0.28 0.022,-0.003 -0.02,0.028 -0.156,0.105 -0.19,0.107 0.285,-0.015 0.105,-0.033 -0.012,-0.009 -0.095,0.02 -0.19,0.048 -0.285,0.068 0.201,-0.041 0.161,-10e-4 -0.017,-0.01 -0.146,-0.008 -0.588,-0.073 -0.252,0.005 -0.094,-0.022 -0.186,-0.043 -0.278,-0.071 -0.106,-0.036 -0.073,-0.019 0.099,0.051 -0.032,-0.016 -0.064,-0.033 -0.096,-0.049 -0.077,-0.217 0.051,0.181 0.01,0.023 -0.026,-0.022 -0.05,-0.046 -0.072,-0.072 -0.075,-0.082 -0.048,-0.048 0.082,0.104 0.017,0.083 0.088,0.267 0.033,0.076 0.108,0.372 0.028,-0.095 -0.016,0.226 0.109,-0.803 -0.193,-1.613 -1.048,-1.848 -0.7,-0.193 -1.735,0.24 -1.845,1.049 z"/><g id="g225"><g id="g223"><path style="fill:#fff" id="path221" d="m 1303.595,529.717 c 1.932,0 1.935,-3.002 0,-3.002 -1.931,10e-4 -1.934,3.002 0,3.002 z"/></g></g><path style="fill:#fff" id="path227" d="m 1521.136,739.327 c -1.535,-1.538 -3.071,-3.075 -4.606,-4.613 -1.367,-1.369 -3.489,0.755 -2.121,2.124 1.535,1.538 3.071,3.075 4.606,4.612 1.367,1.37 3.489,-0.754 2.121,-2.123 z"/><g id="g233"><g id="g231"><path style="fill:#fff" id="path229" d="m 2132.669,77.699 c 1.932,0 1.935,-3.002 0,-3.002 -1.932,0 -1.935,3.002 0,3.002 z"/></g></g><g id="g239"><g id="g237"><path style="fill:#fff" id="path235" d="m 2367.573,206.847 c 1.932,0 1.935,-3.002 0,-3.002 -1.932,0 -1.935,3.002 0,3.002 z"/></g></g><g id="g245"><g id="g243"><path style="fill:#fff" id="path241" d="m 2312.301,511.268 c 1.932,0 1.935,-3.002 0,-3.002 -1.931,0 -1.935,3.002 0,3.002 z"/></g></g><path style="fill:#fff" id="path247" d="m 2225.542,923.581 c 0,-1.791 0,-3.582 0,-5.372 0,-1.933 -3,-1.936 -3,0 0,1.791 0,3.582 0,5.372 0,1.933 3,1.936 3,0 z"/><g id="g253"><g id="g251"><path style="fill:#fff" id="path249" d="m 1998.73,1209.804 c 1.932,0 1.935,-3.002 0,-3.002 -1.931,0 -1.935,3.002 0,3.002 z"/></g></g><path style="fill:#fff" id="path255" d="m 1440.816,1252.781 c 1.788,0 3.576,0 5.365,0 1.93,0 1.933,-3.004 0,-3.004 -1.788,0 -3.576,0 -5.365,0 -1.931,0 -1.934,3.004 0,3.004 z"/><path style="fill:#fff" id="path257" d="m 1372.137,1427.497 c -1.788,-1.791 -3.576,-3.581 -5.365,-5.372 -1.367,-1.369 -3.489,0.755 -2.121,2.124 1.788,1.791 3.576,3.581 5.365,5.372 1.367,1.369 3.488,-0.755 2.121,-2.124 z"/><path style="fill:#fff" id="path259" d="m 1330.552,1078.806 c 0.05,0.367 0.04,-0.205 0.024,0.056 -0.015,0.114 -0.01,0.101 0.03,-0.04 -0.016,0.048 -0.033,0.097 -0.05,0.145 0.1,0.179 -0.265,-0.045 0.027,-0.012 0.109,0.012 -0.204,0.103 0.043,-0.012 0.134,-0.062 0.12,-0.048 -0.01,0 0.103,-0.037 0.213,-0.068 0.321,-0.089 0.171,-0.033 -0.215,0 0.076,-0.013 0.116,-0.01 0.232,0 0.349,0 0.18,0 0.553,0.069 0.712,0.215 -0.154,-0.142 -0.089,-0.034 0.025,0.036 0.06,0.037 -0.038,-0.179 0,0.03 -0.024,-0.12 -0.067,-0.186 -0.037,-0.021 -0.067,-0.364 -0.09,0.159 -0.029,-0.131 -0.396,1.886 2.495,2.692 2.893,0.799 1.039,-4.948 -7.98,-5.35 -7.272,-0.157 0.11,0.804 1.139,1.243 1.845,1.049 0.865,-0.239 1.157,-1.041 1.047,-1.848 z"/><path style="fill:#fff" id="path261" d="m 1206.275,1455.419 c 0,-1.791 0,-3.581 0,-5.372 0,-1.933 -3,-1.936 -3,0 0,1.791 0,3.581 0,5.372 0,1.933 3,1.936 3,0 z"/><path style="fill:#fff" id="path263" d="m 1820.2,1133.093 c 0,1.791 0,3.581 0,5.372 0,1.933 3,1.936 3,0 0,-1.791 0,-3.581 0,-5.372 -10e-4,-1.933 -3,-1.936 -3,0 z"/><path style="fill:#fff" id="path265" d="m 1748.096,1482.28 c 0,-1.791 0,-3.581 0,-5.372 0,-1.933 -3,-1.936 -3,0 0,1.791 0,3.581 0,5.372 0,1.933 3,1.936 3,0 z"/><g id="g271"><g id="g269"><path style="fill:#fff" id="path267" d="m 2527.534,684.943 c 1.932,0 1.935,-3.002 0,-3.002 -1.931,10e-4 -1.934,3.002 0,3.002 z"/></g></g><g id="g277"><g id="g275"><path style="fill:#fff" id="path273" d="m 2652.719,145.516 c 1.932,0 1.935,-3.002 0,-3.002 -1.932,0 -1.935,3.002 0,3.002 z"/></g></g><path style="fill:#fff" id="path279" d="m 2749.885,529.054 c -1.265,-1.266 -2.529,-2.532 -3.793,-3.799 -1.367,-1.369 -3.489,0.755 -2.121,2.124 1.264,1.266 2.529,2.533 3.793,3.799 1.367,1.369 3.488,-0.755 2.121,-2.124 z"/><path style="fill:#fff" id="path281" d="m 2794.65,827.977 c 0,-2.649 0,-5.298 0,-7.947 0,-1.933 -3,-1.936 -3,0 0,2.649 0,5.298 0,7.947 0,1.932 3,1.936 3,0 z"/><g id="g287"><g id="g285"><path style="fill:#fff" id="path283" d="m 2547.129,1210.948 c 1.932,0 1.935,-3.002 0,-3.002 -1.931,0 -1.934,3.002 0,3.002 z"/></g></g></g></g><path style="opacity:.4;fill:#fff" id="path293" d="m -1117.3938,49.998458 645.34696,-147.258 c 0.269,-0.061 0.537,0.107 0.599,0.376 0.061,0.267 -0.104,0.533 -0.37,0.597 l -643.27996,156.04 c -2.69,0.652 -5.399,-0.999 -6.051,-3.689 -0.652,-2.69 0.999,-5.399 3.689,-6.051 0.013,-0.002 0.053,-0.011 0.066,-0.015 z"/><path style="opacity:.4;fill:#fff" id="path295" d="m -269.32484,563.81546 303.001997,-68.071 c 0.126,-0.028 0.252,0.049 0.281,0.174 0.029,0.123 -0.049,0.246 -0.174,0.276 l -302.030997,72.131 c -1.263,0.302 -2.535,-0.462 -2.841,-1.705 -0.306,-1.243 0.469,-2.496 1.732,-2.797 0.01,-0.002 0.025,-0.007 0.031,-0.008 z"/><path style="opacity:.4;fill:#fff" id="path297" d="m -453.87784,542.82546 156.671,-34.643 c 0.126,-0.028 0.252,0.049 0.281,0.174 0.029,0.123 -0.049,0.246 -0.174,0.276 l -155.701,38.702 c -1.263,0.302 -2.535,-0.462 -2.841,-1.705 -0.306,-1.243 0.469,-2.496 1.732,-2.797 0.01,-10e-4 0.025,-0.005 0.032,-0.007 z"/><path style="opacity:.4;fill:#fff" id="path299" d="m -379.28384,446.82646 241.819,-53.471 c 0.195,-0.044 0.389,0.076 0.434,0.268 0.044,0.19 -0.076,0.38 -0.268,0.426 l -240.321,59.736 c -1.949,0.465 -3.912,-0.713 -4.385,-2.632 -0.473,-1.919 0.724,-3.852 2.673,-4.317 0.01,-10e-4 0.038,-0.008 0.048,-0.01 z"/><path style="opacity:.4;fill:#fff" id="path301" d="m -355.87984,41.658458 952.352,-232.324998 c 0.268,-0.065 0.539,0.099 0.604,0.367 0.065,0.267 -0.097,0.536 -0.363,0.603 l -950.174,241.079998 c -2.682,0.681 -5.409,-0.942 -6.089,-3.625 -0.681,-2.682 0.942,-5.409 3.625,-6.089 z"/><g id="g507" transform="translate(-2122.8618,-378.16554)"><ellipse style="opacity:.3;fill:#ca554e" id="ellipse470" cx="2314.843" cy="570.819" rx="191.348" ry="193.298" transform="matrix(0.8352,-0.5499,0.5499,0.8352,67.5465,1367.0552)"/><radialGradient id="SVGID_13_" cx="2229.132" cy="515.421" r="264.569" gradientUnits="userSpaceOnUse"><stop id="stop472" offset=".004" style="stop-color:#e66119"/><stop id="stop474" offset=".277" style="stop-color:#e35f1a"/><stop id="stop476" offset=".449" style="stop-color:#db5a1c"/><stop id="stop478" offset=".593" style="stop-color:#cc5120"/><stop id="stop480" offset=".722" style="stop-color:#b74526"/><stop id="stop482" offset=".84" style="stop-color:#9d342d"/><stop id="stop484" offset=".95" style="stop-color:#7c2036"/><stop id="stop486" offset=".999" style="stop-color:#6b163b"/></radialGradient><path style="fill:url(#SVGID_13_)" id="path489" d="m 2178.317,660.712 c -50.152,-76.17 -29.683,-178.164 45.718,-227.81 75.401,-49.646 177.183,-28.145 227.335,48.025 50.152,76.17 29.683,178.164 -45.718,227.81 -75.401,49.646 -177.183,28.144 -227.335,-48.025 z"/><g id="g505"><linearGradient id="SVGID_14_" x1="2169.163" x2="2290.365" y1="692.935" y2="606.362" gradientUnits="userSpaceOnUse"><stop id="stop491" offset=".001" style="stop-color:#c73c19"/><stop id="stop493" offset=".999" style="stop-color:#6b163b"/></linearGradient><path style="fill:url(#SVGID_14_)" id="path496" d="m 2324.156,651.534 v 0 c -4.886,-7.421 -14.803,-9.516 -22.149,-4.679 l -12.514,8.24 c -6.444,4.243 -15.143,2.405 -19.429,-4.104 v 0 c -4.286,-6.51 -2.537,-15.227 3.907,-19.47 l 35.472,-23.355 c 5.607,-3.692 7.13,-11.277 3.4,-16.941 v 0 c -3.73,-5.664 -11.299,-7.263 -16.906,-3.571 l -78.644,51.781 c -6.277,4.133 -14.75,2.343 -18.925,-3.998 v 0 c -4.175,-6.341 -2.471,-14.831 3.806,-18.964 l 25.917,-17.065 c 6.277,-4.133 7.981,-12.623 3.806,-18.964 v 0 c -4.175,-6.341 -12.648,-8.131 -18.925,-3.998 l -56.145,36.968 c 4.52,16.368 11.636,32.334 21.491,47.301 17.935,27.24 42.476,47.484 70.049,59.987 l 71.335,-46.969 c 7.346,-4.841 9.34,-14.778 4.454,-22.199 z"/><linearGradient id="SVGID_15_" x1="2254.86" x2="2472.86" y1="494.988" y2="494.988" gradientUnits="userSpaceOnUse"><stop id="stop498" offset=".001" style="stop-color:#c73c19"/><stop id="stop500" offset=".999" style="stop-color:#6b163b"/></linearGradient><path style="fill:url(#SVGID_15_)" id="path503" d="m 2257.536,521.706 v 0 c 4.886,7.421 14.803,9.516 22.149,4.679 l 77.432,-50.983 c 5.607,-3.692 13.177,-2.093 16.906,3.571 l 2.016,3.062 c 3.73,5.664 2.208,13.249 -3.4,16.941 l -41.018,27.007 c -5.607,3.692 -7.129,11.277 -3.4,16.941 v 0 c 3.73,5.664 11.299,7.263 16.906,3.571 l 81.814,-53.868 c 5.607,-3.692 13.177,-2.093 16.906,3.571 l 1.613,2.449 c 3.73,5.664 2.208,13.249 -3.4,16.941 l -42.919,28.259 c -6.277,4.133 -7.981,12.623 -3.806,18.964 v 0 c 4.175,6.341 12.648,8.131 18.925,3.998 l 58.599,-38.583 c -4.52,-16.368 -11.636,-32.334 -21.49,-47.301 -17.936,-27.24 -42.476,-47.484 -70.05,-59.987 l -119.33,78.57 c -7.345,4.839 -9.34,14.777 -4.453,22.198 z"/></g></g></svg>