<svg xmlns="http://www.w3.org/2000/svg" xmlns:svg="http://www.w3.org/2000/svg" id="svg566" width="1359.045" height="884.438" x="0" y="0" enable-background="new 0 0 2850 1800" version="1.1" viewBox="0 0 1359.045 884.438" xml:space="preserve"><metadata id="metadata572"/><defs id="defs570"><linearGradient id="SVGID_1_" x1="986.365" x2="1901.35" y1="-1.448" y2="1878.956" gradientUnits="userSpaceOnUse"><stop id="stop2" offset=".005" style="stop-color:#44168a"/><stop id="stop4" offset="1" style="stop-color:#fe6262"/></linearGradient></defs><g id="g291" transform="translate(-282.7767,-811.19702)"><g id="g157"><g id="g13"><g id="g11"><path style="fill:#fff" id="path9" d="m 157.619,112.443 c 1.932,0 1.935,-3.002 0,-3.002 -1.932,0 -1.935,3.002 0,3.002 z"/></g></g><g id="g19"><g id="g17"><path style="fill:#fff" id="path15" d="m 129.983,269.266 c 1.932,0 1.935,-3.002 0,-3.002 -1.931,0 -1.934,3.002 0,3.002 z"/></g></g><path style="fill:#fff" id="path21" d="m 367.993,170.904 c 0,1.537 0,3.075 0,4.612 0,1.933 3,1.936 3,0 0,-1.537 0,-3.075 0,-4.612 0,-1.933 -3,-1.936 -3,0 z"/><path style="fill:#fff" id="path23" d="m 283.48,355.401 c 0,-1.537 0,-3.075 0,-4.612 0,-1.933 -3,-1.936 -3,0 0,1.537 0,3.075 0,4.612 0,1.933 3,1.936 3,0 z"/><path style="fill:#fff" id="path25" d="m 257.45,217.028 c 0,1.537 0,3.075 0,4.613 0,1.933 3,1.936 3,0 0,-1.538 0,-3.075 0,-4.613 0,-1.933 -3,-1.936 -3,0 z"/><g id="g31"><g id="g29"><path style="fill:#fff" id="path27" d="m 719.547,89.381 c 1.932,0 1.935,-3.002 0,-3.002 -1.932,0 -1.935,3.002 0,3.002 z"/></g></g><g id="g37"><g id="g35"><path style="fill:#fff" id="path33" d="m 742.576,379.964 c 1.932,0 1.935,-3.002 0,-3.002 -1.931,0 -1.934,3.002 0,3.002 z"/></g></g><path style="fill:#fff" id="path39" d="m 688.805,438.425 c 0,-1.538 0,-3.075 0,-4.612 0,-1.933 -3,-1.936 -3,0 0,1.537 0,3.075 0,4.612 0,1.933 3,1.936 3,0 z"/><g id="g45"><g id="g43"><path style="fill:#fff" id="path41" d="m 549.126,546.012 c 1.932,0 1.935,-3.002 0,-3.002 -1.932,0 -1.935,3.002 0,3.002 z"/></g></g><path style="fill:#fff" id="path47" d="m 595.186,324.616 c 1.535,0 3.071,0 4.606,0 1.93,0 1.933,-3.004 0,-3.004 -1.535,0 -3.071,0 -4.606,0 -1.931,0 -1.934,3.004 0,3.004 z"/><path style="fill:#fff" id="path49" d="m 1043.025,382.014 c -1.535,-1.537 -3.071,-3.075 -4.606,-4.612 -1.367,-1.369 -3.489,0.755 -2.121,2.124 1.535,1.537 3.071,3.075 4.606,4.612 1.366,1.369 3.488,-0.755 2.121,-2.124 z"/><path style="fill:#fff" id="path51" d="m 1006.616,687.497 c 0,-1.538 0,-3.075 0,-4.613 0,-1.933 -3,-1.936 -3,0 0,1.538 0,3.075 0,4.613 0,1.933 3,1.936 3,0 z"/><g id="g57"><g id="g55"><path style="fill:#fff" id="path53" d="m 779.424,813.534 c 1.932,0 1.935,-3.002 0,-3.002 -1.931,-0.001 -1.935,3.002 0,3.002 z"/></g></g><path style="fill:#fff" id="path59" d="m 555.232,987.305 c 0,-1.537 0,-3.075 0,-4.612 0,-1.933 -3,-1.936 -3,0 0,1.537 0,3.075 0,4.612 0,1.933 3,1.936 3,0 z"/><g id="g65"><g id="g63"><path style="fill:#fff" id="path61" d="m 691.911,688.998 c 1.932,0 1.935,-3.002 0,-3.002 -1.932,0 -1.935,3.002 0,3.002 z"/></g></g><path style="fill:#fff" id="path67" d="m 248.678,808.482 c 1.535,1.537 3.071,3.075 4.606,4.612 1.367,1.369 3.489,-0.755 2.121,-2.124 -1.535,-1.537 -3.071,-3.075 -4.606,-4.612 -1.367,-1.369 -3.489,0.755 -2.121,2.124 z"/><path style="fill:#fff" id="path69" d="m 124.743,913.25 c -0.657,4.819 7.614,4.444 6.653,-0.135 -0.397,-1.891 -3.289,-1.091 -2.893,0.799 -0.072,-0.342 -0.042,0.067 0.009,-0.134 0.039,-0.155 -0.076,0.087 0.07,-0.16 -0.126,0.212 0.163,-0.069 0.03,-0.017 -0.095,0.037 -0.18,0.28 0.022,-0.003 -0.02,0.028 -0.156,0.105 -0.19,0.107 0.285,-0.015 0.105,-0.033 -0.012,-0.009 -0.095,0.02 -0.19,0.048 -0.285,0.068 0.201,-0.041 0.161,-10e-4 -0.017,-0.01 -0.146,-0.008 -0.588,-0.073 -0.252,0.005 -0.094,-0.022 -0.186,-0.043 -0.278,-0.071 -0.106,-0.036 -0.073,-0.019 0.099,0.051 -0.032,-0.016 -0.064,-0.033 -0.096,-0.049 -0.077,-0.217 0.051,0.181 0.006,0.023 -0.026,-0.022 -0.05,-0.046 -0.072,-0.072 -0.076,-0.082 -0.048,-0.048 0.082,0.104 0.017,0.083 0.088,0.267 0.033,0.076 0.108,0.372 0.028,-0.095 -0.016,0.226 0.11,-0.803 -0.193,-1.613 -1.048,-1.848 -0.7,-0.193 -1.735,0.24 -1.845,1.049 z"/><g id="g75"><g id="g73"><path style="fill:#fff" id="path71" d="m 208.285,573.687 c 1.932,0 1.935,-3.002 0,-3.002 -1.932,0 -1.935,3.002 0,3.002 z"/></g></g><path style="fill:#fff" id="path77" d="m 425.826,783.296 c -1.535,-1.537 -3.071,-3.075 -4.606,-4.612 -1.367,-1.369 -3.489,0.755 -2.121,2.124 1.535,1.537 3.071,3.075 4.606,4.612 1.366,1.369 3.488,-0.755 2.121,-2.124 z"/><g id="g83"><g id="g81"><path style="fill:#fff" id="path79" d="m 1037.358,121.668 c 1.932,0 1.935,-3.002 0,-3.002 -1.931,0 -1.935,3.002 0,3.002 z"/></g></g><g id="g89"><g id="g87"><path style="fill:#fff" id="path85" d="m 1272.262,250.816 c 1.932,0 1.935,-3.002 0,-3.002 -1.931,0 -1.935,3.002 0,3.002 z"/></g></g><g id="g95"><g id="g93"><path style="fill:#fff" id="path91" d="m 1216.991,555.237 c 1.932,0 1.935,-3.002 0,-3.002 -1.932,0 -1.935,3.002 0,3.002 z"/></g></g><path style="fill:#fff" id="path97" d="m 1130.231,967.55 c 0,-1.791 0,-3.581 0,-5.372 0,-1.933 -3,-1.936 -3,0 0,1.791 0,3.582 0,5.372 0,1.934 3,1.937 3,0 z"/><g id="g103"><g id="g101"><path style="fill:#fff" id="path99" d="m 903.419,1253.773 c 1.932,0 1.935,-3.002 0,-3.002 -1.931,0 -1.934,3.002 0,3.002 z"/></g></g><path style="fill:#fff" id="path105" d="m 345.505,1296.751 c 1.788,0 3.576,0 5.365,0 1.93,0 1.933,-3.004 0,-3.004 -1.788,0 -3.576,0 -5.365,0 -1.93,0 -1.934,3.004 0,3.004 z"/><path style="fill:#fff" id="path107" d="m 276.826,1471.466 c -1.788,-1.791 -3.576,-3.581 -5.365,-5.372 -1.367,-1.369 -3.489,0.755 -2.121,2.124 1.788,1.791 3.576,3.581 5.365,5.372 1.367,1.369 3.489,-0.755 2.121,-2.124 z"/><path style="fill:#fff" id="path109" d="m 235.241,1122.776 c 0.05,0.367 0.039,-0.205 0.024,0.056 -0.015,0.114 -0.005,0.101 0.03,-0.041 -0.016,0.048 -0.033,0.097 -0.05,0.145 0.101,0.179 -0.264,-0.045 0.027,-0.012 0.109,0.012 -0.204,0.103 0.043,-0.012 0.134,-0.062 0.12,-0.048 -0.007,0 0.103,-0.036 0.213,-0.068 0.321,-0.089 0.171,-0.033 -0.215,0 0.076,-0.013 0.116,-0.01 0.232,0 0.348,0 0.18,0 0.554,0.069 0.712,0.215 -0.154,-0.142 -0.089,-0.034 0.025,0.036 0.06,0.037 -0.038,-0.179 0.003,0.03 -0.024,-0.12 -0.067,-0.186 -0.037,-0.021 -0.067,-0.364 -0.09,0.158 -0.029,-0.131 -0.396,1.886 2.495,2.692 2.893,0.799 1.039,-4.948 -7.98,-5.35 -7.272,-0.157 0.11,0.804 1.139,1.244 1.845,1.049 0.867,-0.238 1.158,-1.04 1.048,-1.847 z"/><path style="fill:#fff" id="path111" d="m 110.964,1499.389 c 0,-1.791 0,-3.581 0,-5.372 0,-1.933 -3,-1.936 -3,0 0,1.791 0,3.581 0,5.372 0,1.933 3,1.936 3,0 z"/><path style="fill:#fff" id="path113" d="m 724.889,1177.062 c 0,1.791 0,3.581 0,5.372 0,1.933 3,1.936 3,0 0,-1.791 0,-3.581 0,-5.372 0,-1.932 -3,-1.936 -3,0 z"/><path style="fill:#fff" id="path115" d="m 652.785,1526.249 c 0,-1.791 0,-3.581 0,-5.372 0,-1.933 -3,-1.936 -3,0 0,1.791 0,3.581 0,5.372 0,1.933 3,1.936 3,0 z"/><g id="g121"><g id="g119"><path style="fill:#fff" id="path117" d="m 1432.224,728.913 c 1.932,0 1.935,-3.002 0,-3.002 -1.932,0 -1.935,3.002 0,3.002 z"/></g></g><g id="g127"><g id="g125"><path style="fill:#fff" id="path123" d="m 1936.753,299.65 c 1.932,0 1.935,-3.002 0,-3.002 -1.932,0 -1.935,3.002 0,3.002 z"/></g></g><path style="fill:#fff" id="path129" d="m 2324.746,595.516 c 1.264,-1.266 2.529,-2.533 3.793,-3.799 1.367,-1.369 -0.754,-3.494 -2.121,-2.124 -1.265,1.266 -2.529,2.533 -3.793,3.799 -1.367,1.369 0.754,3.494 2.121,2.124 z"/><g id="g135"><g id="g133"><path style="fill:#fff" id="path131" d="m 2050.557,907.456 c 1.932,0 1.935,-3.002 0,-3.002 -1.932,0 -1.935,3.002 0,3.002 z"/></g></g><path style="fill:#fff" id="path137" d="m 2756.391,74.336 c -0.767,0.768 -1.534,1.536 -2.301,2.304 -1.367,1.369 0.754,3.494 2.121,2.124 0.767,-0.768 1.534,-1.536 2.301,-2.304 1.367,-1.369 -0.753,-3.494 -2.121,-2.124 -0.767,0.768 -1.534,1.536 -2.301,2.304 -1.367,1.369 0.754,3.494 2.121,2.124 0.767,-0.768 1.534,-1.536 2.301,-2.304 1.367,-1.369 -0.753,-3.494 -2.121,-2.124 z"/><path style="fill:#fff" id="path139" d="m 2485.304,229.771 c 0,1.266 0,2.533 0,3.799 0,1.933 3,1.936 3,0 0,-1.266 0,-2.533 0,-3.799 0,-1.933 -3,-1.936 -3,0 z"/><g id="g145"><g id="g143"><path style="fill:#fff" id="path141" d="m 1557.408,189.485 c 1.932,0 1.935,-3.002 0,-3.002 -1.932,0 -1.935,3.002 0,3.002 z"/></g></g><path style="fill:#fff" id="path147" d="m 1654.574,573.023 c -1.265,-1.266 -2.529,-2.533 -3.793,-3.799 -1.367,-1.369 -3.489,0.755 -2.121,2.124 1.264,1.266 2.529,2.533 3.793,3.799 1.367,1.369 3.489,-0.755 2.121,-2.124 z"/><path style="fill:#fff" id="path149" d="m 1699.339,871.946 c 0,-2.649 0,-5.298 0,-7.947 0,-1.933 -3,-1.936 -3,0 0,2.649 0,5.298 0,7.947 0,1.933 3,1.936 3,0 z"/><g id="g155"><g id="g153"><path style="fill:#fff" id="path151" d="m 1451.819,1254.917 c 1.932,0 1.935,-3.002 0,-3.002 -1.932,0 -1.935,3.002 0,3.002 z"/></g></g></g><g id="g289"><g id="g163"><g id="g161"><path style="fill:#fff" id="path159" d="m 1252.93,68.474 c 1.932,0 1.935,-3.002 0,-3.002 -1.932,0 -1.935,3.002 0,3.002 z"/></g></g><g id="g169"><g id="g167"><path style="fill:#fff" id="path165" d="m 1225.294,225.297 c 1.932,0 1.935,-3.002 0,-3.002 -1.931,0 -1.935,3.002 0,3.002 z"/></g></g><path style="fill:#fff" id="path171" d="m 1463.304,126.935 c 0,1.537 0,3.075 0,4.612 0,1.933 3,1.936 3,0 0,-1.537 0,-3.075 0,-4.612 0,-1.933 -3,-1.937 -3,0 z"/><path style="fill:#fff" id="path173" d="m 1378.791,311.432 c 0,-1.537 0,-3.075 0,-4.612 0,-1.933 -3,-1.936 -3,0 0,1.537 0,3.075 0,4.612 0,1.933 3,1.936 3,0 z"/><path style="fill:#fff" id="path175" d="m 1352.761,173.059 c 0,1.538 0,3.075 0,4.613 0,1.933 3,1.936 3,0 0,-1.537 0,-3.075 0,-4.613 0,-1.933 -3,-1.936 -3,0 z"/><g id="g181"><g id="g179"><path style="fill:#fff" id="path177" d="m 1814.857,45.412 c 1.932,0 1.935,-3.002 0,-3.002 -1.931,0 -1.935,3.002 0,3.002 z"/></g></g><g id="g187"><g id="g185"><path style="fill:#fff" id="path183" d="m 1837.887,335.995 c 1.932,0 1.935,-3.002 0,-3.002 -1.931,0 -1.935,3.002 0,3.002 z"/></g></g><path style="fill:#fff" id="path189" d="m 1784.115,394.456 c 0,-1.538 0,-3.075 0,-4.612 0,-1.933 -3,-1.936 -3,0 0,1.538 0,3.075 0,4.612 10e-4,1.933 3,1.936 3,0 z"/><g id="g195"><g id="g193"><path style="fill:#fff" id="path191" d="m 1644.437,502.043 c 1.932,0 1.935,-3.002 0,-3.002 -1.932,0 -1.935,3.002 0,3.002 z"/></g></g><path style="fill:#fff" id="path197" d="m 1690.496,280.647 c 1.535,0 3.071,0 4.606,0 1.93,0 1.933,-3.004 0,-3.004 -1.535,0 -3.071,0 -4.606,0 -1.93,0 -1.933,3.004 0,3.004 z"/><path style="fill:#fff" id="path199" d="m 2138.335,338.045 c -1.535,-1.538 -3.071,-3.075 -4.606,-4.613 -1.367,-1.369 -3.489,0.755 -2.121,2.124 1.535,1.537 3.071,3.075 4.606,4.612 1.367,1.37 3.489,-0.754 2.121,-2.123 z"/><path style="fill:#fff" id="path201" d="m 2101.927,643.528 c 0,-1.538 0,-3.075 0,-4.612 0,-1.933 -3,-1.936 -3,0 0,1.537 0,3.075 0,4.612 0,1.932 3,1.936 3,0 z"/><g id="g207"><g id="g205"><path style="fill:#fff" id="path203" d="m 1874.735,769.564 c 1.932,0 1.935,-3.002 0,-3.002 -1.932,0 -1.935,3.002 0,3.002 z"/></g></g><path style="fill:#fff" id="path209" d="m 1650.543,943.336 c 0,-1.537 0,-3.075 0,-4.612 0,-1.933 -3,-1.936 -3,0 0,1.537 0,3.075 0,4.612 0,1.933 3,1.936 3,0 z"/><g id="g215"><g id="g213"><path style="fill:#fff" id="path211" d="m 1787.222,645.029 c 1.932,0 1.935,-3.002 0,-3.002 -1.932,0 -1.935,3.002 0,3.002 z"/></g></g><path style="fill:#fff" id="path217" d="m 1343.989,764.513 c 1.535,1.537 3.071,3.075 4.606,4.612 1.367,1.369 3.489,-0.755 2.121,-2.124 -1.535,-1.537 -3.071,-3.075 -4.606,-4.612 -1.367,-1.369 -3.489,0.754 -2.121,2.124 z"/><path style="fill:#fff" id="path219" d="m 1220.054,869.281 c -0.657,4.819 7.614,4.444 6.653,-0.135 -0.397,-1.891 -3.289,-1.091 -2.893,0.799 -0.072,-0.342 -0.042,0.067 0.01,-0.134 0.039,-0.155 -0.077,0.087 0.07,-0.16 -0.125,0.212 0.163,-0.069 0.03,-0.017 -0.095,0.037 -0.18,0.28 0.022,-0.003 -0.02,0.028 -0.156,0.105 -0.19,0.107 0.285,-0.015 0.105,-0.033 -0.012,-0.009 -0.095,0.02 -0.19,0.048 -0.285,0.068 0.201,-0.041 0.161,-10e-4 -0.017,-0.01 -0.146,-0.008 -0.588,-0.073 -0.252,0.005 -0.094,-0.022 -0.186,-0.043 -0.278,-0.071 -0.106,-0.036 -0.073,-0.019 0.099,0.051 -0.032,-0.016 -0.064,-0.033 -0.096,-0.049 -0.077,-0.217 0.051,0.181 0.01,0.023 -0.026,-0.022 -0.05,-0.046 -0.072,-0.072 -0.075,-0.082 -0.048,-0.048 0.082,0.104 0.017,0.083 0.088,0.267 0.033,0.076 0.108,0.372 0.028,-0.095 -0.016,0.226 0.109,-0.803 -0.193,-1.613 -1.048,-1.848 -0.7,-0.193 -1.735,0.24 -1.845,1.049 z"/><g id="g225"><g id="g223"><path style="fill:#fff" id="path221" d="m 1303.595,529.717 c 1.932,0 1.935,-3.002 0,-3.002 -1.931,10e-4 -1.934,3.002 0,3.002 z"/></g></g><path style="fill:#fff" id="path227" d="m 1521.136,739.327 c -1.535,-1.538 -3.071,-3.075 -4.606,-4.613 -1.367,-1.369 -3.489,0.755 -2.121,2.124 1.535,1.538 3.071,3.075 4.606,4.612 1.367,1.37 3.489,-0.754 2.121,-2.123 z"/><g id="g233"><g id="g231"><path style="fill:#fff" id="path229" d="m 2132.669,77.699 c 1.932,0 1.935,-3.002 0,-3.002 -1.932,0 -1.935,3.002 0,3.002 z"/></g></g><g id="g239"><g id="g237"><path style="fill:#fff" id="path235" d="m 2367.573,206.847 c 1.932,0 1.935,-3.002 0,-3.002 -1.932,0 -1.935,3.002 0,3.002 z"/></g></g><g id="g245"><g id="g243"><path style="fill:#fff" id="path241" d="m 2312.301,511.268 c 1.932,0 1.935,-3.002 0,-3.002 -1.931,0 -1.935,3.002 0,3.002 z"/></g></g><path style="fill:#fff" id="path247" d="m 2225.542,923.581 c 0,-1.791 0,-3.582 0,-5.372 0,-1.933 -3,-1.936 -3,0 0,1.791 0,3.582 0,5.372 0,1.933 3,1.936 3,0 z"/><g id="g253"><g id="g251"><path style="fill:#fff" id="path249" d="m 1998.73,1209.804 c 1.932,0 1.935,-3.002 0,-3.002 -1.931,0 -1.935,3.002 0,3.002 z"/></g></g><path style="fill:#fff" id="path255" d="m 1440.816,1252.781 c 1.788,0 3.576,0 5.365,0 1.93,0 1.933,-3.004 0,-3.004 -1.788,0 -3.576,0 -5.365,0 -1.931,0 -1.934,3.004 0,3.004 z"/><path style="fill:#fff" id="path257" d="m 1372.137,1427.497 c -1.788,-1.791 -3.576,-3.581 -5.365,-5.372 -1.367,-1.369 -3.489,0.755 -2.121,2.124 1.788,1.791 3.576,3.581 5.365,5.372 1.367,1.369 3.488,-0.755 2.121,-2.124 z"/><path style="fill:#fff" id="path259" d="m 1330.552,1078.806 c 0.05,0.367 0.04,-0.205 0.024,0.056 -0.015,0.114 -0.01,0.101 0.03,-0.04 -0.016,0.048 -0.033,0.097 -0.05,0.145 0.1,0.179 -0.265,-0.045 0.027,-0.012 0.109,0.012 -0.204,0.103 0.043,-0.012 0.134,-0.062 0.12,-0.048 -0.01,0 0.103,-0.037 0.213,-0.068 0.321,-0.089 0.171,-0.033 -0.215,0 0.076,-0.013 0.116,-0.01 0.232,0 0.349,0 0.18,0 0.553,0.069 0.712,0.215 -0.154,-0.142 -0.089,-0.034 0.025,0.036 0.06,0.037 -0.038,-0.179 0,0.03 -0.024,-0.12 -0.067,-0.186 -0.037,-0.021 -0.067,-0.364 -0.09,0.159 -0.029,-0.131 -0.396,1.886 2.495,2.692 2.893,0.799 1.039,-4.948 -7.98,-5.35 -7.272,-0.157 0.11,0.804 1.139,1.243 1.845,1.049 0.865,-0.239 1.157,-1.041 1.047,-1.848 z"/><path style="fill:#fff" id="path261" d="m 1206.275,1455.419 c 0,-1.791 0,-3.581 0,-5.372 0,-1.933 -3,-1.936 -3,0 0,1.791 0,3.581 0,5.372 0,1.933 3,1.936 3,0 z"/><path style="fill:#fff" id="path263" d="m 1820.2,1133.093 c 0,1.791 0,3.581 0,5.372 0,1.933 3,1.936 3,0 0,-1.791 0,-3.581 0,-5.372 -10e-4,-1.933 -3,-1.936 -3,0 z"/><path style="fill:#fff" id="path265" d="m 1748.096,1482.28 c 0,-1.791 0,-3.581 0,-5.372 0,-1.933 -3,-1.936 -3,0 0,1.791 0,3.581 0,5.372 0,1.933 3,1.936 3,0 z"/><g id="g271"><g id="g269"><path style="fill:#fff" id="path267" d="m 2527.534,684.943 c 1.932,0 1.935,-3.002 0,-3.002 -1.931,10e-4 -1.934,3.002 0,3.002 z"/></g></g><g id="g277"><g id="g275"><path style="fill:#fff" id="path273" d="m 2652.719,145.516 c 1.932,0 1.935,-3.002 0,-3.002 -1.932,0 -1.935,3.002 0,3.002 z"/></g></g><path style="fill:#fff" id="path279" d="m 2749.885,529.054 c -1.265,-1.266 -2.529,-2.532 -3.793,-3.799 -1.367,-1.369 -3.489,0.755 -2.121,2.124 1.264,1.266 2.529,2.533 3.793,3.799 1.367,1.369 3.488,-0.755 2.121,-2.124 z"/><path style="fill:#fff" id="path281" d="m 2794.65,827.977 c 0,-2.649 0,-5.298 0,-7.947 0,-1.933 -3,-1.936 -3,0 0,2.649 0,5.298 0,7.947 0,1.932 3,1.936 3,0 z"/><g id="g287"><g id="g285"><path style="fill:#fff" id="path283" d="m 2547.129,1210.948 c 1.932,0 1.935,-3.002 0,-3.002 -1.931,0 -1.934,3.002 0,3.002 z"/></g></g></g></g><path style="opacity:.4;fill:#fff" id="path293" d="m 722.6913,-383.03302 645.347,-147.258 c 0.269,-0.061 0.537,0.107 0.599,0.376 0.061,0.267 -0.104,0.533 -0.37,0.597 l -643.28,156.04 c -2.69,0.652 -5.399,-0.999 -6.051,-3.689 -0.652,-2.69 0.999,-5.399 3.689,-6.051 0.013,-0.002 0.053,-0.011 0.066,-0.015 z"/><path style="opacity:.4;fill:#fff" id="path295" d="m 1570.7603,130.78398 303.002,-68.071001 c 0.126,-0.028 0.252,0.049 0.281,0.174 0.029,0.123 -0.049,0.246 -0.174,0.276 l -302.031,72.131001 c -1.263,0.302 -2.535,-0.462 -2.841,-1.705 -0.306,-1.243 0.469,-2.496 1.732,-2.797 0.01,-0.002 0.025,-0.007 0.031,-0.008 z"/><path style="opacity:.4;fill:#fff" id="path297" d="m 1386.2073,109.79398 156.671,-34.643001 c 0.126,-0.028 0.252,0.049 0.281,0.174 0.029,0.123 -0.049,0.246 -0.174,0.276 l -155.701,38.702001 c -1.263,0.302 -2.535,-0.462 -2.841,-1.705 -0.306,-1.243 0.469,-2.496 1.732,-2.797 0.01,-10e-4 0.025,-0.005 0.032,-0.007 z"/><path style="opacity:.4;fill:#fff" id="path299" d="m 1460.8013,13.794979 241.819,-53.471 c 0.195,-0.044 0.389,0.076 0.434,0.268 0.044,0.19 -0.076,0.38 -0.268,0.426 l -240.321,59.736 c -1.949,0.465 -3.912,-0.713 -4.385,-2.632 -0.473,-1.919 0.724,-3.852 2.673,-4.317 0.01,-10e-4 0.038,-0.008 0.048,-0.01 z"/><path style="opacity:.4;fill:#fff" id="path301" d="m 1484.2053,-391.37302 952.352,-232.325 c 0.268,-0.065 0.539,0.099 0.604,0.367 0.065,0.267 -0.097,0.536 -0.363,0.603 l -950.174,241.08 c -2.682,0.681 -5.409,-0.942 -6.089,-3.625 -0.681,-2.682 0.942,-5.409 3.625,-6.089 z"/><g style="opacity:.5" id="g349" transform="translate(-282.7767,-811.19702)"><linearGradient id="SVGID_5_" x1="1535.269" x2="-1346.843" y1="1762.97" y2="1125.428" gradientTransform="matrix(0.9661,0.2583,-0.2583,0.9661,482.5484,-331.2546)" gradientUnits="userSpaceOnUse"><stop id="stop342" offset="0" style="stop-color:#feeac2"/><stop id="stop344" offset="1" style="stop-color:#fe62bb"/></linearGradient><path style="fill:url(#SVGID_5_)" id="path347" d="m 1653.876,1800 c -52.585,-20.057 -112.032,-18.238 -165.131,0 z"/></g><g id="g446" transform="translate(-282.7767,-811.19702)"><circle style="opacity:.2;fill:#f25ccc" id="circle360" cx="964.733" cy="1253.416" r="442.219"/><circle style="opacity:.2;fill:#f25ccc" id="circle362" cx="964.733" cy="1253.416" r="381.926"/><radialGradient id="SVGID_7_" cx="834.557" cy="1139.512" r="524.288" gradientUnits="userSpaceOnUse"><stop id="stop364" offset=".001" style="stop-color:#c73ca0"/><stop id="stop366" offset=".264" style="stop-color:#c43b9e"/><stop id="stop368" offset=".43" style="stop-color:#bc3998"/><stop id="stop370" offset=".568" style="stop-color:#ad358d"/><stop id="stop372" offset=".692" style="stop-color:#982f7e"/><stop id="stop374" offset=".806" style="stop-color:#7e286a"/><stop id="stop376" offset=".911" style="stop-color:#5d1f53"/><stop id="stop378" offset=".995" style="stop-color:#3d163b"/></radialGradient><circle style="fill:url(#SVGID_7_)" id="circle381" cx="964.733" cy="1253.416" r="358.314"/><radialGradient id="SVGID_8_" cx="758.29" cy="1070.611" r="362.547" gradientUnits="userSpaceOnUse"><stop id="stop383" offset=".006" style="stop-color:#b43c8f"/><stop id="stop385" offset=".281" style="stop-color:#b13b8d"/><stop id="stop387" offset=".454" style="stop-color:#a93887"/><stop id="stop389" offset=".599" style="stop-color:#9a347d"/><stop id="stop391" offset=".728" style="stop-color:#852d6e"/><stop id="stop393" offset=".847" style="stop-color:#6b255b"/><stop id="stop395" offset=".957" style="stop-color:#4a1a44"/><stop id="stop397" offset=".995" style="stop-color:#3d163b"/></radialGradient><path style="fill:url(#SVGID_8_)" id="path400" d="m 883.186,904.426 c -2.437,1.968 -4.865,3.959 -7.272,5.993 -77.62,64.081 -120.942,146.214 -180.511,226.541 -24.069,31.876 -51.891,61.405 -86.842,77.102 -1.412,12.925 -2.143,26.054 -2.143,39.355 0,56.032 12.866,109.058 35.797,156.291 45.07,-36.356 75.327,-89.951 106.439,-140.974 32.492,-53.251 59.569,-104.696 88.45,-158.85 50.886,-95.873 141.548,-173.052 246.374,-194.635 -37.162,-13.049 -77.124,-20.147 -118.745,-20.147 -28.052,0 -55.351,3.227 -81.547,9.324 z"/><radialGradient id="SVGID_9_" cx="978.339" cy="1306.233" r="355.431" gradientUnits="userSpaceOnUse"><stop id="stop402" offset=".006" style="stop-color:#b43c8f"/><stop id="stop404" offset=".281" style="stop-color:#b13b8d"/><stop id="stop406" offset=".454" style="stop-color:#a93887"/><stop id="stop408" offset=".599" style="stop-color:#9a347d"/><stop id="stop410" offset=".728" style="stop-color:#852d6e"/><stop id="stop412" offset=".847" style="stop-color:#6b255b"/><stop id="stop414" offset=".957" style="stop-color:#4a1a44"/><stop id="stop416" offset=".995" style="stop-color:#3d163b"/></radialGradient><path style="fill:url(#SVGID_9_)" id="path419" d="m 1307.308,1148.114 c -25.348,6.656 -49.921,17.013 -73.079,33.974 -37.907,27.979 -68.594,56.861 -90.256,97.476 -18.051,34.297 -27.077,70.399 -47.835,104.697 -2.708,5.415 -3.61,12.636 -6.318,18.051 -41.517,73.107 -110.112,117.332 -184.121,149.824 -27.778,13.021 -57.23,20.199 -88.347,27.956 44.953,20.317 94.842,31.64 147.381,31.64 9.448,0 18.81,-0.368 28.074,-1.086 34.128,-17.323 66.38,-38.308 95.209,-65.73 64.081,-62.276 93.866,-142.604 149.824,-213.906 21.029,-27.338 49.681,-63.922 85.107,-69.18 0.064,-2.797 0.101,-5.601 0.101,-8.413 -10e-4,-36.65 -5.514,-72.008 -15.74,-105.303 z"/><radialGradient id="SVGID_10_" cx="856.341" cy="1171.293" r="422.913" gradientUnits="userSpaceOnUse"><stop id="stop421" offset=".006" style="stop-color:#b43c8f"/><stop id="stop423" offset=".281" style="stop-color:#b13b8d"/><stop id="stop425" offset=".454" style="stop-color:#a93887"/><stop id="stop427" offset=".599" style="stop-color:#9a347d"/><stop id="stop429" offset=".728" style="stop-color:#852d6e"/><stop id="stop431" offset=".847" style="stop-color:#6b255b"/><stop id="stop433" offset=".957" style="stop-color:#4a1a44"/><stop id="stop435" offset=".995" style="stop-color:#3d163b"/></radialGradient><path style="fill:url(#SVGID_10_)" id="path438" d="m 1191.598,976.071 c -57.085,18.826 -114.366,36.921 -169.47,63.413 -59.569,28.882 -107.404,76.717 -132.676,138.091 -18.051,45.128 -36.102,88.45 -62.276,130.87 -38.519,63.907 -83.833,127.812 -156.529,149.714 24.595,35.262 55.374,65.887 90.758,90.319 86.472,-40.589 166.378,-90.703 225.524,-172.341 18.954,-27.077 33.395,-52.348 38.81,-83.938 5.415,-28.882 10.831,-55.056 18.954,-82.133 6.318,-19.856 15.343,-38.81 27.979,-56.861 34.297,-49.641 75.815,-88.45 131.773,-106.502 15.258,-4.904 32.817,-6.841 49.503,-4.83 -17.937,-24.477 -38.901,-46.599 -62.35,-65.802 z"/><g id="g444"><path style="fill:#9283f1" id="path440" d="m 1640.752,1070.517 c -13.851,-42.066 -155.815,-35.737 -362.076,10.05 4.704,8.788 9.12,17.789 13.278,26.63 97.084,-11.523 162.342,-5.973 171.458,21.714 18.641,56.613 -220.43,186.203 -467.361,267.511 -246.931,81.309 -495.864,112.407 -514.505,55.794 -9.574,-29.075 45.02,-76.327 132.327,-125.753 -2.003,-9.379 -3.285,-18.759 -4.699,-28.581 -206.458,89.437 -339.726,175.71 -325.329,219.432 20.86,63.353 341.525,14.691 716.225,-108.689 374.7,-123.38 661.542,-274.756 640.682,-338.108 z"/><path style="fill:#c2a1f1" id="path442" d="m 1640.752,1063.081 c -13.851,-42.066 -159.553,-34.91 -365.815,10.877 4.704,8.788 9.609,17.342 13.766,26.184 97.084,-11.523 165.592,-6.354 174.709,21.333 18.641,56.613 -220.43,186.203 -467.361,267.511 -246.931,81.309 -495.864,112.407 -514.505,55.794 -9.574,-29.075 43.649,-75.859 130.955,-125.286 -1.559,-9.481 -3.096,-18.514 -4.137,-28.522 -206.458,89.437 -338.917,175.184 -324.52,218.907 20.86,63.353 341.525,14.691 716.225,-108.689 374.7,-123.38 661.543,-274.757 640.683,-338.109 z"/></g></g></svg>