<svg xmlns="http://www.w3.org/2000/svg" xmlns:svg="http://www.w3.org/2000/svg" id="svg2" width="767.123" height="412.314" version="1.1" viewBox="0 0 767.123 412.314" xml:space="preserve"><metadata id="metadata8"/><defs id="defs6"><clipPath id="clipPath56" clipPathUnits="userSpaceOnUse"><path id="path54" d="M 0,980 H 1400 V 0 H 0 Z"/></clipPath></defs><g id="g10" transform="matrix(1.3333333,0,0,-1.3333333,-1028.7302,1250.2428)"><g id="g58" transform="translate(1119.8582,639.8448)"><path style="fill:#fbb47f;fill-opacity:1;fill-rule:nonzero;stroke:none" id="path60" d="m 0,0 c -18.008,-7.348 -37.709,-11.398 -58.351,-11.398 -85.394,0 -154.621,69.228 -154.621,154.621 0,65.435 40.654,121.382 98.091,143.955 -12.298,-12.15 -21.441,-27.564 -27.442,-43.858 -8.005,-21.74 -10.761,-45.071 -11.486,-68.226 -0.609,-19.606 0.278,-39.679 7.335,-57.985 3.772,-9.786 9.231,-18.841 15.258,-27.422 C -100.096,45.389 -52.405,13.274 0,0"/></g><g id="g66" transform="translate(1216.1213,783.0681)"><path style="fill:#ffd389;fill-opacity:1;fill-rule:nonzero;stroke:none" id="path68" d="m 0,0 c 0,-64.751 -39.802,-120.204 -96.263,-143.223 -52.405,13.274 -100.097,45.389 -131.216,89.687 -6.027,8.581 -11.486,17.635 -15.258,27.421 -7.057,18.306 -7.944,38.38 -7.335,57.986 0.725,23.155 3.481,46.486 11.486,68.225 6.001,16.295 15.143,31.709 27.442,43.859 0.007,0 0.007,0 0.007,0.006 17.507,6.874 36.571,10.653 56.523,10.653 C -69.228,154.614 0,85.387 0,0"/></g><g id="g70" transform="translate(1295.1416,871.3226)"><path style="fill:#ffeac7;fill-opacity:1;fill-rule:nonzero;stroke:none" id="path72" d="m 0,0 c -7.387,26.643 -61.518,36.735 -136.244,29.744 3.332,-2.242 6.632,-4.608 10.031,-6.898 55.267,7.928 92.97,6.471 96.429,-6.006 5.777,-20.835 -83.301,-90.363 -202.407,-123.386 -119.106,-33.023 -223.137,-17.036 -228.914,3.799 -3.401,12.266 27.054,32.444 76.976,53.705 0.286,4.098 1.06,8.144 3.039,11.896 -70.649,-33.074 -114.099,-70.75 -106.53,-98.05 11.179,-40.319 129.398,-42.739 264.051,-5.406 C -88.917,-103.268 11.179,-40.319 0,0"/></g><g id="g74" transform="translate(772.241,707.5153)"><path style="fill:#f68959;fill-opacity:1;fill-rule:nonzero;stroke:none" id="path76" d="M 0,0 C -3,5.55 3.578,30.031 22.813,49.942 35.666,63.246 49.665,73.029 50.254,73.439 9.728,32.921 13.58,15.924 16.954,10.421 c 5.271,-8.597 7.272,-47.127 262.137,-10.666 64.263,16.149 144.233,49.409 194.203,79.843 55.665,33.902 72.395,61.332 72.908,75.786 0.579,16.302 -5.818,29.492 -78.081,42.582 29.197,-2.111 60.88,-6.608 76.348,-14.192 20.587,-10.095 24.014,-18.067 28.875,-26.429 C 585.58,136.301 513.541,28.94 282.947,-32.451 199.68,-45.817 29.365,-54.325 0,0"/></g><g id="g78" transform="translate(983.7773,815.2227)"><path style="fill:#fbb47f;fill-opacity:1;fill-rule:nonzero;stroke:none" id="path80" d="m 0,0 c -31.136,0 -45.382,10.109 -46.53,10.967 l 10.172,13.621 -0.099,0.072 c 0.122,-0.086 12.588,-8.593 40.856,-7.662 26.642,0.88 72.873,10.517 141.82,51.423 4.037,2.396 9.251,1.065 11.647,-2.973 2.395,-4.037 1.064,-9.252 -2.973,-11.647 C 82.423,10.804 32.188,0 0,0"/></g><g id="g82" transform="translate(975.3584,789.1089)"><path style="fill:#fbb47f;fill-opacity:1;fill-rule:nonzero;stroke:none" id="path84" d="m 0,0 c -0.292,0 -0.579,0.001 -0.87,0.002 -33.091,0.181 -48.612,11.066 -49.257,11.53 -2.018,1.45 -2.477,4.262 -1.027,6.28 1.447,2.012 4.246,2.476 6.261,1.041 C -44.666,18.696 -30.406,9 -0.032,9 h 0.235 c 28.534,0.047 77.34,8.879 147.81,50.689 2.134,1.268 4.898,0.564 6.166,-1.574 1.268,-2.137 0.563,-4.898 -1.575,-6.166 C 94.501,17.476 43.161,0 0,0"/></g><g id="g86" transform="translate(972.2676,762.3457)"><path style="fill:#fbb47f;fill-opacity:1;fill-rule:nonzero;stroke:none" id="path88" d="m 0,0 c -30.293,0 -44.467,12.106 -45.39,12.926 -1.857,1.651 -2.025,4.495 -0.374,6.353 1.645,1.85 4.475,2.024 6.332,0.392 0.168,-0.143 8.378,-7.036 25.688,-9.625 16.258,-2.431 44.047,-1.462 84.095,16.97 2.256,1.037 4.93,0.051 5.969,-2.206 1.039,-2.258 0.051,-4.931 -2.206,-5.97 C 42.974,4.509 18.485,0 0,0"/></g><g id="g90" transform="translate(1061.499,784.2627)"><path style="fill:#fbb47f;fill-opacity:1;fill-rule:nonzero;stroke:none" id="path92" d="m 0,0 c -1.898,0 -3.664,1.211 -4.28,3.115 -0.764,2.361 0.526,4.893 2.883,5.663 0.091,0.031 9.241,3.117 18.298,11.722 1.804,1.711 4.651,1.638 6.363,-0.163 1.712,-1.802 1.638,-4.65 -0.163,-6.362 C 12.481,3.887 1.835,0.365 1.387,0.22 0.926,0.071 0.459,0 0,0"/></g><g id="g94" transform="translate(976.7256,843.1934)"><path style="fill:#fbb47f;fill-opacity:1;fill-rule:nonzero;stroke:none" id="path96" d="m 0,0 c -0.855,0 -1.36,0.028 -1.453,0.034 -2.481,0.152 -4.368,2.286 -4.216,4.767 0.151,2.475 2.261,4.365 4.754,4.217 0.135,-0.007 9.761,-0.47 21.316,4.221 2.305,0.937 4.927,-0.174 5.863,-2.477 C 27.198,8.459 26.089,5.834 23.786,4.9 12.879,0.473 3.504,0 0,0"/></g></g></svg>